<svg preserveAspectRatio="none" width="100%" height="100%" overflow="visible" style="display: block;" viewBox="0 0 65.0642 66" fill="none" xmlns="http://www.w3.org/2000/svg">
<path id="Star 1" d="M37.0997 5.60547L37.3243 5.84961L37.6192 5.69629L43.6104 2.59277L46.2042 8.81738L46.3311 9.12402L46.6602 9.08105L53.3526 8.21191L53.6583 14.9473L53.6739 15.2793L53.9981 15.3516L60.5841 16.8203L58.5655 23.2539L58.4659 23.5713L58.7462 23.75L64.4317 27.3809L60.3321 32.7363L60.13 33L60.3321 33.2637L64.4317 38.6182L58.7462 42.25L58.4659 42.4287L58.5655 42.7461L60.5841 49.1787L53.9981 50.6484L53.6739 50.7207L53.6583 51.0527L53.3526 57.7871L46.6602 56.9189L46.3311 56.876L46.2042 57.1826L43.6104 63.4062L37.6192 60.3037L37.3243 60.1504L37.0997 60.3945L32.5313 65.3584L27.964 60.3945L27.7393 60.1504L27.4454 60.3037L21.4532 63.4062L18.8604 57.1826L18.7325 56.876L18.4034 56.9189L11.711 57.7871L11.4054 51.0527L11.3907 50.7207L11.0665 50.6484L4.47861 49.1787L6.49911 42.7461L6.59872 42.4287L6.31845 42.25L0.631927 38.6182L4.73154 33.2637L4.93369 33L4.73154 32.7363L0.631927 27.3809L6.31845 23.75L6.59872 23.5713L6.49911 23.2539L4.47861 16.8203L11.0665 15.3516L11.3907 15.2793L11.4054 14.9473L11.711 8.21191L18.4034 9.08105L18.7325 9.12402L18.8604 8.81738L21.4532 2.59277L27.4454 5.69629L27.7393 5.84961L27.964 5.60547L32.5313 0.640625L37.0997 5.60547Z" fill="var(--fill-0, #1898D5)" stroke="var(--stroke-0, #1898D5)" stroke-width="0.868421"/>
</svg>
