<svg width="907" height="488" overflow="visible" style="display: block;" viewBox="0 0 907 488" fill="none" xmlns="http://www.w3.org/2000/svg">
<g id="Subtract">
<mask id="path-1-inside-1_545_2522" fill="white">
<path d="M887 0C898.046 1.06302e-05 907 8.95431 907 20V81C891.26 81 878.5 93.7599 878.5 109.5C878.5 125.24 891.26 138 907 138V468C907 479.046 898.046 488 887 488H20C8.95431 488 0 479.046 0 468V137.993C0.166338 137.996 0.332979 138 0.5 138C16.2401 138 29 125.24 29 109.5C29 93.7599 16.2401 81 0.5 81C0.332985 81 0.166332 81.003 0 81.0059V20C2.83492e-06 8.95431 8.95431 0 20 0H887Z"/>
</mask>
<path d="M887 0C898.046 1.06302e-05 907 8.95431 907 20V81C891.26 81 878.5 93.7599 878.5 109.5C878.5 125.24 891.26 138 907 138V468C907 479.046 898.046 488 887 488H20C8.95431 488 0 479.046 0 468V137.993C0.166338 137.996 0.332979 138 0.5 138C16.2401 138 29 125.24 29 109.5C29 93.7599 16.2401 81 0.5 81C0.332985 81 0.166332 81.003 0 81.0059V20C2.83492e-06 8.95431 8.95431 0 20 0H887Z" fill="var(--fill-0, white)"/>
<path d="M887 0V-1V-1V0ZM907 81V82H908V81H907ZM907 138H908V137H907V138ZM907 468H908V468H907ZM20 488L20 489H20V488ZM0 137.993L0.0172019 136.993L-1 136.976V137.993H0ZM0 81.0059H-1V82.0232L0.0172013 82.0057L0 81.0059ZM0 20H-1V20H0ZM887 0V1C897.493 1.00001 906 9.5066 906 20H907H908C908 8.40203 898.598 -0.999989 887 -1V0ZM907 20H906V81H907H908V20H907ZM907 81V80C890.708 80 877.5 93.2076 877.5 109.5H878.5H879.5C879.5 94.3122 891.812 82 907 82V81ZM878.5 109.5H877.5C877.5 125.792 890.708 139 907 139V138V137C891.812 137 879.5 124.688 879.5 109.5H878.5ZM907 138H906V468H907H908V138H907ZM907 468H906C906 478.493 897.493 487 887 487V488V489C898.598 489 908 479.598 908 468H907ZM887 488V487H20V488V489H887V488ZM20 488L20 487C9.5066 487 1 478.493 1 468H0H-1C-1 479.598 8.40203 489 20 489L20 488ZM0 468H1V137.993H0H-1V468H0ZM0 137.993L-0.0172019 138.993C0.140228 138.996 0.321586 139 0.5 139V138V137C0.344372 137 0.192447 136.996 0.0172019 136.993L0 137.993ZM0.5 138V139C16.7924 139 30 125.792 30 109.5H29H28C28 124.688 15.6878 137 0.5 137V138ZM29 109.5H30C30 93.2076 16.7924 80 0.5 80V81V82C15.6878 82 28 94.3122 28 109.5H29ZM0.5 81V80C0.322706 80 0.146919 80.0032 -0.0172013 80.006L0 81.0059L0.0172013 82.0057C0.185746 82.0028 0.343264 82 0.5 82V81ZM0 81.0059H1V20H0H-1V81.0059H0ZM0 20H1C1 9.50659 9.50659 1 20 1V0V-1C8.40202 -1 -0.999997 8.40202 -1 20H0ZM20 0V1H887V0V-1H20V0Z" fill="var(--stroke-0, #003327)" mask="url(#path-1-inside-1_545_2522)"/>
</g>
</svg>
