<svg preserveAspectRatio="none" width="100%" height="100%" overflow="visible" style="display: block;" viewBox="0 0 20 20" fill="none" xmlns="http://www.w3.org/2000/svg">
<g id="canada 1" clip-path="url(#clip0_740_244)">
<path id="Vector" d="M10 20C15.5228 20 20 15.5228 20 10C20 4.47715 15.5228 0 10 0C4.47715 0 0 4.47715 0 10C0 15.5228 4.47715 20 10 20Z" fill="var(--fill-0, #F0F0F0)"/>
<g id="Group">
<path id="Vector_2" d="M20 10C20 6.03539 17.6928 2.60977 14.3478 0.992266V19.0077C17.6928 17.3902 20 13.9646 20 10Z" fill="var(--fill-0, #D80027)"/>
<path id="Vector_3" d="M0 10C0 13.9646 2.30723 17.3902 5.65219 19.0077V0.992266C2.30723 2.60977 0 6.03539 0 10Z" fill="var(--fill-0, #D80027)"/>
<path id="Vector_4" d="M11.7391 11.3043L13.4782 10.4348L12.6087 10V9.13043L10.8696 10L11.7391 8.26086H10.8696L10 6.95652L9.13043 8.26086H8.26086L9.13043 10L7.39129 9.13043V10L6.52176 10.4348L8.26086 11.3043L7.82609 12.1739H9.56523V13.4782H10.4348V12.1739H12.1739L11.7391 11.3043Z" fill="var(--fill-0, #D80027)"/>
</g>
</g>
<defs>
<clipPath id="clip0_740_244">
<rect width="20" height="20" fill="white"/>
</clipPath>
</defs>
</svg>
