<svg width="29.0001" height="18.2864" overflow="visible" style="display: block;" viewBox="0 0 29.0001 18.2864" fill="none" xmlns="http://www.w3.org/2000/svg">
<g id="Group">
<path id="Vector" d="M29 17.2107C29 17.8051 28.5187 18.2864 27.9242 18.2864H1.07557C0.481514 18.2864 0 17.8051 0 17.2107V1.07574C0 0.481684 0.481514 0 1.07557 0H27.9243C28.5187 0 29.0001 0.481684 29.0001 1.07574L29 17.2107Z" fill="var(--fill-0, #21246E)"/>
<path id="Vector_2" d="M11.0222 5.29496L7.79554 12.9946H5.68947L4.10272 6.85051C4.00501 6.47157 3.92152 6.33373 3.62862 6.17285C3.14886 5.91341 2.35962 5.67005 1.66277 5.51851L1.71151 5.29502H5.09988C5.53204 5.29502 5.92054 5.58327 6.01825 6.08018L6.85725 10.5366L8.92958 5.29502L11.0222 5.29496ZM19.2717 10.4795C19.2811 8.44852 16.4614 8.33796 16.4816 7.42934C16.4871 7.15201 16.75 6.85849 17.3257 6.78439C17.6116 6.74635 18.3984 6.7185 19.2901 7.12784L19.6396 5.49586C19.1598 5.32174 18.5431 5.15497 17.7766 5.15497C15.8081 5.15497 14.4222 6.20206 14.4105 7.70027C14.3976 8.80821 15.3992 9.42644 16.1548 9.79541C16.9306 10.173 17.19 10.414 17.1873 10.7526C17.1822 11.2694 16.5683 11.4953 15.9957 11.5054C14.994 11.521 14.413 11.2347 13.9491 11.0186L13.5885 12.7067C14.0532 12.9201 14.9136 13.1054 15.8042 13.1163C17.8964 13.1163 19.2651 12.0803 19.2717 10.4795ZM24.4703 12.9945H26.313L24.7051 5.2949H23.0041C22.6219 5.2949 22.2997 5.51783 22.1561 5.85929L19.1691 12.9945H21.2598L21.6748 11.8446H24.2304L24.4703 12.9945ZM22.2478 10.2666L23.2966 7.3755L23.9 10.2666H22.2478ZM13.8687 5.29496L12.2207 12.9945H10.2285L11.8769 5.2949H13.8687V5.29496Z" fill="var(--fill-0, white)"/>
</g>
</svg>
