<svg preserveAspectRatio="none" width="100%" height="100%" overflow="visible" style="display: block;" viewBox="0 0 20 20" fill="none" xmlns="http://www.w3.org/2000/svg">
<g id="european-union 1" clip-path="url(#clip0_740_206)">
<path id="Vector" d="M10 20C15.5228 20 20 15.5228 20 10C20 4.47715 15.5228 0 10 0C4.47715 0 0 4.47715 0 10C0 15.5228 4.47715 20 10 20Z" fill="var(--fill-0, #0052B4)"/>
<g id="Group">
<path id="Vector_2" d="M10 3.91305L10.3238 4.90949H11.3715L10.5239 5.52531L10.8477 6.52176L10 5.9059L9.15238 6.52176L9.47617 5.52531L8.62856 4.90949H9.67625L10 3.91305Z" fill="var(--fill-0, #FFDA44)"/>
<path id="Vector_3" d="M5.69586 5.69586L6.62945 6.17148L7.37027 5.4307L7.20633 6.46547L8.13988 6.94113L7.10508 7.10504L6.94117 8.13988L6.46551 7.20633L5.43074 7.37027L6.17156 6.62945L5.69586 5.69586Z" fill="var(--fill-0, #FFDA44)"/>
<path id="Vector_4" d="M3.91309 10L4.90953 9.67621V8.62852L5.52531 9.47617L6.5218 9.15238L5.9059 10L6.5218 10.8476L5.52531 10.5239L4.90953 11.3715V10.3238L3.91309 10Z" fill="var(--fill-0, #FFDA44)"/>
<path id="Vector_5" d="M5.69586 14.3041L6.17152 13.3705L5.43074 12.6297L6.46555 12.7937L6.94113 11.8602L7.10508 12.895L8.13984 13.0589L7.20641 13.5345L7.37027 14.5693L6.62945 13.8285L5.69586 14.3041Z" fill="var(--fill-0, #FFDA44)"/>
<path id="Vector_6" d="M10 16.087L9.67621 15.0905H8.62856L9.47621 14.4747L9.15238 13.4783L10 14.0941L10.8477 13.4783L10.5239 14.4747L11.3715 15.0905H10.3238L10 16.087Z" fill="var(--fill-0, #FFDA44)"/>
<path id="Vector_7" d="M14.3042 14.3041L13.3706 13.8285L12.6298 14.5693L12.7937 13.5345L11.8602 13.0589L12.895 12.895L13.0589 11.8602L13.5345 12.7937L14.5693 12.6297L13.8285 13.3706L14.3042 14.3041Z" fill="var(--fill-0, #FFDA44)"/>
<path id="Vector_8" d="M16.087 10L15.0905 10.3238V11.3715L14.4747 10.5238L13.4783 10.8476L14.0941 10L13.4783 9.15238L14.4747 9.47617L15.0905 8.62852V9.67625L16.087 10Z" fill="var(--fill-0, #FFDA44)"/>
<path id="Vector_9" d="M14.3042 5.69586L13.8285 6.62945L14.5693 7.37027L13.5345 7.20629L13.0589 8.13984L12.895 7.10504L11.8602 6.94109L12.7937 6.46547L12.6298 5.43074L13.3707 6.17152L14.3042 5.69586Z" fill="var(--fill-0, #FFDA44)"/>
</g>
</g>
<defs>
<clipPath id="clip0_740_206">
<rect width="20" height="20" fill="white"/>
</clipPath>
</defs>
</svg>
