<svg width="20.5" height="21.5" overflow="visible" style="display: block;" viewBox="0 0 20.5 21.5" fill="none" xmlns="http://www.w3.org/2000/svg">
<g id="elements">
<path id="Vector" d="M2.12289 15.7694L0.919322 8.58981C0.737347 7.50428 0.64636 6.96152 0.937727 6.60576C1.22909 6.25 1.76461 6.25 2.83563 6.25L17.6644 6.25C18.7354 6.25 19.2709 6.25 19.5623 6.60576C19.8536 6.96152 19.7626 7.50428 19.5807 8.58981L18.3771 15.7694C17.9782 18.1491 17.7787 19.3389 16.9643 20.0445C16.15 20.75 14.976 20.75 12.6282 20.75L7.87181 20.75C5.52395 20.75 4.35002 20.75 3.53564 20.0445C2.72127 19.3389 2.52181 18.1491 2.12289 15.7694Z" stroke="var(--stroke-0, #003327)" stroke-width="1.5"/>
<path id="Ellipse 1992" d="M15.75 6.25C15.75 3.21243 13.2876 0.75 10.25 0.75C7.21243 0.75 4.74999 3.21243 4.74999 6.25" stroke="var(--stroke-0, #003327)" stroke-width="1.5"/>
</g>
</svg>
