<svg width="50" height="50" overflow="visible" style="display: block;" viewBox="0 0 50 50" fill="none" xmlns="http://www.w3.org/2000/svg">
<g id="Footer Icon">
<rect width="50" height="50" rx="25" fill="var(--fill-0, #003327)"/>
<g id="Vector">
<path d="M24.9885 40C21.5183 39.9973 18.1564 38.7915 15.4755 36.5881C12.7947 34.3846 10.9607 31.3198 10.2862 27.9159C9.61159 24.5119 10.1381 20.9793 11.776 17.92C13.414 14.8607 16.062 12.4639 19.2689 11.138C22.4757 9.81217 26.0432 9.63921 29.3633 10.6486C32.6834 11.6581 35.5508 13.7874 37.477 16.6739C39.4032 19.5604 40.269 23.0255 39.9269 26.4788C39.5848 29.9321 38.0559 33.1599 35.6008 35.6123C34.2081 37.0066 32.5536 38.1119 30.7324 38.8649C28.9112 39.6178 26.9592 40.0036 24.9885 40ZM24.9885 11.7004C21.9108 11.702 18.929 12.7707 16.551 14.7244C14.173 16.6781 12.546 19.3959 11.9472 22.4147C11.3484 25.4335 11.8149 28.5666 13.2671 31.28C14.7193 33.9935 17.0675 36.1195 19.9115 37.2957C22.7555 38.4719 25.9193 38.6256 28.864 37.7307C31.8086 36.8357 34.3518 34.9474 36.0603 32.3876C37.7687 29.8277 38.5367 26.7546 38.2334 23.692C37.9301 20.6293 36.5743 17.7666 34.3969 15.5916C33.1624 14.355 31.6957 13.3746 30.0811 12.7068C28.4665 12.039 26.7358 11.697 24.9885 11.7004Z" fill="var(--fill-0, white)"/>
<path d="M25.5087 33.3947H23.7816C22.7404 33.394 21.742 32.98 21.0057 32.2437C20.2695 31.5075 19.8555 30.5091 19.8547 29.4679V28.4572C19.8547 28.2672 19.9302 28.0849 20.0646 27.9506C20.1989 27.8162 20.3811 27.7408 20.5711 27.7408H21.5699C22.6112 27.7416 23.6095 28.1555 24.3458 28.8918C25.082 29.628 25.496 30.6264 25.4968 31.6676L25.5087 33.3947ZM21.0497 28.9358V29.4708C21.0505 30.1959 21.3389 30.8911 21.8516 31.4038C22.3643 31.9165 23.0595 32.2049 23.7846 32.2057H24.3196V31.6706C24.3188 30.9455 24.0305 30.2504 23.5177 29.7377C23.005 29.2249 22.3099 28.9366 21.5848 28.9358H21.0497Z" fill="var(--fill-0, white)"/>
<path d="M25.5087 29.236H23.7816C22.7401 29.236 21.7413 28.8223 21.0049 28.0859C20.2684 27.3494 19.8547 26.3506 19.8547 25.3091V24.3014C19.8547 24.1114 19.9302 23.9292 20.0646 23.7948C20.1989 23.6605 20.3811 23.585 20.5711 23.585H21.5699C22.6114 23.585 23.6102 23.9987 24.3466 24.7352C25.0831 25.4716 25.4968 26.4704 25.4968 27.5119L25.5087 29.236ZM21.0497 24.777V25.3091C21.0505 26.0345 21.3388 26.73 21.8514 27.2432C22.364 27.7563 23.0592 28.0454 23.7846 28.047H24.3196V27.5119C24.3188 26.7868 24.0305 26.0916 23.5177 25.5789C23.005 25.0662 22.3099 24.7778 21.5848 24.777H21.0497Z" fill="var(--fill-0, white)"/>
<path d="M25.5087 25.0803H23.7816C22.7404 25.0795 21.742 24.6655 21.0057 23.9292C20.2695 23.193 19.8555 22.1946 19.8547 21.1534V20.1427C19.8547 19.9527 19.9302 19.7705 20.0646 19.6361C20.1989 19.5017 20.3811 19.4263 20.5711 19.4263H21.5699C22.6112 19.4271 23.6095 19.841 24.3458 20.5773C25.082 21.3135 25.496 22.3119 25.4968 23.3531L25.5087 25.0803ZM21.0497 20.6213V21.1564C21.0505 21.8814 21.3389 22.5766 21.8516 23.0893C22.3643 23.602 23.0595 23.8904 23.7846 23.8912H24.3196V23.3561C24.3188 22.631 24.0305 21.9359 23.5177 21.4232C23.005 20.9105 22.3099 20.6221 21.5848 20.6213H21.0497Z" fill="var(--fill-0, white)"/>
<path d="M26.0289 33.3947H24.3018V31.6676C24.3018 30.6262 24.7155 29.6274 25.4519 28.8909C26.1884 28.1545 27.1872 27.7408 28.2287 27.7408H29.2364C29.3306 27.7404 29.4239 27.7586 29.511 27.7945C29.5981 27.8304 29.6772 27.8831 29.7438 27.9497C29.8104 28.0163 29.8632 28.0955 29.8991 28.1826C29.9349 28.2696 29.9532 28.363 29.9528 28.4572V29.4679C29.9528 30.5088 29.5395 31.5072 28.8037 32.2435C28.0679 32.9799 27.0699 33.394 26.0289 33.3947ZM25.4938 32.2057H26.0289C26.754 32.2049 27.4491 31.9165 27.9619 31.4038C28.4746 30.8911 28.763 30.1959 28.7637 29.4708V28.9358H28.2287C27.5036 28.9366 26.8084 29.2249 26.2957 29.7377C25.783 30.2504 25.4946 30.9455 25.4938 31.6706V32.2057Z" fill="var(--fill-0, white)"/>
<path d="M26.0289 29.236H24.3018V27.5119C24.3014 26.9961 24.4027 26.4853 24.5999 26.0087C24.7971 25.5321 25.0864 25.099 25.4511 24.7343C25.8158 24.3696 26.2488 24.0803 26.7255 23.8831C27.2021 23.6859 27.7129 23.5846 28.2287 23.585H29.2364C29.3306 23.5846 29.4239 23.6029 29.511 23.6387C29.5981 23.6746 29.6772 23.7274 29.7438 23.794C29.8104 23.8606 29.8632 23.9397 29.8991 24.0268C29.9349 24.1139 29.9532 24.2072 29.9528 24.3014V25.3091C29.9532 25.8247 29.852 26.3353 29.655 26.8117C29.4579 27.2881 29.169 27.721 28.8046 28.0857C28.4402 28.4504 28.0075 28.7397 27.5312 28.937C27.0549 29.1344 26.5444 29.236 26.0289 29.236ZM25.4938 28.0469H26.0289C26.7543 28.0454 27.4494 27.7563 27.962 27.2431C28.4747 26.73 28.763 26.0345 28.7637 25.3091V24.777H28.2287C27.5036 24.7778 26.8084 25.0662 26.2957 25.5789C25.783 26.0916 25.4946 26.7868 25.4938 27.5119V28.0469Z" fill="var(--fill-0, white)"/>
<path d="M26.0289 25.0803H24.3018V23.3531C24.3018 22.3117 24.7155 21.3129 25.4519 20.5764C26.1884 19.84 27.1872 19.4263 28.2287 19.4263H29.3464C29.4257 19.4262 29.5043 19.4421 29.5774 19.4729C29.6505 19.5037 29.7167 19.5488 29.7721 19.6056C29.8275 19.6624 29.871 19.7297 29.9 19.8036C29.929 19.8774 29.9429 19.9563 29.9409 20.0357V21.1534C29.9409 22.1923 29.5292 23.1889 28.796 23.9249C28.0628 24.6609 27.0678 25.0763 26.0289 25.0803ZM25.4938 23.8912H26.0289C26.754 23.8904 27.4491 23.602 27.9619 23.0893C28.4746 22.5766 28.763 21.8814 28.7637 21.1564V20.6213H28.2287C27.5036 20.6221 26.8084 20.9105 26.2957 21.4232C25.783 21.9359 25.4946 22.631 25.4938 23.3561V23.8912Z" fill="var(--fill-0, white)"/>
<path d="M24.9082 22.5565L23.6508 21.2961C23.2685 20.9142 22.9653 20.4608 22.7584 19.9617C22.5514 19.4626 22.445 18.9276 22.445 18.3873C22.445 17.847 22.5514 17.312 22.7584 16.8129C22.9653 16.3138 23.2685 15.8604 23.6508 15.4786L24.5069 14.6225C24.5605 14.5686 24.6242 14.5259 24.6943 14.4968C24.7645 14.4676 24.8397 14.4526 24.9156 14.4526C24.9916 14.4526 25.0668 14.4676 25.137 14.4968C25.2071 14.5259 25.2708 14.5686 25.3244 14.6225L26.1805 15.4786C26.9511 16.2505 27.3839 17.2966 27.3839 18.3873C27.3839 19.478 26.9511 20.5242 26.1805 21.2961L24.9082 22.5565ZM24.9082 15.8948L24.4861 16.3169C23.9395 16.8661 23.6327 17.6095 23.6327 18.3844C23.6327 19.1592 23.9395 19.9026 24.4861 20.4518L24.9082 20.8739L25.3333 20.4518C25.8799 19.9026 26.1867 19.1592 26.1867 18.3844C26.1867 17.6095 25.8799 16.8661 25.3333 16.3169L24.9082 15.8948Z" fill="var(--fill-0, white)"/>
<path d="M24.9261 35.9037C24.7684 35.9037 24.6172 35.841 24.5057 35.7295C24.3942 35.618 24.3315 35.4668 24.3315 35.3091V21.7152C24.3315 21.5575 24.3942 21.4063 24.5057 21.2948C24.6172 21.1833 24.7684 21.1207 24.9261 21.1207C25.0837 21.1207 25.235 21.1833 25.3465 21.2948C25.4579 21.4063 25.5206 21.5575 25.5206 21.7152V35.3062C25.521 35.3845 25.5059 35.4621 25.4762 35.5346C25.4465 35.6071 25.4028 35.673 25.3475 35.7285C25.2923 35.784 25.2266 35.8281 25.1543 35.8581C25.0819 35.8882 25.0044 35.9037 24.9261 35.9037Z" fill="var(--fill-0, white)"/>
<path d="M20.1668 30.2705C20.0421 29.916 19.9681 29.5458 19.9469 29.1706L14.5426 34.5779C14.457 34.6639 14.3987 34.7733 14.3752 34.8924C14.3516 35.0115 14.3638 35.1349 14.4102 35.247C14.4566 35.3592 14.5351 35.4552 14.6359 35.5228C14.7367 35.5904 14.8552 35.6268 14.9766 35.6272C15.1404 35.6261 15.2972 35.561 15.4136 35.4459L20.2798 30.5797C20.2412 30.4756 20.2025 30.3745 20.1668 30.2705Z" fill="var(--fill-0, white)"/>
<path d="M35.4344 14.5541C35.3772 14.4968 35.3093 14.4514 35.2346 14.4204C35.1599 14.3894 35.0798 14.3735 34.9989 14.3735C34.918 14.3735 34.8379 14.3894 34.7631 14.4204C34.6884 14.4514 34.6205 14.4968 34.5634 14.5541L29.4147 19.7057C29.7507 19.9851 29.822 20.5291 29.8517 20.9304C29.8502 20.9552 29.8502 20.98 29.8517 21.0047L35.4314 15.4251C35.4888 15.3681 35.5345 15.3004 35.5657 15.2258C35.597 15.1512 35.6132 15.0711 35.6135 14.9902C35.6138 14.9093 35.5981 14.8291 35.5673 14.7543C35.5366 14.6795 35.4914 14.6115 35.4344 14.5541Z" fill="var(--fill-0, white)"/>
</g>
</g>
</svg>
