<svg width="50.0203" height="50.0119" overflow="visible" style="display: block;" viewBox="0 0 50.0203 50.0119" fill="none" xmlns="http://www.w3.org/2000/svg">
<g id="Footer Icon">
<rect width="50.0203" height="50.0119" rx="25.006" fill="var(--fill-0, #003327)"/>
<g id="Vector">
<path d="M24.7353 33.6831C23.1774 33.6833 21.6242 33.5119 20.1039 33.1718C19.8315 33.0961 19.5805 32.9581 19.3705 32.7688C19.1605 32.5795 18.9974 32.344 18.894 32.0809C18.8228 31.8883 18.8026 31.6807 18.8354 31.478C18.8682 31.2754 18.9529 31.0847 19.0813 30.9245L19.3013 30.6272C18.8435 30.4102 18.2817 30.1368 17.8417 29.893C17.185 29.549 16.6124 29.0643 16.1648 28.4733C15.7172 27.8823 15.4057 27.1998 15.2525 26.4744C14.9553 25.0119 15.3744 23.4721 16.4089 22.1165C16.4155 21.4521 16.5595 20.7962 16.8316 20.19C17.1037 19.5838 17.4982 19.0404 17.9903 18.5939C18.832 17.77 19.9372 17.269 21.1116 17.179C22.0569 15.9453 23.8643 15.5618 25.3179 15.6272C26.6289 15.6837 28.2014 16.1296 28.9446 17.1879C30.1518 17.2938 31.2837 17.8197 32.1431 18.6742C32.6075 19.1212 32.9772 19.6572 33.23 20.2501C33.4828 20.8431 33.6136 21.4809 33.6146 22.1255C34.6491 23.484 35.0593 25.0208 34.771 26.4834C34.6178 27.2087 34.3063 27.8913 33.8587 28.4822C33.4111 29.0732 32.8385 29.558 32.1818 29.9019C31.7418 30.1457 31.18 30.4192 30.7222 30.6362L30.9452 30.9334C31.0712 31.0948 31.1543 31.2856 31.1865 31.4878C31.2188 31.6901 31.1991 31.8972 31.1295 32.0898C31.0282 32.35 30.8682 32.5833 30.6619 32.7715C30.4557 32.9597 30.2088 33.0977 29.9404 33.1748C28.3227 33.5408 26.6672 33.7134 25.0088 33.6891L24.7353 33.6831ZM21.1978 18.4126C20.3012 18.4772 19.4575 18.8611 18.8197 19.4947C18.4271 19.8466 18.117 20.2809 17.9115 20.7665C17.706 21.252 17.6101 21.7769 17.6307 22.3038V22.5357L17.485 22.717C16.5932 23.8288 16.2097 25.0803 16.4386 26.2426C16.5548 26.7925 16.7923 27.3095 17.1338 27.7559C17.4753 28.2023 17.9121 28.5668 18.4125 28.8228C19.007 29.1498 19.8631 29.5511 20.3179 29.7622C20.4217 29.8077 20.5137 29.8764 20.5869 29.963C20.66 30.0495 20.7124 30.1517 20.7401 30.2616C20.7646 30.4128 20.7529 30.5676 20.7059 30.7134C20.6589 30.8591 20.5778 30.9916 20.4695 31.0999L20.0385 31.6677C20.0385 31.745 20.2198 31.9352 20.3804 31.9649C23.4271 32.6014 26.5726 32.6014 29.6194 31.9649C29.6914 31.9399 29.7578 31.9008 29.8144 31.8497C29.8711 31.7987 29.917 31.7368 29.9493 31.6677L29.5123 31.0999C29.404 30.9916 29.323 30.8591 29.276 30.7134C29.229 30.5676 29.2172 30.4128 29.2418 30.2616C29.2694 30.1517 29.3219 30.0495 29.395 29.963C29.4682 29.8764 29.5602 29.8077 29.6639 29.7622C30.1188 29.5511 30.9689 29.1498 31.5694 28.8228C32.0697 28.5668 32.5066 28.2023 32.8481 27.7559C33.1896 27.3095 33.4271 26.7925 33.5433 26.2426C33.7721 25.0803 33.4006 23.8288 32.4969 22.717L32.3512 22.5357V22.3038C32.3777 21.7928 32.2931 21.282 32.1032 20.8068C31.9134 20.3316 31.6227 19.9032 31.2513 19.5511C30.5082 18.8228 29.444 18.3621 28.6057 18.4245L28.1865 18.4513L28.0082 18.0708C27.7109 17.4168 26.5605 16.9203 25.2347 16.8609C23.7127 16.7925 22.4166 17.2889 21.9321 18.1213L21.7299 18.4661L21.3346 18.4215C21.2892 18.4164 21.2435 18.4134 21.1978 18.4126Z" fill="var(--fill-0, white)"/>
<path d="M25.0088 40.0119C22.5406 40.0124 20.1105 39.404 17.9337 38.2408C15.7569 37.0776 13.9006 35.3954 12.5293 33.3433C11.158 31.2912 10.314 28.9325 10.0722 26.4762C9.83038 24.02 10.1981 21.542 11.1429 19.2619C12.0877 16.9817 13.5803 14.9698 15.4885 13.4044C17.3966 11.839 19.6615 10.7684 22.0823 10.2876C24.5031 9.8067 27.0052 9.93037 29.3668 10.6476C31.7284 11.3649 33.8766 12.6536 35.6211 14.3995C37.7213 16.4974 39.1517 19.1711 39.7315 22.0824C40.3112 24.9936 40.0141 28.0114 38.8779 30.7537C37.7416 33.496 35.8172 35.8395 33.3484 37.4876C30.8795 39.1357 27.9772 40.0142 25.0088 40.0119ZM25.0088 11.7122C21.9319 11.7142 18.9509 12.7829 16.5737 14.7362C14.1965 16.6896 12.57 19.4068 11.9715 22.4248C11.373 25.4429 11.8395 28.5751 13.2914 31.2879C14.7433 34.0006 17.0909 36.1259 19.9342 37.3019C22.7774 38.4778 25.9404 38.6315 28.8843 37.7369C31.8282 36.8422 34.3708 34.9545 36.079 32.3954C37.7871 29.8362 38.5551 26.764 38.2521 23.7021C37.9491 20.6402 36.5938 17.7781 34.4172 15.6034C33.1828 14.3669 31.716 13.3865 30.1014 12.7187C28.4868 12.0509 26.7561 11.7089 25.0088 11.7122Z" fill="var(--fill-0, white)"/>
<path d="M19.2953 30.1635L19.114 30.0357L14.5629 34.5868C14.4777 34.6732 14.4198 34.7828 14.3965 34.9019C14.3731 35.021 14.3854 35.1444 14.4316 35.2566C14.4779 35.3688 14.5562 35.4649 14.6567 35.5329C14.7572 35.6009 14.8755 35.6379 14.9969 35.6391C15.1606 35.638 15.3175 35.573 15.4339 35.4578L20.1039 30.7937C19.8066 30.6094 19.5599 30.3746 19.2953 30.1635Z" fill="var(--fill-0, white)"/>
<path d="M35.4547 14.566C35.3975 14.5087 35.3296 14.4633 35.2549 14.4323C35.1802 14.4013 35.1001 14.3854 35.0192 14.3854C34.9383 14.3854 34.8582 14.4013 34.7834 14.4323C34.7087 14.4633 34.6408 14.5087 34.5837 14.566L31.0165 18.148C31.0549 18.1835 31.0888 18.2234 31.1176 18.2669C31.2127 18.4077 31.3118 18.5444 31.4148 18.6772C31.5344 18.8279 31.6645 18.97 31.8042 19.1023L35.4695 15.437C35.5258 15.3789 35.5701 15.3102 35.5998 15.2349C35.6295 15.1597 35.6441 15.0793 35.6427 14.9984C35.6414 14.9175 35.624 14.8377 35.5918 14.7635C35.5595 14.6893 35.5129 14.6222 35.4547 14.566Z" fill="var(--fill-0, white)"/>
<path d="M23.8732 28.4899C23.7683 28.4898 23.6659 28.4583 23.579 28.3995C23.4921 28.3407 23.4248 28.2573 23.3857 28.1599C21.9796 24.6492 21.0492 20.7907 20.9035 17.8359C20.8968 17.6972 20.9455 17.5614 21.0389 17.4586C21.1323 17.3557 21.2627 17.2942 21.4015 17.2875C21.5402 17.2808 21.676 17.3295 21.7788 17.4228C21.8817 17.5162 21.9432 17.6466 21.9499 17.7854C22.0896 20.5886 23.0111 24.4144 24.3578 27.7705C24.3832 27.8347 24.3957 27.9033 24.3945 27.9723C24.3934 28.0414 24.3785 28.1095 24.3509 28.1728C24.3233 28.2361 24.2834 28.2933 24.2335 28.3411C24.1837 28.3889 24.1249 28.4263 24.0605 28.4513C24.0008 28.475 23.9374 28.4881 23.8732 28.4899Z" fill="var(--fill-0, white)"/>
<path d="M21.6675 29.3341C21.5404 29.3344 21.4176 29.2878 21.3227 29.2033C19.2088 27.3197 17.5838 24.951 16.5872 22.3008C16.5446 22.1737 16.5523 22.0351 16.6089 21.9136C16.6655 21.7921 16.7665 21.6969 16.8912 21.6477C17.0159 21.5985 17.1548 21.599 17.2791 21.6492C17.4034 21.6994 17.5037 21.7954 17.5593 21.9174C18.489 24.4178 20.0204 26.6507 22.0183 28.4186C22.0981 28.4889 22.1545 28.582 22.1801 28.6853C22.2057 28.7886 22.1991 28.8973 22.1613 28.9967C22.1235 29.0962 22.0563 29.1818 21.9686 29.2421C21.8809 29.3024 21.7769 29.3345 21.6705 29.3341H21.6675Z" fill="var(--fill-0, white)"/>
<path d="M26.1443 28.4899C26.0781 28.4888 26.0126 28.4757 25.9511 28.4513C25.8867 28.4263 25.8279 28.3889 25.7781 28.3411C25.7282 28.2933 25.6883 28.2361 25.6607 28.1728C25.6331 28.1095 25.6182 28.0414 25.6171 27.9723C25.6159 27.9033 25.6284 27.8347 25.6538 27.7705C27.0005 24.4144 27.922 20.5886 28.0617 17.7854C28.0684 17.6466 28.1299 17.5162 28.2328 17.4228C28.3356 17.3295 28.4714 17.2808 28.6101 17.2875C28.7489 17.2942 28.8793 17.3557 28.9727 17.4586C29.0661 17.5614 29.1148 17.6972 29.1081 17.8359C28.9594 20.7907 28.032 24.6492 26.6229 28.1599C26.5851 28.2563 26.5193 28.3392 26.434 28.398C26.3488 28.4568 26.2479 28.4888 26.1443 28.4899Z" fill="var(--fill-0, white)"/>
<path d="M28.3471 29.3341C28.2409 29.3339 28.1373 29.3013 28.0501 29.2408C27.9628 29.1803 27.8961 29.0947 27.8587 28.9953C27.8212 28.896 27.8149 28.7876 27.8406 28.6846C27.8662 28.5816 27.9226 28.4888 28.0022 28.4186C30.0001 26.6507 31.5315 24.4178 32.4612 21.9174C32.5168 21.7954 32.6171 21.6994 32.7414 21.6492C32.8657 21.599 33.0046 21.5985 33.1293 21.6477C33.254 21.6969 33.355 21.7921 33.4116 21.9136C33.4682 22.0351 33.4759 22.1737 33.4333 22.3008C32.4376 24.9556 30.8114 27.3285 28.6949 29.2152C28.5974 29.2961 28.4736 29.3384 28.3471 29.3341Z" fill="var(--fill-0, white)"/>
</g>
</g>
</svg>
