<svg width="50" height="50" overflow="visible" style="display: block;" viewBox="0 0 50 50" fill="none" xmlns="http://www.w3.org/2000/svg">
<g id="Footer Icon">
<rect width="50" height="50" rx="25" fill="var(--fill-0, #003327)"/>
<g id="Vector">
<path d="M25 10C16.7407 10 10 16.7412 10 25C10 33.2593 16.7412 40 25 40C33.2593 40 40 33.2588 40 25C40 16.7407 33.2588 10 25 10ZM38.2422 25C38.2422 28.3353 37.0022 31.3861 34.9598 33.7169L28.6677 27.4248C28.9966 26.9365 29.2501 26.3662 29.4321 25.7032C30.4321 25.4286 31.2222 24.9926 31.8363 24.3786C34.1998 22.0151 33.3573 17.5612 33.3203 17.3728C33.2514 17.0225 32.9775 16.7487 32.6273 16.6798C32.4388 16.6428 27.9849 15.8002 25.6216 18.1637C25.0074 18.7778 24.5714 19.5679 24.2968 20.5679C23.6338 20.7499 23.0636 21.0034 22.5753 21.3323L16.2832 15.0402C18.614 12.9978 21.6647 11.7578 25 11.7578C32.3018 11.7578 38.2422 17.6982 38.2422 25ZM22.1591 25.2007C22.2654 24.6752 22.4156 24.2296 22.6129 23.8558L26.1442 27.3871C25.7705 27.5844 25.3248 27.7346 24.7993 27.8409C24.4528 27.9109 24.182 28.1817 24.112 28.5282C23.9264 29.4464 23.607 30.1219 23.1355 30.5933C21.8537 31.8752 19.4395 31.7972 18.3156 31.6785C18.1758 30.3695 18.2101 28.061 19.4067 26.8644C19.8781 26.393 20.5536 26.0736 21.4718 25.888C21.8183 25.818 22.0891 25.5472 22.1591 25.2007ZM23.8558 22.6129C24.2296 22.4156 24.6752 22.2654 25.2007 22.1591C25.5471 22.0891 25.818 21.8183 25.888 21.4718C26.0736 20.5536 26.393 19.8781 26.8645 19.4067C28.1464 18.1248 30.5607 18.2028 31.6844 18.3215C31.8242 19.6305 31.7899 21.939 30.5933 23.1356C30.1219 23.607 29.4464 23.9264 28.5282 24.112C28.1816 24.1821 27.9109 24.4529 27.8409 24.7993C27.7346 25.3248 27.5844 25.7705 27.3871 26.1442L23.8558 22.6129ZM11.7578 25C11.7578 21.6647 12.9978 18.6139 15.0402 16.2832L21.3323 22.5753C21.0034 23.0637 20.75 23.6338 20.5679 24.2968C19.5679 24.5714 18.7778 25.0074 18.1637 25.6215C15.8002 27.985 16.6427 32.4388 16.6797 32.6273C16.7486 32.9775 17.0225 33.2514 17.3727 33.3203C17.4525 33.336 18.2968 33.496 19.4236 33.496C20.9579 33.496 23.0158 33.199 24.3784 31.8364C24.9926 31.2223 25.4286 30.4322 25.7032 29.4322C26.3662 29.2502 26.9364 28.9966 27.4247 28.6678L33.7168 34.9598C31.386 37.0022 28.3353 38.2422 25 38.2422C17.6982 38.2422 11.7578 32.3018 11.7578 25Z" fill="var(--fill-0, white)"/>
<path d="M28.7289 22.15C29.2143 22.15 29.6078 21.7565 29.6078 21.2711C29.6078 20.7857 29.2143 20.3922 28.7289 20.3922C28.2435 20.3922 27.85 20.7857 27.85 21.2711C27.85 21.7565 28.2435 22.15 28.7289 22.15Z" fill="var(--fill-0, white)"/>
<path d="M21.2711 29.6078C21.7565 29.6078 22.15 29.2143 22.15 28.7289C22.15 28.2435 21.7565 27.85 21.2711 27.85C20.7857 27.85 20.3922 28.2435 20.3922 28.7289C20.3922 29.2143 20.7857 29.6078 21.2711 29.6078Z" fill="var(--fill-0, white)"/>
</g>
</g>
</svg>
