<svg width="50" height="49.9021" overflow="visible" style="display: block;" viewBox="0 0 50 49.9021" fill="none" xmlns="http://www.w3.org/2000/svg">
<g id="Footer Icon">
<rect width="50" height="49.9021" rx="24.951" fill="var(--fill-0, #003327)"/>
<g id="Vector">
<path d="M30.5003 21.1487C30.5003 18.1158 28.0329 15.6484 25 15.6484C20.685 15.5926 17.9852 20.611 20.4077 24.1761C20.7733 24.7173 20.7234 25.3503 20.4077 25.8238C17.9856 29.3897 20.6849 34.4072 25.0001 34.3514C29.3146 34.4073 32.015 29.389 29.5923 25.8238C29.2766 25.3503 29.2267 24.7173 29.5923 24.1761C30.1863 23.2764 30.5003 22.2295 30.5003 21.1487ZM28.1271 26.795C29.7715 29.2213 27.9338 32.6317 24.9999 32.5936C23.2086 32.5937 21.7079 31.3282 21.343 29.6445H23.1172C24.2821 29.6012 24.2812 27.9295 23.1172 27.8867H21.3836C21.4862 27.5009 21.6504 27.1326 21.8729 26.795C22.0418 26.5432 22.1712 26.2744 22.2621 25.9966H23.1172C24.2821 25.9533 24.2812 24.2816 23.1172 24.2387H22.3292C22.2408 23.8774 22.089 23.5272 21.8729 23.2049C21.6504 22.8672 21.4862 22.499 21.3835 22.1132H23.1171C24.2821 22.07 24.2812 20.3982 23.1171 20.3554H21.3429C21.7079 18.6716 23.2086 17.4062 24.9999 17.4062C27.9339 17.368 29.7715 20.7793 28.1271 23.2049C27.3955 24.2956 27.3956 25.7038 28.1271 26.795Z" fill="var(--fill-0, white)"/>
<path d="M25 10C16.729 10 10 16.729 10 25C10.7541 44.8722 39.2489 44.8668 40 24.9998C40 16.7289 33.271 10 25 10ZM25 38.2422C21.6647 38.2422 18.6139 37.0023 16.2831 34.9598L18.5609 32.682C18.9041 32.3388 18.9041 31.7823 18.5609 31.439C18.2177 31.0959 17.6612 31.0959 17.3179 31.439L15.0402 33.7168C4.56121 21.0027 21.0159 4.56543 33.7169 15.0402L31.4391 17.3179C31.0959 17.6611 31.0959 18.2177 31.4391 18.5609C31.7823 18.9041 32.3388 18.9041 32.6821 18.5609L34.9598 16.2831C42.4281 24.604 36.2881 38.336 25 38.2422Z" fill="var(--fill-0, white)"/>
</g>
</g>
</svg>
