<svg width="41" height="41" overflow="visible" style="display: block;" viewBox="0 0 41 41" fill="none" xmlns="http://www.w3.org/2000/svg">
<g id="shipping-fast 1" clip-path="url(#clip0_536_2149)">
<g id="Vector">
<path d="M34.1436 31.9406C34.1533 31.8236 34.1533 31.7061 34.1436 31.5892C34.1436 30.5536 33.7322 29.5604 32.9999 28.8281C32.2677 28.0958 31.2745 27.6844 30.2389 27.6844C29.2033 27.6844 28.2101 28.0958 27.4778 28.8281C26.7455 29.5604 26.3341 30.5536 26.3341 31.5892C26.3244 31.7061 26.3244 31.8236 26.3341 31.9406C26.3341 32.9762 26.7455 33.9694 27.4778 34.7017C28.2101 35.434 29.2033 35.8454 30.2389 35.8454C31.2745 35.8454 32.2677 35.434 32.9999 34.7017C33.7322 33.9694 34.1436 32.9762 34.1436 31.9406Z" fill="var(--fill-0, #00CC9C)"/>
<path d="M18.5246 31.9406C18.5343 31.8236 18.5343 31.7061 18.5246 31.5892C18.5246 30.5536 18.1132 29.5604 17.3809 28.8281C16.6486 28.0958 15.6554 27.6844 14.6198 27.6844C13.5842 27.6844 12.591 28.0958 11.8587 28.8281C11.1264 29.5604 10.7151 30.5536 10.7151 31.5892C10.7054 31.7061 10.7054 31.8236 10.7151 31.9406C10.7151 32.9762 11.1264 33.9694 11.8587 34.7017C12.591 35.434 13.5842 35.8454 14.6198 35.8454C15.6554 35.8454 16.6486 35.434 17.3809 34.7017C18.1132 33.9694 18.5246 32.9762 18.5246 31.9406Z" fill="var(--fill-0, #00CC9C)"/>
<path d="M3.88463 22.6675H0.956053C0.687206 22.6668 0.423509 22.7412 0.194625 22.8823C-0.00426865 23.0049 -0.170933 23.1733 -0.291445 23.3735C-0.411956 23.5737 -0.482816 23.7998 -0.498105 24.0329C-0.513393 24.2661 -0.472666 24.4995 -0.379327 24.7137C-0.285987 24.9279 -0.142744 25.1166 0.0384344 25.2642C0.29397 25.4824 0.620063 25.6003 0.956053 25.5961H5.83701C6.22536 25.5961 6.59781 25.7503 6.87241 26.025C7.14702 26.2996 7.30129 26.672 7.30129 27.0604C7.30129 27.4487 7.14702 27.8212 6.87241 28.0958C6.59781 28.3704 6.22536 28.5246 5.83701 28.5246H3.88463C3.49627 28.5246 3.12383 28.6789 2.84922 28.9535C2.57461 29.2281 2.42034 29.6006 2.42034 29.9889C2.42034 30.3773 2.57461 30.7497 2.84922 31.0243C3.12383 31.2989 3.49627 31.4532 3.88463 31.4532H9.2732C9.35719 30.4603 9.72296 29.512 10.3275 28.7199C10.8327 28.0586 11.4823 27.5214 12.2267 27.1492C12.971 26.777 13.7905 26.5797 14.6227 26.5723C15.9639 26.5671 17.2581 27.066 18.2489 27.97C19.2397 28.874 19.8548 30.1171 19.9722 31.4532H24.8922C25.0068 30.1133 25.62 28.8652 26.6106 27.9558C27.6012 27.0463 28.897 26.5416 30.2418 26.5416C31.5865 26.5416 32.8823 27.0463 33.8729 27.9558C34.8635 28.8652 35.4767 30.1133 35.5913 31.4532H38.2465C38.7033 31.4624 39.1488 31.3112 39.5055 31.0258C39.8623 30.7404 40.1076 30.3389 40.1989 29.8913L41.4875 23.4485C41.4774 23.4035 41.4774 23.3568 41.4875 23.3118C41.5152 23.1437 41.5152 22.9722 41.4875 22.8042L37.817 11.988C37.617 11.4136 37.242 10.9163 36.7447 10.5661C36.2474 10.2159 35.6528 10.0303 35.0446 10.0356H31.5303L31.7451 8.47369C31.7976 8.05985 31.7617 7.63958 31.6397 7.24065C31.5177 6.84173 31.3125 6.47323 31.0375 6.15952C30.7625 5.8458 30.4241 5.59401 30.0446 5.42079C29.6651 5.24756 29.2532 5.15685 28.8361 5.15464H6.8132C6.42484 5.15464 6.0524 5.30891 5.77779 5.58352C5.50318 5.85813 5.34891 6.23058 5.34891 6.61893C5.34891 7.00728 5.50318 7.37973 5.77779 7.65433C6.0524 7.92894 6.42484 8.08321 6.8132 8.08321H9.25367C9.64203 8.08321 10.0145 8.23749 10.2891 8.51209C10.5637 8.7867 10.718 9.15915 10.718 9.5475C10.718 9.93585 10.5637 10.3083 10.2891 10.5829C10.0145 10.8575 9.64203 11.0118 9.25367 11.0118H0.956053C0.569273 11.0168 0.199757 11.1727 -0.0737613 11.4463C-0.34728 11.7198 -0.503176 12.0893 -0.508232 12.4761C-0.508773 12.8461 -0.367324 13.2022 -0.113046 13.471C0.141232 13.7398 0.488955 13.9008 0.858435 13.9208H5.83701C6.22536 13.9208 6.59781 14.0751 6.87241 14.3497C7.14702 14.6243 7.30129 14.9968 7.30129 15.3851C7.30129 15.7735 7.14702 16.1459 6.87241 16.4205C6.59781 16.6951 6.22536 16.8494 5.83701 16.8494H2.59605C2.27055 16.9205 1.97902 17.1004 1.76959 17.3596C1.56016 17.6187 1.44536 17.9415 1.44415 18.2746C1.44415 18.663 1.59842 19.0354 1.87303 19.31C2.14764 19.5847 2.52008 19.7389 2.90843 19.7389H3.88463C4.27298 19.7389 4.64542 19.8932 4.92003 20.1678C5.19464 20.4424 5.34891 20.8149 5.34891 21.2032C5.34891 21.5916 5.19464 21.964 4.92003 22.2386C4.64542 22.5132 4.27298 22.6675 3.88463 22.6675ZM31.218 12.9056H34.7713C34.8738 12.9071 34.9734 12.9397 35.057 12.9989C35.1407 13.0582 35.2044 13.1413 35.2399 13.2375L38.0513 21.6913H30.0465L31.218 12.9056Z" fill="var(--fill-0, #00CC9C)"/>
</g>
</g>
<defs>
<clipPath id="clip0_536_2149">
<rect width="41" height="41" fill="white"/>
</clipPath>
</defs>
</svg>
