<svg width="50" height="50" overflow="visible" style="display: block;" viewBox="0 0 50 50" fill="none" xmlns="http://www.w3.org/2000/svg">
<g id="Footer Icon">
<rect width="50" height="50" rx="25" fill="var(--fill-0, #003327)"/>
<path id="Vector" d="M25 10C16.7157 10 10 16.7157 10 25C10 33.2843 16.7157 40 25 40C33.2843 40 40 33.2843 40 25C40 16.7157 33.2843 10 25 10ZM25 38.2422C17.6866 38.2422 11.7578 32.3134 11.7578 25C11.7578 21.6596 12.9951 18.6085 15.0359 16.2788L17.7683 19.0113C17.56 21.3776 17.7064 24.2522 18.172 26.9288C18.1751 27.0879 18.1865 27.2498 18.2079 27.4169C17.484 28.3336 17.0898 29.46 17.0898 30.634C17.0898 33.5045 19.4252 35.8398 22.2957 35.8398C23.2493 35.8398 24.1884 35.5732 25 35.0797C25.8116 35.5732 26.7507 35.8398 27.7043 35.8398C29.5707 35.8398 31.2106 34.8524 32.1297 33.3726L33.7212 34.9641C31.3915 37.0049 28.3404 38.2422 25 38.2422ZM20.9645 22.2075C20.7097 22.3647 20.4662 22.5374 20.2361 22.7256C19.9711 22.9424 19.7302 23.1743 19.5136 23.4186C19.4468 22.4831 19.4214 21.5592 19.4394 20.6824L20.9645 22.2075ZM19.6076 18.3646C19.8275 16.7521 20.1924 16.0986 20.3526 15.9563C20.6335 16.0313 21.7384 17.1335 22.8336 21.3948C22.7828 21.409 22.7322 21.4237 22.6819 21.439L19.6076 18.3646ZM19.7839 28.2783C19.9803 28.069 20.0621 27.777 20.0031 27.4962C19.9529 27.2572 19.9285 27.0452 19.9285 26.848C19.9285 25.4441 20.8555 24.2073 22.2534 23.4962L30.8346 32.0775C30.2871 33.2596 29.0903 34.082 27.7043 34.082C27.049 34.082 26.4255 33.9013 25.8789 33.5571V32.3242H26.1719C26.6573 32.3242 27.0508 31.9307 27.0508 31.4453C27.0508 30.9599 26.6573 30.5664 26.1719 30.5664H23.8281C23.3427 30.5664 22.9492 30.9599 22.9492 31.4453C22.9492 31.9307 23.3427 32.3242 23.8281 32.3242H24.1211V33.5571C23.5745 33.9013 22.951 34.082 22.2957 34.082C20.3944 34.082 18.8477 32.5353 18.8477 30.634C18.8477 29.7583 19.1801 28.9217 19.7839 28.2783ZM30.0706 26.848C30.0706 27.048 30.0465 27.2601 29.9969 27.4962C29.9379 27.777 30.0198 28.069 30.2161 28.2783C30.6262 28.7152 30.9106 29.2414 31.0513 29.8083L24.1574 22.9144C24.4315 22.8782 24.7129 22.859 25 22.859C27.796 22.859 30.0706 24.6485 30.0706 26.848ZM27.1664 21.3948C28.2638 17.1252 29.3707 16.027 29.6468 15.9558C29.8388 16.1252 30.3276 17.0315 30.5048 19.4563C30.5938 20.6743 30.5852 22.0345 30.4863 23.4191C30.2696 23.1746 30.0286 22.9426 29.7635 22.7256C29.0171 22.115 28.1307 21.6646 27.1664 21.3948ZM34.9641 33.7212L32.8236 31.5807C32.8803 31.2736 32.9102 30.9572 32.9102 30.634C32.9102 29.4599 32.5159 28.3333 31.7918 27.4165C31.8126 27.2522 31.8239 27.0923 31.8271 26.9344C32.2992 24.2233 32.4445 21.3074 32.2246 18.9231C31.953 15.9782 31.2168 14.4401 29.974 14.221C28.9023 14.0317 27.9166 14.7975 27.0439 16.4961C26.4599 17.6325 25.9047 19.2179 25.4247 21.1125C25.2839 21.1053 25.1423 21.1012 25.0001 21.1012C24.8578 21.1012 24.7162 21.1053 24.5754 21.1125C24.0954 19.2179 23.5402 17.6325 22.9562 16.4961C22.0834 14.7975 21.0979 14.0321 20.026 14.221C19.1172 14.3812 18.4796 15.2478 18.0962 16.8532L16.2789 15.0358C18.6085 12.9951 21.6596 11.7578 25 11.7578C32.3134 11.7578 38.2422 17.6866 38.2422 25C38.2422 28.3404 37.0049 31.3915 34.9641 33.7212Z" fill="var(--fill-0, white)"/>
</g>
</svg>
