<svg width="20" height="20" overflow="visible" style="display: block;" viewBox="0 0 20 20" fill="none" xmlns="http://www.w3.org/2000/svg">
<g id="Frame" clip-path="url(#clip0_474_410)">
<g id="Vector">
</g>
<path id="Vector_2" d="M4.16667 14.1667C4.16667 14.6087 4.34226 15.0326 4.65482 15.3452C4.96738 15.6577 5.39131 15.8333 5.83333 15.8333C6.27536 15.8333 6.69928 15.6577 7.01184 15.3452C7.3244 15.0326 7.5 14.6087 7.5 14.1667C7.5 13.7246 7.3244 13.3007 7.01184 12.9882C6.69928 12.6756 6.27536 12.5 5.83333 12.5C5.39131 12.5 4.96738 12.6756 4.65482 12.9882C4.34226 13.3007 4.16667 13.7246 4.16667 14.1667Z" stroke="var(--stroke-0, white)" stroke-width="1.25" stroke-linecap="round" stroke-linejoin="round"/>
<path id="Vector_3" d="M12.5 14.1667C12.5 14.6087 12.6756 15.0326 12.9882 15.3452C13.3007 15.6577 13.7246 15.8333 14.1667 15.8333C14.6087 15.8333 15.0326 15.6577 15.3452 15.3452C15.6577 15.0326 15.8333 14.6087 15.8333 14.1667C15.8333 13.7246 15.6577 13.3007 15.3452 12.9882C15.0326 12.6756 14.6087 12.5 14.1667 12.5C13.7246 12.5 13.3007 12.6756 12.9882 12.9882C12.6756 13.3007 12.5 13.7246 12.5 14.1667Z" stroke="var(--stroke-0, white)" stroke-width="1.25" stroke-linecap="round" stroke-linejoin="round"/>
<path id="Vector_4" d="M4.16667 14.1667H2.5V10.8333M1.66667 4.16667H10.8333V14.1667M7.5 14.1667H12.5M15.8333 14.1667H17.5V9.16667M17.5 9.16667H10.8333M17.5 9.16667L15 5H10.8333" stroke="var(--stroke-0, white)" stroke-width="1.25" stroke-linecap="round" stroke-linejoin="round"/>
<path id="Vector_5" d="M2.5 7.5H5.83333" stroke="var(--stroke-0, white)" stroke-width="1.25" stroke-linecap="round" stroke-linejoin="round"/>
</g>
<defs>
<clipPath id="clip0_474_410">
<rect width="20" height="20" fill="white"/>
</clipPath>
</defs>
</svg>
