<svg width="260" height="36.4246" overflow="visible" style="display: block;" viewBox="0 0 260 36.4246" fill="none" xmlns="http://www.w3.org/2000/svg">
<g id="Footer Logo">
<g id="Vector">
<path d="M260 30.3756C259.32 31.0335 258.627 31.5103 257.916 31.8017C257.214 32.0931 256.411 32.2388 255.506 32.2388C253.978 32.2388 252.698 31.7134 251.678 30.667C250.653 29.6207 250.141 28.199 250.141 26.3932V15.2584H247.037V11.8588H248.534C249.046 11.8588 249.439 11.7131 249.717 11.4217C250.004 11.1303 250.141 10.7285 250.141 10.2164V6.8609H254.344V11.8588H259.232V15.2584H254.344V26.6493C254.344 27.3381 254.521 27.8193 254.87 28.1107C255.219 28.4021 255.607 28.5478 256.018 28.5478C256.384 28.5478 256.711 28.4904 257.002 28.3668C257.294 28.252 257.581 28.0533 257.841 27.784L259.996 30.3801L260 30.3756Z" fill="var(--fill-0, #003327)"/>
<path d="M47.2548 31.9827V6.60483H56.0188C58.0144 6.60483 59.6744 6.94479 61.0034 7.62913C62.3323 8.30906 63.3301 9.21855 63.9968 10.3488C64.6679 11.4791 64.999 12.7285 64.999 14.0928C64.999 15.797 64.4692 17.1966 63.4096 18.2916C62.35 19.3865 61.0166 20.1282 59.4095 20.5212C60.7252 20.9583 61.8997 21.7221 62.9328 22.8038C63.9659 23.8855 64.818 25.21 65.4891 26.7641C66.1602 28.3226 66.5885 30.0622 66.7872 31.9871H62.3323C62.1601 30.1858 61.7319 28.5566 61.0343 27.0952C60.3411 25.6338 59.3124 24.4638 57.9482 23.5897C57.1225 23.0554 56.1645 22.6404 55.0828 22.349C54.0011 22.0576 52.7781 21.9119 51.4138 21.9119V31.9916H47.2504L47.2548 31.9827ZM51.4182 18.5079H56.0188C57.5287 18.5079 58.6899 18.0885 59.5067 17.2496C60.3235 16.4107 60.7297 15.3953 60.7297 14.1988C60.7297 13.0023 60.3235 11.9471 59.5067 11.17C58.6899 10.393 57.5287 10 56.0188 10H51.4182V18.5079Z" fill="var(--fill-0, #003327)"/>
<path d="M78.6946 32.2388C77.0655 32.2388 75.5864 31.9827 74.2575 31.4706C72.9285 30.9584 71.7983 30.2432 70.8623 29.316C69.9263 28.3933 69.2066 27.3116 68.7077 26.0842C68.2088 24.8568 67.9571 23.5102 67.9571 22.0488C67.9571 20.4682 68.2441 19.0377 68.8137 17.7573C69.3876 16.4814 70.1647 15.3776 71.1493 14.4548C72.1338 13.5321 73.2729 12.8257 74.5621 12.3356C75.8513 11.8499 77.2023 11.6071 78.6152 11.6071C79.8823 11.6071 81.039 11.7793 82.0854 12.1193C83.1318 12.4592 84.0413 12.9361 84.8051 13.5453C85.5733 14.1546 86.1605 14.861 86.5756 15.6646C86.9906 16.4681 87.1981 17.3335 87.1981 18.2562C87.1981 19.5454 86.8184 20.6183 86.0678 21.4704C85.3128 22.3225 84.3283 22.9936 83.1097 23.4793C81.8912 23.9649 80.5534 24.2961 79.092 24.4638C77.6306 24.636 76.1825 24.6846 74.7476 24.6095C74.5047 24.5875 74.2001 24.5654 73.8336 24.5566C73.4672 24.5433 73.1449 24.5345 72.8667 24.5212C72.5886 24.508 72.434 24.5036 72.412 24.5036C72.5842 25.3071 72.9639 26.0312 73.5643 26.6758C74.1603 27.3204 74.9109 27.8281 75.8116 28.1902C76.7123 28.5566 77.6748 28.7377 78.6946 28.7377C79.5203 28.7377 80.3459 28.5919 81.1583 28.3005C81.9706 28.0092 82.7212 27.6074 83.4055 27.0952C84.0855 26.5831 84.6594 26.0003 85.123 25.3425L88.2268 27.5721C87.4233 28.6449 86.5182 29.5279 85.5071 30.2211C84.4961 30.9143 83.4188 31.4264 82.2753 31.7531C81.1318 32.0799 79.9397 32.2476 78.6946 32.2476V32.2388ZM75.1184 21.2806C76.0191 21.2806 76.933 21.2364 77.8558 21.1525C78.7785 21.0686 79.6395 20.9097 80.4298 20.6757C81.2201 20.4461 81.8602 20.1238 82.3459 19.7088C82.8316 19.2938 83.0744 18.7596 83.0744 18.1017C83.0744 17.541 82.8978 17.0377 82.5446 16.5873C82.1914 16.137 81.6969 15.7794 81.0655 15.51C80.4342 15.2407 79.688 15.1083 78.8359 15.1083C77.5688 15.1083 76.4385 15.3864 75.4407 15.9472C74.4429 16.5079 73.657 17.2496 73.0875 18.1768C72.5135 19.1039 72.2045 20.1017 72.1559 21.1702C72.4959 21.1967 72.9241 21.2188 73.4363 21.2453C73.9484 21.2717 74.5091 21.2806 75.114 21.2806H75.1184Z" fill="var(--fill-0, #003327)"/>
<path d="M93.1187 11.8632L98.8142 28.2608L104.51 11.8632H108.929L101.26 31.9827H96.2932L88.6595 11.8632H93.1187Z" fill="var(--fill-0, #003327)"/>
<path d="M113.388 9.19648C112.514 9.19648 111.768 8.91833 111.159 8.35762C110.549 7.7969 110.245 7.10373 110.245 6.27811C110.245 5.45249 110.549 4.75049 111.159 4.17653C111.768 3.60257 112.51 3.32 113.388 3.32C114.267 3.32 114.978 3.60699 115.596 4.17653C116.218 4.75049 116.527 5.44807 116.527 6.27811C116.527 7.10815 116.218 7.80132 115.596 8.35762C114.973 8.91833 114.24 9.19648 113.388 9.19648ZM111.269 31.9827V11.8632H115.433V31.9827H111.269Z" fill="var(--fill-0, #003327)"/>
<path d="M122.258 11.8632L127.954 28.2608L133.649 11.8632H138.069L130.4 31.9827H125.433L117.799 11.8632H122.258Z" fill="var(--fill-0, #003327)"/>
<path d="M148.334 32.2388C146.581 32.2388 144.992 31.8061 143.57 30.9408C142.144 30.0754 141.014 28.8701 140.175 27.3248C139.336 25.7795 138.916 23.9694 138.916 21.9031C138.916 19.8368 139.336 18.0267 140.175 16.4814C141.014 14.9361 142.148 13.7352 143.57 12.8831C144.992 12.031 146.581 11.6071 148.334 11.6071C149.989 11.6071 151.438 12.0133 152.678 12.8301C153.919 13.6469 154.82 14.7727 155.38 16.2076V11.8632H159.579V31.9827H157.716C157.036 31.9827 156.475 31.762 156.034 31.3249C155.597 30.8878 155.376 30.3271 155.376 29.6472V27.603C154.815 29.0379 153.914 30.1726 152.674 30.9982C151.433 31.8282 149.985 32.2388 148.329 32.2388H148.334ZM149.283 28.6229C150.329 28.6229 151.314 28.3668 152.241 27.8546C153.168 27.3425 153.919 26.5831 154.506 25.572C155.089 24.561 155.38 23.338 155.38 21.9031C155.38 20.4682 155.089 19.2187 154.506 18.2342C153.923 17.2496 153.168 16.499 152.241 15.9869C151.314 15.4747 150.329 15.2187 149.283 15.2187C148.237 15.2187 147.279 15.4747 146.343 15.9869C145.407 16.499 144.643 17.2452 144.06 18.2342C143.477 19.2187 143.186 20.4417 143.186 21.9031C143.186 23.3645 143.477 24.5654 144.06 25.572C144.643 26.5831 145.407 27.3425 146.343 27.8546C147.279 28.3668 148.259 28.6229 149.283 28.6229Z" fill="var(--fill-0, #003327)"/>
<path d="M164.144 27.3822V4.96242H168.308V27.0202C168.308 27.5544 168.467 27.9694 168.784 28.2608C169.102 28.5522 169.478 28.6979 169.915 28.6979C170.206 28.6979 170.462 28.6493 170.683 28.5522L171.557 31.6207C170.851 32.0357 170.012 32.2432 169.036 32.2432C168.255 32.2432 167.491 32.0799 166.736 31.7487C165.981 31.422 165.358 30.8966 164.873 30.177C164.387 29.4573 164.144 28.5301 164.144 27.3822Z" fill="var(--fill-0, #003327)"/>
<path d="M174.581 31.9827V6.60483H183.345C185.367 6.60483 187.041 6.94479 188.365 7.62913C189.69 8.30906 190.683 9.22297 191.341 10.3665C191.999 11.51 192.326 12.7771 192.326 14.1635C192.326 15.3555 192.034 16.5299 191.451 17.6867C190.869 18.8434 189.924 19.7971 188.621 20.5521C187.319 21.3071 185.562 21.6823 183.345 21.6823H178.745V31.9783H174.581V31.9827ZM178.745 18.2871H183.345C184.975 18.2871 186.171 17.9163 186.926 17.1745C187.681 16.4328 188.056 15.4262 188.056 14.1635C188.056 12.9007 187.677 11.8279 186.926 11.095C186.171 10.3665 184.979 10 183.345 10H178.745V18.2871Z" fill="var(--fill-0, #003327)"/>
<path d="M203.761 32.2388C201.862 32.2388 200.149 31.815 198.63 30.9628C197.107 30.1107 195.902 28.9054 195.014 27.3469C194.127 25.7884 193.681 23.9738 193.681 21.9075C193.681 19.8413 194.136 18.0002 195.05 16.4681C195.964 14.9361 197.2 13.744 198.758 12.8875C200.317 12.0354 202.043 11.6115 203.946 11.6115C205.849 11.6115 207.602 12.0398 209.152 12.8875C210.697 13.7396 211.929 14.9317 212.838 16.4681C213.752 18.0002 214.207 19.8148 214.207 21.9075C214.207 24.0003 213.739 25.7928 212.803 27.3469C211.867 28.9054 210.604 30.1107 209.024 30.9628C207.443 31.815 205.69 32.2388 203.765 32.2388H203.761ZM203.761 28.6229C204.807 28.6229 205.801 28.3756 206.737 27.8723C207.673 27.3734 208.441 26.6228 209.037 25.625C209.633 24.6272 209.933 23.3866 209.933 21.8987C209.933 20.4108 209.642 19.1437 209.059 18.1547C208.476 17.1701 207.725 16.4328 206.812 15.9472C205.898 15.4615 204.918 15.2187 203.871 15.2187C202.825 15.2187 201.849 15.4615 200.948 15.9472C200.048 16.4328 199.319 17.1701 198.758 18.1547C198.198 19.1393 197.92 20.3887 197.92 21.8987C197.92 23.4086 198.189 24.6272 198.723 25.625C199.257 26.6228 199.968 27.3734 200.86 27.8723C201.747 28.3712 202.714 28.6229 203.765 28.6229H203.761Z" fill="var(--fill-0, #003327)"/>
<path d="M219.646 9.19648C218.772 9.19648 218.026 8.91833 217.417 8.35762C216.807 7.7969 216.503 7.10373 216.503 6.27811C216.503 5.45249 216.807 4.75049 217.417 4.17653C218.026 3.60257 218.768 3.32 219.646 3.32C220.525 3.32 221.236 3.60699 221.854 4.17653C222.476 4.75049 222.785 5.44807 222.785 6.27811C222.785 7.10815 222.476 7.80132 221.854 8.35762C221.231 8.91833 220.498 9.19648 219.646 9.19648ZM217.527 31.9827V11.8632H221.69V31.9827H217.527Z" fill="var(--fill-0, #003327)"/>
<path d="M226.437 31.9827V11.8632H230.6V16.0619C230.918 15.2098 231.417 14.4504 232.097 13.7793C232.777 13.1082 233.563 12.5784 234.45 12.1899C235.337 11.8014 236.234 11.6071 237.134 11.6071C238.666 11.6071 240.013 11.9427 241.17 12.6093C242.327 13.2804 243.227 14.2473 243.872 15.5145C244.516 16.7816 244.839 18.3136 244.839 20.115V31.9827H240.711V21.0995C240.711 19.2717 240.247 17.8368 239.324 16.7904C238.397 15.7441 237.183 15.2187 235.673 15.2187C234.697 15.2187 233.827 15.488 233.064 16.0222C232.295 16.5564 231.695 17.2937 231.258 18.2297C230.821 19.1657 230.6 20.243 230.6 21.4616V31.9783H226.437V31.9827Z" fill="var(--fill-0, #003327)"/>
</g>
<path id="Vector_2" d="M31.59 22.7289C33.5459 20.2123 34.7027 17.3336 34.7556 14.6228C34.8219 11.1746 33.4311 7.82353 30.8439 5.18331C27.612 1.88966 22.804 0 17.6604 0C7.92075 0 9.15527e-05 6.93169 9.15527e-05 15.4528V36.4245H4.41518V15.4528C4.41518 9.3644 10.3579 4.41509 17.6604 4.41509C21.6296 4.41509 25.2853 5.8235 27.6915 8.27829C29.4443 10.062 30.3847 12.2828 30.3406 14.5389C30.3141 15.9076 29.8019 17.4087 28.9233 18.8392C25.4354 14.9495 20.9188 12.8744 16.7421 13.2673C12.7729 13.6426 8.62275 16.0488 8.30487 20.5787C8.06645 23.9253 10.3049 27.8945 15.8282 29.2146C19.8724 30.1815 24.4111 29.0159 28.2787 26.0225C28.292 26.0137 28.3008 26.0048 28.314 25.996C29.6474 28.729 30.5746 31.74 31.1706 34.0845C31.4002 34.9807 31.5768 35.7799 31.7136 36.4245H36.217C35.7534 33.9697 34.3848 27.8371 31.59 22.7289ZM25.5767 22.5302C22.7687 24.7024 19.5898 25.5766 16.8569 24.9232C13.8458 24.2035 12.6007 22.3801 12.7067 20.8922C12.8303 19.1747 14.5743 17.9076 17.1527 17.6648C17.3514 17.6471 17.5501 17.6383 17.7487 17.6383C20.4684 17.6383 23.5546 19.316 25.9475 22.1417C25.9608 22.1593 25.974 22.177 25.9917 22.1991C25.8548 22.3094 25.718 22.4242 25.5767 22.5302Z" fill="var(--fill-0, #0FC7A3)"/>
</g>
</svg>
