<svg width="50.0203" height="50.0119" overflow="visible" style="display: block;" viewBox="0 0 50.0203 50.0119" fill="none" xmlns="http://www.w3.org/2000/svg">
<g id="Footer Icon">
<rect width="50.0203" height="50.0119" rx="25.006" fill="var(--fill-0, #003327)"/>
<g id="Vector">
<path d="M25.0088 40.0119C22.5406 40.0124 20.1105 39.404 17.9337 38.2408C15.7569 37.0776 13.9006 35.3954 12.5293 33.3433C11.158 31.2912 10.314 28.9325 10.0722 26.4762C9.83038 24.02 10.1981 21.542 11.1429 19.2619C12.0877 16.9817 13.5803 14.9698 15.4885 13.4044C17.3966 11.839 19.6615 10.7684 22.0823 10.2876C24.5031 9.8067 27.0052 9.93037 29.3668 10.6476C31.7284 11.3649 33.8766 12.6536 35.6211 14.3995C37.7213 16.4974 39.1517 19.1711 39.7315 22.0824C40.3112 24.9936 40.0141 28.0114 38.8779 30.7537C37.7416 33.496 35.8172 35.8395 33.3484 37.4876C30.8795 39.1357 27.9772 40.0142 25.0088 40.0119ZM25.0088 11.7122C21.9311 11.7139 18.9493 12.7826 16.5713 14.7363C14.1933 16.69 12.5663 19.4078 11.9675 22.4266C11.3687 25.4455 11.8352 28.5785 13.2874 31.292C14.7396 34.0054 17.0878 36.1314 19.9318 37.3076C22.7758 38.4838 25.9396 38.6376 28.8843 37.7426C31.8289 36.8476 34.3721 34.9593 36.0806 32.3995C37.789 29.8396 38.557 26.7665 38.2537 23.7039C37.9504 20.6412 36.5946 17.7785 34.4172 15.6034C33.1828 14.3669 31.716 13.3865 30.1014 12.7187C28.4868 12.0509 26.7561 11.7089 25.0088 11.7122Z" fill="var(--fill-0, white)"/>
<path d="M30.4368 33.6623H19.5807C18.9707 33.6615 18.386 33.4189 17.9547 32.9875C17.5233 32.5562 17.2807 31.9715 17.2799 31.3615V22.4703C17.2799 22.1195 17.5623 22.1433 17.9131 22.1433H32.1045C32.4553 22.1433 32.7377 22.1195 32.7377 22.4703V31.3615C32.7369 31.9715 32.4942 32.5562 32.0629 32.9875C31.6316 33.4189 31.0468 33.6615 30.4368 33.6623ZM18.5462 23.1005V31.3615C18.547 31.6361 18.6567 31.8992 18.8511 32.0931C19.0456 32.2871 19.309 32.396 19.5837 32.396H30.4398C30.7144 32.396 30.9779 32.2871 31.1724 32.0931C31.3668 31.8992 31.4765 31.6361 31.4773 31.3615V23.0916L18.5462 23.1005Z" fill="var(--fill-0, white)"/>
<path d="M32.1045 23.0916H17.9131C17.7952 23.0913 17.6798 23.0581 17.5798 22.9958C17.4797 22.9335 17.3991 22.8445 17.3469 22.7389C17.2947 22.6333 17.273 22.5151 17.2843 22.3978C17.2955 22.2805 17.3393 22.1687 17.4107 22.0749L20.6984 17.8032C20.8203 17.6486 20.9957 17.8627 21.2008 17.8627H29.227C29.438 17.8627 29.6342 17.6605 29.7502 17.8359L32.6336 22.1165C32.697 22.2118 32.7334 22.3226 32.7389 22.4369C32.7444 22.5512 32.7188 22.6649 32.6648 22.7659C32.6109 22.8668 32.5305 22.9513 32.4324 23.0102C32.3342 23.0691 32.2219 23.1003 32.1075 23.1005L32.1045 23.0916ZM18.9594 22.0303H31.1473L28.8821 18.811H21.5189L18.9594 22.0303Z" fill="var(--fill-0, white)"/>
<path d="M24.0872 33.5345C23.7394 33.5345 23.7632 33.2521 23.7632 32.9013V22.6605L20.9957 18.5434C20.9273 18.4364 20.5825 18.3145 20.5825 18.1897V17.0749C20.5833 16.6439 20.7548 16.2308 21.0596 15.926C21.3644 15.6212 21.7775 15.4497 22.2085 15.4489H28.24C28.6713 15.4489 29.0849 15.6202 29.3898 15.9251C29.6948 16.2301 29.8661 16.6437 29.8661 17.0749V18.0678C29.8661 18.2357 29.7994 18.3968 29.6806 18.5155C29.5619 18.6342 29.4008 18.701 29.2329 18.701C29.065 18.701 28.9039 18.6342 28.7852 18.5155C28.6664 18.3968 28.5997 18.2357 28.5997 18.0678V17.0749C28.5997 16.9795 28.5618 16.888 28.4944 16.8206C28.4269 16.7531 28.3354 16.7152 28.24 16.7152H22.1996C22.1042 16.7152 22.0127 16.7531 21.9453 16.8206C21.8778 16.888 21.8399 16.9795 21.8399 17.0749V17.9964L24.6134 22.1165C24.683 22.2214 24.7202 22.3444 24.7204 22.4703V32.9013C24.7204 33.0692 24.6537 33.2303 24.535 33.349C24.4162 33.4678 24.2552 33.5345 24.0872 33.5345Z" fill="var(--fill-0, white)"/>
<path d="M18.6176 32.0244C18.5336 31.8999 18.4619 31.7674 18.4035 31.629C18.3144 31.418 18.2341 31.201 18.1538 30.9869L14.551 34.5898C14.4654 34.6758 14.4071 34.7853 14.3836 34.9043C14.36 35.0234 14.3722 35.1468 14.4186 35.259C14.465 35.3711 14.5435 35.4671 14.6443 35.5347C14.7451 35.6024 14.8636 35.6387 14.985 35.6391C15.1487 35.638 15.3056 35.573 15.422 35.4578L18.7186 32.1611C18.6949 32.1165 18.6622 32.0719 18.6176 32.0244Z" fill="var(--fill-0, white)"/>
<path d="M35.4547 14.566C35.3975 14.5087 35.3296 14.4633 35.2549 14.4323C35.1802 14.4013 35.1001 14.3854 35.0192 14.3854C34.9383 14.3854 34.8582 14.4013 34.7834 14.4323C34.7087 14.4633 34.6408 14.5087 34.5837 14.566L30.0474 19.1052C30.2617 19.3616 30.4518 19.6372 30.6152 19.9287C30.6568 20.003 30.7014 20.0743 30.743 20.1457L35.4547 15.437C35.5119 15.3798 35.5573 15.312 35.5883 15.2372C35.6193 15.1625 35.6353 15.0824 35.6353 15.0015C35.6353 14.9206 35.6193 14.8405 35.5883 14.7658C35.5573 14.691 35.5119 14.6232 35.4547 14.566Z" fill="var(--fill-0, white)"/>
</g>
</g>
</svg>
