<svg width="262" height="42" overflow="visible" style="display: block;" viewBox="0 0 262 42" fill="none" xmlns="http://www.w3.org/2000/svg">
<g id="Group 1">
<g id="Vector">
<path d="M262 33.1233C261.335 33.7828 260.658 34.2608 259.963 34.553C259.276 34.8451 258.491 34.9912 257.606 34.9912C256.112 34.9912 254.86 34.4644 253.863 33.4155C252.862 32.3665 252.361 30.9412 252.361 29.131V17.9683H249.327V14.5601H250.79C251.291 14.5601 251.675 14.4141 251.947 14.122C252.227 13.8298 252.361 13.427 252.361 12.9136V9.54975H256.471V14.5601H261.249V17.9683H256.471V29.3877C256.471 30.0781 256.643 30.5606 256.984 30.8527C257.325 31.1448 257.705 31.2909 258.107 31.2909C258.465 31.2909 258.784 31.2334 259.069 31.1094C259.354 30.9944 259.635 30.7952 259.889 30.5252L261.996 33.1278L262 33.1233Z" fill="var(--fill-0, #003327)"/>
<path d="M54.0043 34.7344V9.29304H62.5726C64.5237 9.29304 66.1467 9.63386 67.446 10.3199C68.7452 11.0015 69.7208 11.9133 70.3725 13.0464C71.0287 14.1795 71.3524 15.4321 71.3524 16.7998C71.3524 18.5082 70.8344 19.9113 69.7985 21.009C68.7625 22.1067 67.4589 22.8503 65.8877 23.2442C67.174 23.6824 68.3222 24.4481 69.3323 25.5325C70.3423 26.6169 71.1754 27.9448 71.8315 29.5028C72.4876 31.0652 72.9063 32.8091 73.1006 34.7389H68.7452C68.5769 32.933 68.1582 31.2998 67.4762 29.8347C66.7985 28.3697 65.7927 27.1967 64.4589 26.3204C63.6517 25.7848 62.715 25.3687 61.6575 25.0766C60.6 24.7845 59.4043 24.6384 58.0705 24.6384V34.7433H54L54.0043 34.7344ZM58.0748 21.2259H62.5726C64.0489 21.2259 65.1841 20.8054 65.9827 19.9644C66.7812 19.1235 67.1783 18.1055 67.1783 16.906C67.1783 15.7065 66.7812 14.6487 65.9827 13.8697C65.1841 13.0907 64.0489 12.6967 62.5726 12.6967H58.0748V21.2259Z" fill="var(--fill-0, #003327)"/>
<path d="M84.7422 34.9912C83.1494 34.9912 81.7034 34.7344 80.4041 34.221C79.1049 33.7076 77.9998 32.9905 77.0847 32.0611C76.1696 31.136 75.466 30.0516 74.9783 28.8211C74.4905 27.5907 74.2445 26.2407 74.2445 24.7756C74.2445 23.1911 74.525 21.757 75.0819 20.4734C75.643 19.1943 76.4027 18.0878 77.3653 17.1627C78.3279 16.2376 79.4416 15.5295 80.702 15.0382C81.9624 14.5513 83.2833 14.3078 84.6645 14.3078C85.9034 14.3078 87.0343 14.4805 88.0573 14.8213C89.0803 15.1621 89.9695 15.6401 90.7163 16.2509C91.4674 16.8617 92.0415 17.5699 92.4472 18.3755C92.853 19.181 93.0558 20.0485 93.0558 20.9736C93.0558 22.266 92.6846 23.3416 91.9508 24.1958C91.2127 25.0501 90.2501 25.7228 89.0588 26.2097C87.8674 26.6966 86.5595 27.0285 85.1307 27.1967C83.702 27.3693 82.2861 27.418 80.8833 27.3428C80.6459 27.3207 80.348 27.2985 79.9897 27.2897C79.6315 27.2764 79.3164 27.2676 79.0444 27.2543C78.7725 27.241 78.6214 27.2366 78.5998 27.2366C78.7682 28.0421 79.1394 28.768 79.7264 29.4142C80.3092 30.0604 81.043 30.5694 81.9236 30.9324C82.8041 31.2998 83.7451 31.4812 84.7422 31.4812C85.5494 31.4812 86.3566 31.3352 87.1509 31.043C87.9451 30.7509 88.6789 30.3481 89.348 29.8347C90.0127 29.3213 90.5738 28.737 91.0271 28.0775L94.0616 30.3127C93.276 31.3883 92.3911 32.2735 91.4026 32.9684C90.4141 33.6633 89.3609 34.1767 88.2429 34.5043C87.125 34.8318 85.9595 35 84.7422 35V34.9912ZM81.2459 24.0055C82.1264 24.0055 83.0199 23.9612 83.9221 23.8771C84.8242 23.793 85.666 23.6337 86.4386 23.3991C87.2113 23.169 87.8372 22.8458 88.312 22.4298C88.7868 22.0137 89.0242 21.4782 89.0242 20.8187C89.0242 20.2566 88.8516 19.752 88.5062 19.3005C88.1609 18.8491 87.6775 18.4905 87.0602 18.2205C86.4429 17.9505 85.7134 17.8178 84.8804 17.8178C83.6415 17.8178 82.5365 18.0966 81.561 18.6587C80.5854 19.2209 79.8171 19.9644 79.2603 20.8939C78.6991 21.8234 78.397 22.8237 78.3495 23.8948C78.6818 23.9214 79.1005 23.9435 79.6013 23.9701C80.102 23.9966 80.6502 24.0055 81.2415 24.0055H81.2459Z" fill="var(--fill-0, #003327)"/>
<path d="M98.8443 14.5646L104.413 31.0032L109.981 14.5646H114.302L106.804 34.7344H101.948L94.4846 14.5646H98.8443Z" fill="var(--fill-0, #003327)"/>
<path d="M118.661 11.8912C117.807 11.8912 117.077 11.6123 116.482 11.0502C115.886 10.4881 115.588 9.79319 115.588 8.96551C115.588 8.13782 115.886 7.43407 116.482 6.85867C117.077 6.28327 117.802 6 118.661 6C119.52 6 120.215 6.2877 120.82 6.85867C121.428 7.43407 121.73 8.13339 121.73 8.96551C121.73 9.79762 121.428 10.4925 120.82 11.0502C120.211 11.6123 119.495 11.8912 118.661 11.8912ZM116.589 34.7344V14.5646H120.66V34.7344H116.589Z" fill="var(--fill-0, #003327)"/>
<path d="M127.333 14.5646L132.902 31.0032L138.47 14.5646H142.791L135.293 34.7344H130.437L122.974 14.5646H127.333Z" fill="var(--fill-0, #003327)"/>
<path d="M152.827 34.9912C151.113 34.9912 149.559 34.5574 148.169 33.6899C146.775 32.8223 145.67 31.614 144.85 30.0649C144.03 28.5157 143.62 26.701 143.62 24.6296C143.62 22.5582 144.03 20.7434 144.85 19.1943C145.67 17.6451 146.779 16.4412 148.169 15.587C149.559 14.7328 151.113 14.3078 152.827 14.3078C154.445 14.3078 155.861 14.7151 157.074 15.5339C158.287 16.3527 159.168 17.4814 159.716 18.9199V14.5646H163.821V34.7344H161.999C161.335 34.7344 160.786 34.5131 160.355 34.0749C159.927 33.6368 159.712 33.0746 159.712 32.393V30.3437C159.163 31.7822 158.283 32.9197 157.07 33.7474C155.857 34.5795 154.441 34.9912 152.822 34.9912H152.827ZM153.755 31.3662C154.778 31.3662 155.74 31.1094 156.647 30.596C157.553 30.0826 158.287 29.3213 158.861 28.3077C159.431 27.2941 159.716 26.0681 159.716 24.6296C159.716 23.1911 159.431 21.9385 158.861 20.9515C158.291 19.9644 157.553 19.212 156.647 18.6986C155.74 18.1851 154.778 17.9284 153.755 17.9284C152.732 17.9284 151.795 18.1851 150.88 18.6986C149.965 19.212 149.218 19.96 148.648 20.9515C148.078 21.9385 147.794 23.1645 147.794 24.6296C147.794 26.0946 148.078 27.2985 148.648 28.3077C149.218 29.3213 149.965 30.0826 150.88 30.596C151.795 31.1094 152.753 31.3662 153.755 31.3662Z" fill="var(--fill-0, #003327)"/>
<path d="M168.284 30.1224V7.64652H172.355V29.7595C172.355 30.295 172.51 30.7111 172.821 31.0032C173.132 31.2953 173.498 31.4414 173.926 31.4414C174.211 31.4414 174.461 31.3927 174.677 31.2953L175.532 34.3715C174.841 34.7876 174.021 34.9956 173.067 34.9956C172.303 34.9956 171.556 34.8318 170.818 34.4998C170.08 34.1723 169.471 33.6456 168.996 32.9241C168.522 32.2027 168.284 31.2732 168.284 30.1224Z" fill="var(--fill-0, #003327)"/>
<path d="M178.488 34.7344V9.29304H187.057C189.034 9.29304 190.67 9.63386 191.965 10.3199C193.259 11.0015 194.231 11.9177 194.874 13.0641C195.517 14.2105 195.836 15.4808 195.836 16.8706C195.836 18.0656 195.552 19.243 194.982 20.4026C194.412 21.5623 193.488 22.5183 192.215 23.2752C190.942 24.0321 189.224 24.4083 187.057 24.4083H182.559V34.73H178.488V34.7344ZM182.559 21.0046H187.057C188.649 21.0046 189.819 20.6328 190.557 19.8892C191.295 19.1456 191.662 18.1364 191.662 16.8706C191.662 15.6047 191.291 14.5291 190.557 13.7944C189.819 13.0641 188.654 12.6967 187.057 12.6967H182.559V21.0046Z" fill="var(--fill-0, #003327)"/>
<path d="M207.016 34.9912C205.16 34.9912 203.485 34.5662 202 33.712C200.511 32.8578 199.333 31.6494 198.465 30.087C197.598 28.5246 197.162 26.7054 197.162 24.634C197.162 22.5626 197.606 20.7169 198.5 19.181C199.393 17.6451 200.602 16.4501 202.126 15.5914C203.649 14.7372 205.337 14.3123 207.197 14.3123C209.058 14.3123 210.772 14.7416 212.287 15.5914C213.797 16.4457 215.002 17.6407 215.891 19.181C216.784 20.7169 217.229 22.536 217.229 24.634C217.229 26.732 216.772 28.529 215.856 30.087C214.941 31.6494 213.707 32.8578 212.161 33.712C210.616 34.5662 208.903 34.9912 207.021 34.9912H207.016ZM207.016 31.3662C208.039 31.3662 209.01 31.1183 209.926 30.6137C210.841 30.1136 211.592 29.3611 212.174 28.3608C212.757 27.3605 213.051 26.1168 213.051 24.6251C213.051 23.1335 212.766 21.8633 212.196 20.8718C211.626 19.8848 210.892 19.1456 209.999 18.6587C209.105 18.1719 208.147 17.9284 207.124 17.9284C206.101 17.9284 205.147 18.1719 204.267 18.6587C203.386 19.1456 202.674 19.8848 202.126 20.8718C201.577 21.8588 201.305 23.1114 201.305 24.6251C201.305 26.1389 201.569 27.3605 202.091 28.3608C202.613 29.3611 203.308 30.1136 204.18 30.6137C205.048 31.1139 205.993 31.3662 207.021 31.3662H207.016Z" fill="var(--fill-0, #003327)"/>
<path d="M222.547 11.8912C221.692 11.8912 220.963 11.6123 220.367 11.0502C219.772 10.4881 219.474 9.79319 219.474 8.96551C219.474 8.13782 219.772 7.43407 220.367 6.85867C220.963 6.28327 221.688 6 222.547 6C223.406 6 224.101 6.2877 224.705 6.85867C225.314 7.43407 225.616 8.13339 225.616 8.96551C225.616 9.79762 225.314 10.4925 224.705 11.0502C224.097 11.6123 223.38 11.8912 222.547 11.8912ZM220.475 34.7344V14.5646H224.546V34.7344H220.475Z" fill="var(--fill-0, #003327)"/>
<path d="M229.186 34.7344V14.5646H233.256V18.7738C233.567 17.9196 234.055 17.1583 234.72 16.4855C235.384 15.8127 236.153 15.2816 237.02 14.8921C237.888 14.5026 238.764 14.3078 239.645 14.3078C241.143 14.3078 242.459 14.6442 243.59 15.3126C244.721 15.9854 245.602 16.9547 246.232 18.225C246.862 19.4953 247.177 21.0311 247.177 22.837V34.7344H243.141V23.824C243.141 21.9916 242.688 20.5531 241.786 19.5041C240.879 18.4551 239.692 17.9284 238.216 17.9284C237.262 17.9284 236.412 18.1984 235.665 18.734C234.914 19.2695 234.327 20.0087 233.899 20.947C233.472 21.8854 233.256 22.9654 233.256 24.187V34.73H229.186V34.7344Z" fill="var(--fill-0, #003327)"/>
</g>
<path id="Vector_2" d="M36.4255 26.208C38.6807 23.3062 40.0145 19.9869 40.0756 16.8611C40.152 12.8851 38.5484 9.02109 35.5651 5.97673C31.8385 2.17891 26.2945 0 20.3636 0C9.13309 0 0 7.99273 0 17.8182V42H5.09091V17.8182C5.09091 10.7978 11.9433 5.09091 20.3636 5.09091C24.9404 5.09091 29.1556 6.71492 31.9302 9.54546C33.9513 11.6022 35.0356 14.1629 34.9847 16.7644C34.9542 18.3425 34.3636 20.0735 33.3505 21.7229C29.3287 17.2378 24.1207 14.8451 19.3047 15.2982C14.728 15.7309 9.94254 18.5055 9.576 23.7287C9.30109 27.5876 11.8822 32.1644 18.2509 33.6865C22.9142 34.8014 28.1476 33.4574 32.6073 30.0058C32.6225 29.9956 32.6327 29.9854 32.648 29.9753C34.1854 33.1265 35.2545 36.5985 35.9418 39.3018C36.2065 40.3353 36.4102 41.2567 36.568 42H41.7607C41.2262 39.1695 39.648 32.0982 36.4255 26.208ZM29.4916 25.9789C26.2538 28.4836 22.5884 29.4916 19.4371 28.7382C15.9651 27.9084 14.5295 25.8058 14.6516 24.0902C14.7942 22.1098 16.8051 20.6487 19.7782 20.3687C20.0073 20.3484 20.2364 20.3382 20.4655 20.3382C23.6015 20.3382 27.16 22.2727 29.9193 25.5309C29.9345 25.5513 29.9498 25.5716 29.9702 25.5971C29.8124 25.7244 29.6545 25.8567 29.4916 25.9789Z" fill="var(--fill-0, #0FC7A3)"/>
</g>
</svg>
