<svg width="188.644" height="197.115" overflow="visible" style="display: block;" viewBox="0 0 188.644 197.115" fill="none" xmlns="http://www.w3.org/2000/svg">
<g id="Left Secure Order Button">
<circle id="Ellipse 8" cx="93.5705" cy="98.5569" r="83.3955" fill="var(--fill-0, #FFDB49)"/>
<g id="Vector">
<path d="M83.9971 4.50393C90.8756 -0.492955 95.3487 -2.03536 103.046 3.52542L115.293 12.374C119.055 15.0906 123.332 16.4548 128.012 16.5606L146.301 16.9698C150.144 17.0558 153.226 19.3783 154.942 22.7139C155.922 24.6196 156.514 26.5763 157.172 28.6582L161.169 41.2998C162.917 46.8233 166.668 50.4941 171.257 53.6953L181.992 61.1826C184.82 63.1545 187.196 65.5556 188.294 68.9131C188.822 70.5302 188.282 72.8437 188.542 75.624C188.577 75.992 188.505 76.7677 188.377 77.0762C187.888 78.2549 187.447 79.4142 187.035 80.626C186.252 82.9327 185.707 85.2921 184.796 87.5459C183.77 90.0861 183.088 92.492 182.395 95.1358L182.031 96.5196C181.754 97.5791 181.312 101.841 181.564 102.706C182.168 104.773 182.742 106.704 183.495 108.713L186.075 115.596L187.125 118.327C187.816 120.123 188.758 123.714 188.633 125.561L188.357 129.605C188.283 130.696 187.227 132.214 186.646 133.177C185.543 135.008 183.883 136.037 182.217 137.207L175.38 142.008C174.015 142.966 172.95 144.24 171.272 144.685L166.187 149.538C165.646 150.054 164.885 150.885 164.528 151.522L162.994 154.262L162.461 155.507C161.948 156.705 161.445 157.752 161.044 158.997L160.275 161.388C159.835 162.756 159.401 164.01 159.003 165.371L157.632 170.06L156.763 172.243C156.457 173.012 156.138 174.294 155.704 174.896L153.851 177.469C152.532 179.3 150.905 179.681 148.713 180.236C148.046 180.406 147.128 180.694 146.505 180.747L143.38 181.019C141.712 180.73 140.054 180.906 138.361 180.959C137.234 180.994 136.077 180.726 134.954 180.959C132.885 181.386 131.614 180.505 128.669 180.996V180.998C126.034 181.122 120.772 182.338 118.689 183.611L116.762 184.792C115.74 185.418 114.571 185.984 113.692 186.742C111.927 188.269 110.027 189.373 108.275 190.845L106.176 192.611C105.26 193.38 104.252 193.996 103.242 194.524L101.074 195.661L99.4277 196.54C98.1819 197.205 94.6768 197.221 93.1338 196.95C90.5193 196.49 90.1957 195.8 88.6992 195.939L84.1406 192.788C82.7297 191.814 81.3953 190.728 80.0967 189.596C77.4179 187.258 73.8019 184.574 70.6631 183.001C67.7885 182.162 65.0853 181.64 62.1689 181.391C61.3899 181.159 60.6633 181.146 59.8887 181.175L53.3555 181.408L47.7227 181.545L46.4043 181.303C44.4321 180.941 42.4621 180.886 40.6748 179.965C39.8076 179.518 38.63 179.306 37.8398 178.793C35.1258 177.026 33.3248 174.245 32.3232 171.154L27.2041 155.355C25.2253 149.247 21.7533 146.191 16.748 142.768L12.709 140.007L7.61328 136.493C5.96479 135.356 4.41983 134.167 3.02441 132.724C0.365488 129.974 -0.569876 126.167 0.336914 122.452C0.801331 120.551 1.42607 118.793 2.11719 116.955L5.78223 107.205C8.07127 101.118 8.28915 96.1957 5.99121 90.0664L1.61328 78.3916C0.882504 76.4462 0.38478 74.5313 0.0986328 72.458C-0.475686 68.2985 1.90569 64.469 5.23145 62.1182L19.1318 52.2969C23.3954 49.2851 26.0461 45.063 27.6045 40.1211L32.3545 25.0781C33.0699 22.8088 34.3355 20.8629 36.1162 19.3096C39.2484 16.5755 44.3421 16.7563 48.5352 16.7012L61.0811 16.5381C65.6726 16.4786 69.7562 14.8525 73.4365 12.1778L83.9971 4.50393ZM135.437 31.8701C111.786 16.4368 80.9775 15.5466 56.5869 29.6514C33.7568 42.8531 18.8988 66.6702 17.2236 93.0362C16.0923 110.834 21.0493 128.348 31.3857 142.904C38.2027 152.504 47.0605 160.557 57.375 166.316C77.0355 177.295 100.867 178.995 121.937 170.641H121.934C144.022 161.883 161.009 143.345 167.978 120.756C170.498 112.584 171.589 104.207 171.329 95.6895C170.541 69.8257 157.044 45.9686 135.437 31.8701Z" fill="var(--fill-0, #F5C400)"/>
<path d="M83.9971 4.50393C90.8756 -0.492955 95.3487 -2.03536 103.046 3.52542L115.293 12.374C119.055 15.0906 123.332 16.4548 128.012 16.5606L146.301 16.9698C150.144 17.0558 153.226 19.3783 154.942 22.7139C155.922 24.6196 156.514 26.5763 157.172 28.6582L161.169 41.2998C162.917 46.8233 166.668 50.4941 171.257 53.6953L181.992 61.1826C184.82 63.1545 187.196 65.5556 188.294 68.9131C188.822 70.5302 188.282 72.8437 188.542 75.624C188.577 75.992 188.505 76.7677 188.377 77.0762C187.888 78.2549 187.447 79.4142 187.035 80.626C186.252 82.9327 185.707 85.2921 184.796 87.5459C183.77 90.0861 183.088 92.492 182.395 95.1358L182.031 96.5196C181.754 97.5791 181.312 101.841 181.564 102.706C182.168 104.773 182.742 106.704 183.495 108.713L186.075 115.596L187.125 118.327C187.816 120.123 188.758 123.714 188.633 125.561L188.357 129.605C188.283 130.696 187.227 132.214 186.646 133.177C185.543 135.008 183.883 136.037 182.217 137.207L175.38 142.008C174.015 142.966 172.95 144.24 171.272 144.685L166.187 149.538C165.646 150.054 164.885 150.885 164.528 151.522L162.994 154.262L162.461 155.507C161.948 156.705 161.445 157.752 161.044 158.997L160.275 161.388C159.835 162.756 159.401 164.01 159.003 165.371L157.632 170.06L156.763 172.243C156.457 173.012 156.138 174.294 155.704 174.896L153.851 177.469C152.532 179.3 150.905 179.681 148.713 180.236C148.046 180.406 147.128 180.694 146.505 180.747L143.38 181.019C141.712 180.73 140.054 180.906 138.361 180.959C137.234 180.994 136.077 180.726 134.954 180.959C132.885 181.386 131.614 180.505 128.669 180.996V180.998C126.034 181.122 120.772 182.338 118.689 183.611L116.762 184.792C115.74 185.418 114.571 185.984 113.692 186.742C111.927 188.269 110.027 189.373 108.275 190.845L106.176 192.611C105.26 193.38 104.252 193.996 103.242 194.524L101.074 195.661L99.4277 196.54C98.1819 197.205 94.6768 197.221 93.1338 196.95C90.5193 196.49 90.1957 195.8 88.6992 195.939L84.1406 192.788C82.7297 191.814 81.3953 190.728 80.0967 189.596C77.4179 187.258 73.8019 184.574 70.6631 183.001C67.7885 182.162 65.0853 181.64 62.1689 181.391C61.3899 181.159 60.6633 181.146 59.8887 181.175L53.3555 181.408L47.7227 181.545L46.4043 181.303C44.4321 180.941 42.4621 180.886 40.6748 179.965C39.8076 179.518 38.63 179.306 37.8398 178.793C35.1258 177.026 33.3248 174.245 32.3232 171.154L27.2041 155.355C25.2253 149.247 21.7533 146.191 16.748 142.768L12.709 140.007L7.61328 136.493C5.96479 135.356 4.41983 134.167 3.02441 132.724C0.365488 129.974 -0.569876 126.167 0.336914 122.452C0.801331 120.551 1.42607 118.793 2.11719 116.955L5.78223 107.205C8.07127 101.118 8.28915 96.1957 5.99121 90.0664L1.61328 78.3916C0.882504 76.4462 0.38478 74.5313 0.0986328 72.458C-0.475686 68.2985 1.90569 64.469 5.23145 62.1182L19.1318 52.2969C23.3954 49.2851 26.0461 45.063 27.6045 40.1211L32.3545 25.0781C33.0699 22.8088 34.3355 20.8629 36.1162 19.3096C39.2484 16.5755 44.3421 16.7563 48.5352 16.7012L61.0811 16.5381C65.6726 16.4786 69.7562 14.8525 73.4365 12.1778L83.9971 4.50393ZM135.437 31.8701C111.786 16.4368 80.9775 15.5466 56.5869 29.6514C33.7568 42.8531 18.8988 66.6702 17.2236 93.0362C16.0923 110.834 21.0493 128.348 31.3857 142.904C38.2027 152.504 47.0605 160.557 57.375 166.316C77.0355 177.295 100.867 178.995 121.937 170.641H121.934C144.022 161.883 161.009 143.345 167.978 120.756C170.498 112.584 171.589 104.207 171.329 95.6895C170.541 69.8257 157.044 45.9686 135.437 31.8701Z" stroke="var(--stroke-0, #003327)"/>
</g>
<g id="Ellipse 7" opacity="0.2">
</g>
<path id="Vector_2" d="M121.934 170.641C100.864 178.996 77.0348 177.295 57.3721 166.316C47.0576 160.557 38.198 152.502 31.3833 142.905C21.0446 128.348 16.0876 110.835 17.2212 93.0368C18.8985 66.673 33.7539 42.8538 56.5841 29.652C80.9749 15.5469 111.784 16.4348 135.435 31.8707C157.042 45.9714 170.539 69.8258 171.327 95.6895C171.587 104.207 170.495 112.584 167.975 120.756C161.008 143.345 144.022 161.881 121.931 170.641H121.934ZM127.925 165.023C142.387 157.486 153.94 145.491 161.114 130.957C166.489 120.064 169.062 108.039 168.71 95.9187C167.568 56.5623 136.27 23.6284 96.7856 22.3285C80.5082 21.7931 64.7041 26.5411 51.5193 36.0172C32.7788 49.4877 20.9411 70.9759 19.7899 94.112C19.2396 105.17 20.9939 116.089 25.2179 126.31C31.5814 141.708 42.7764 154.646 57.0816 163.108C78.6681 175.878 105.566 176.672 127.921 165.023H127.925Z" fill="var(--fill-0, #003327)"/>
<path id="Vector_3" d="M120.714 93.8516C117.831 99.071 112.902 101.64 106.896 100.897C102.458 100.351 98.9011 97.5882 96.8167 93.6379C92.9956 86.3938 93.6581 74.8799 100.046 69.2662C106.471 63.6216 116.292 65.4458 120.496 72.8353C123.994 78.9845 124.124 87.6739 120.714 93.8494V93.8516ZM115.702 83.5517C115.755 79.0241 114.322 72.6635 108.962 72.56C106.902 72.5203 104.948 73.5646 103.772 75.3822C101.362 79.1056 101.443 86.5612 103.156 90.549C104.171 92.9109 106.18 94.4443 108.595 94.5016C114.421 94.6404 115.647 88.2952 115.702 83.5517Z" fill="var(--fill-0, #003327)"/>
<path id="Vector_4" d="M88.2231 87.6343L79.1128 100.95L70.5924 100.926L78.6484 89.5775C75.0606 89.6568 71.9086 88.5662 69.5776 86.1868C67.1586 83.7192 66.1175 80.4805 66.4279 76.9047C66.9693 71.0288 71.7171 66.6488 77.561 66.043C81.8378 65.6001 86.0529 67.0013 88.8923 70.3083C90.2217 71.8572 91.1506 73.8092 91.4147 75.878C92.031 80.6942 90.8777 83.6024 88.2187 87.6299L88.2231 87.6343ZM84.2942 79.5001C85.1218 76.0631 82.7776 72.82 79.4958 72.571C76.0445 72.3088 73.4186 75.2105 73.7069 78.7003C73.9358 81.4763 76.0004 83.6465 78.6352 83.8426C81.3205 84.0431 83.625 82.2827 84.2964 79.5001H84.2942Z" fill="var(--fill-0, #003327)"/>
<path id="Vector_5" d="M85.8302 120.863C85.7444 126.204 81.9717 130.268 76.6671 130.559C73.7397 130.72 70.8211 130.63 67.7638 130.63V110.918L76.6341 110.995C82.0289 111.041 85.9182 115.415 85.8302 120.861V120.863ZM75.7515 126.836C79.2996 126.785 81.34 124.282 81.4479 120.964C81.5557 117.646 79.4977 114.848 75.9892 114.663C74.7676 114.599 73.5636 114.615 72.0713 114.668L72.0581 126.679C73.3743 126.856 74.4991 126.851 75.7493 126.834L75.7515 126.836Z" fill="var(--fill-0, #003327)"/>
<path id="Vector_6" d="M100.624 127.257C100.475 126.871 96.1275 127.081 94.8486 127.034C94.3182 127.015 93.1164 126.891 92.8281 127.305L91.5624 130.581C90.1824 130.648 88.8177 130.652 87.2682 130.562L94.8112 110.945L98.7908 110.927L106.406 130.507C104.839 130.672 103.393 130.663 101.927 130.599L100.622 127.255L100.624 127.257ZM99.2882 123.298L96.7834 116.486C95.7225 119.013 95.0049 121.044 94.2984 123.377L99.286 123.298H99.2882Z" fill="var(--fill-0, #003327)"/>
<path id="Vector_7" d="M115.962 122.132L115.876 130.529L111.626 130.623L111.577 122.315L104.772 111.132C106.462 110.832 107.976 110.901 109.621 110.942L113.759 118.109L117.971 110.958C119.589 110.892 120.989 110.89 122.77 111.02L115.962 122.13V122.132Z" fill="var(--fill-0, #003327)"/>
<path id="Vector_8" d="M40.4339 71.1451L46.7422 74.7649L45.3643 77.4242L33.3421 70.6296C33.5732 69.9026 33.9122 69.2526 34.3722 68.6071L43.3372 68.0541L39.2608 59.9575L40.3767 58.0407L52.3527 64.9476L50.834 67.5936L44.3408 63.8637L46.5705 68.6203C46.4869 69.1006 46.1347 70.0876 45.7935 70.3939C44.3607 71.1826 42.2234 70.3278 40.4361 71.1473L40.4339 71.1451Z" fill="var(--fill-0, #003327)"/>
<path id="Vector_9" d="M109.312 164.156C108.398 164.498 107.485 164.762 106.373 165.029L102.706 151.585L104.894 150.951L113.232 157.227C112.789 154.348 111.902 151.977 111.244 149.219L114.189 148.441L117.834 161.852L115.547 162.502L107.265 156.227L109.312 164.154V164.156Z" fill="var(--fill-0, #003327)"/>
<path id="Vector_10" d="M43.1302 137.343C44.1779 138.729 45.7714 139.355 47.4926 138.61L45.296 135.451C45.8859 134.834 46.4978 134.314 47.2571 133.86L51.5843 139.544C48.8881 142.421 44.5785 142.71 41.7766 139.938C39.3796 137.566 38.5697 134.14 40.172 131.117C41.6005 128.423 44.8008 126.581 48.0209 127.323C52.1214 128.268 54.7472 132.32 53.9988 136.387L51.2366 135.946C51.5557 133.576 50.5146 131.395 48.3664 130.485C46.6276 129.749 44.7964 130.491 43.5704 131.756C42.0451 133.329 41.7435 135.51 43.1324 137.345L43.1302 137.343Z" fill="var(--fill-0, #003327)"/>
<path id="Vector_11" d="M64.0063 53.7345L57.4736 41.6128C57.8918 41.1215 58.8405 40.52 59.5316 40.5024L69.1458 44.6884L65.1751 37.2285L67.8274 35.8207L74.4503 48.0129L72.4144 49.1343L62.8024 44.9638L66.6432 52.2694L64.0063 53.7367V53.7345Z" fill="var(--fill-0, #003327)"/>
<path id="Vector_12" d="M58.6571 58.9562C55.7737 62.3005 51.0217 62.3997 48.0129 59.4321C45.0041 56.4645 45.2 51.8445 48.3144 48.8967C51.4289 45.949 56.1303 46.2023 58.8397 49.5268C61.1046 52.3072 61.0804 56.1472 58.6592 58.9584L58.6571 58.9562ZM56.7025 51.8247C55.197 49.6722 52.4722 49.1611 50.4538 50.6945C48.5301 52.1574 48.3299 55.0016 49.919 56.8963C51.5455 58.8328 54.0107 59.3175 55.9322 57.7929C57.7722 56.3323 58.153 53.9 56.7025 51.8247Z" fill="var(--fill-0, #003327)"/>
<path id="Vector_13" d="M116.906 40.9825C118.134 42.5775 118.28 44.1462 117.476 45.695C116.673 47.2438 114.886 48.0391 113.054 47.5412C110.789 46.9243 108.588 46.1841 106.337 45.3821L110.728 32.1656L116.23 33.9589C117.236 34.2872 118.297 34.9724 118.874 35.869C120.062 37.7109 119.27 40.2555 116.906 40.9847V40.9825ZM114.756 39.2707C115.59 39.5152 116.237 38.5987 116.329 38.0369C116.649 36.1092 114.485 35.8294 112.902 35.3998L111.958 38.3123C113.028 38.7133 113.677 38.9534 114.754 39.2707H114.756ZM112.473 44.9349C113.473 45.2874 114.459 45.001 114.866 44.0757C115.154 43.4213 115.2 42.1942 114.393 41.7205C113.404 41.1433 112.286 40.8305 111.106 40.5441L109.92 44.0338L112.475 44.9349H112.473Z" fill="var(--fill-0, #003327)"/>
<path id="Vector_14" d="M86.9068 165.569L83.4886 164.971L80.3257 158.311L78.9677 163.943L76.0249 163.264L78.7454 149.613L84.8775 150.946C85.8437 151.156 86.9355 151.885 87.4703 152.663C88.3837 153.989 88.2913 155.599 87.576 156.976C86.9443 158.19 85.6368 158.952 83.9486 159.107L86.909 165.569H86.9068ZM83.8628 156.551C84.686 156.489 85.0712 155.513 85.1152 154.943C85.2693 153.008 82.8459 152.859 81.2656 152.674L80.6119 156.066C81.6926 156.39 82.661 156.644 83.8606 156.553L83.8628 156.551Z" fill="var(--fill-0, #003327)"/>
<path id="Vector_15" d="M142.37 136.491L144.835 138.364L149.039 132.761L151.148 134.387L145.179 142.503L133.951 134.147L139.872 126.013L142 127.59L137.992 133.136C138.736 133.812 139.414 134.305 140.299 134.88L143.948 129.928C144.708 130.324 145.297 130.774 146.052 131.428L142.372 136.491H142.37Z" fill="var(--fill-0, #003327)"/>
<path id="Vector_16" d="M137.955 141.675L133.32 145.81L135.312 148.262L140.645 143.697L142.322 145.685L134.726 152.334L125.653 141.675L133.051 135.154L134.763 137.156L132.879 138.835L129.765 141.651C130.476 142.521 130.962 143.043 131.697 143.755L136.291 139.747L137.959 141.673L137.955 141.675Z" fill="var(--fill-0, #003327)"/>
<path id="Vector_17" d="M83.5148 39.269L77.55 40.9236L78.3952 43.9859L85.0467 42.2785L85.6762 44.8011L76.0731 47.3898L72.481 33.9506L81.875 31.3663L82.6168 33.8515L76.269 35.6426C76.335 36.6098 76.5771 37.555 76.9667 38.4362L82.8919 36.8323L83.517 39.269H83.5148Z" fill="var(--fill-0, #003327)"/>
<path id="Vector_18" d="M146.346 66.8882L143.097 75.6876L141.167 72.5569L144.09 64.4559L138.356 67.8069L136.809 65.1654L148.516 57.9897C149.159 58.7586 149.685 59.6575 150.083 60.6225L145.021 63.8721L152.824 65.1081C153.477 66.0973 153.993 66.9763 154.585 68.1594L146.346 66.8904V66.8882Z" fill="var(--fill-0, #003327)"/>
<path id="Vector_19" d="M63.5344 141.805L66.0018 143.739L60.6599 150.401C58.5535 153.028 55.1617 153.175 52.6151 151.08C50.0685 148.985 49.5446 145.676 51.6048 143.069L56.9115 136.348L59.2996 138.289L53.8036 145.345C52.9386 146.456 53.414 148.15 54.4133 148.928C55.4016 149.696 56.9951 149.974 57.9438 148.787L63.5344 141.805Z" fill="var(--fill-0, #003327)"/>
<path id="Vector_20" d="M98.4403 163.238L93.0148 163.229L92.0882 165.842L88.9408 165.943L94.0955 151.83L96.915 151.821L102.627 165.619C101.568 165.791 100.604 165.844 99.4066 165.877L98.4381 163.238H98.4403ZM95.3611 160.728L97.5049 160.51L95.6164 155.851L93.8908 160.565C94.4125 160.695 94.9099 160.774 95.3611 160.73V160.728Z" fill="var(--fill-0, #003327)"/>
<path id="Vector_21" d="M69.5136 161.054L69.584 158.313L64.7769 155.852L62.6837 157.795L59.9258 156.394L70.7572 146.16L73.2729 147.352L72.4365 162.347L69.5158 161.054H69.5136ZM69.9318 155.605L70.3786 150.289L66.639 153.971L69.9318 155.605Z" fill="var(--fill-0, #003327)"/>
<path id="Vector_22" d="M125.512 54.3558L126.019 51.6217L121.315 48.7048L119.228 50.2977C118.293 49.7381 117.525 49.2556 116.664 48.577L128.433 39.6962L130.826 41.1436L128.244 55.9509L125.512 54.358V54.3558ZM126.567 49.0375C126.98 47.145 127.333 45.7173 127.537 43.8821L123.395 47.0546L126.564 49.0375H126.567Z" fill="var(--fill-0, #003327)"/>
<path id="Vector_23" d="M134.651 52.6819C133.315 54.05 132.776 55.8125 133.487 57.6081C134.084 59.1106 135.486 60.3267 137.546 60.4809C137.607 61.3798 137.618 62.3051 137.579 63.3472C134.918 63.248 132.767 61.7521 131.332 59.5446C130.097 57.6455 129.836 55.3653 130.725 53.0057C131.37 51.2917 132.902 49.6085 135.056 48.8374C137.343 48.0179 139.775 48.4673 141.805 49.9456C143.541 51.2102 144.721 53.2172 144.794 55.6913L142.014 55.7905C141.875 54.2681 141.347 53.2128 140.293 52.3162C138.631 50.904 136.221 51.0802 134.649 52.6885L134.651 52.6819Z" fill="var(--fill-0, #003327)"/>
<path id="Vector_24" d="M90.1996 38.5523L85.0404 30.8172C86.1695 30.5947 87.2282 30.5594 88.3969 30.544L91.6324 35.512L94.4343 30.2951C95.5106 30.1519 96.6155 30.1122 97.793 30.218L93.3184 38.3562L93.6023 44.3068L90.5737 44.3509L90.2018 38.5523H90.1996Z" fill="var(--fill-0, #003327)"/>
<path id="Vector_25" d="M125.284 158.291L119.878 148.391L116.125 150.398C115.63 149.682 115.254 148.952 114.952 148.04L124.993 142.328L126.283 144.636L122.537 146.89L127.976 156.74L125.284 158.291Z" fill="var(--fill-0, #003327)"/>
<path id="Vector_26" d="M34.1082 94.2662C36.523 93.6757 38.7 95.2048 39.2261 97.428C39.7544 99.6622 38.3808 101.951 36.0519 102.527C33.9057 103.055 31.6274 101.747 31.0507 99.5256C30.474 97.3046 31.623 94.8743 34.1082 94.2662Z" fill="var(--fill-0, #003327)"/>
<path id="Vector_27" d="M153.355 102.502C151.22 101.967 149.996 99.9506 150.139 98.0689C150.302 95.9361 151.937 94.1977 154.165 94.1338C156.795 94.0611 158.728 96.2952 158.468 98.7718C158.215 101.198 155.968 103.156 153.353 102.5L153.355 102.502Z" fill="var(--fill-0, #003327)"/>
<path id="Vector_28" d="M105.139 41.3579L98.3002 40.5713L98.6105 38.0022L105.318 38.7932C105.331 39.6129 105.285 40.2144 105.139 41.3579Z" fill="var(--fill-0, #003327)"/>
</g>
</svg>
