<svg width="21.5206" height="15.7196" overflow="visible" style="display: block;" viewBox="0 0 21.5206 15.7196" fill="none" xmlns="http://www.w3.org/2000/svg">
<g id="Layer 2">
<path id="Vector" d="M17.7485 13.7196C17.7535 13.6597 17.7535 13.5995 17.7485 13.5396C17.7485 13.0092 17.5378 12.5005 17.1627 12.1254C16.7877 11.7503 16.2789 11.5396 15.7485 11.5396C15.2181 11.5396 14.7094 11.7503 14.3343 12.1254C13.9592 12.5005 13.7485 13.0092 13.7485 13.5396C13.7436 13.5995 13.7436 13.6597 13.7485 13.7196C13.7485 14.2501 13.9592 14.7588 14.3343 15.1338C14.7094 15.5089 15.2181 15.7196 15.7485 15.7196C16.2789 15.7196 16.7877 15.5089 17.1627 15.1338C17.5378 14.7588 17.7485 14.2501 17.7485 13.7196Z" fill="var(--fill-0, #00CC9C)"/>
<path id="Vector_2" d="M9.74851 13.7196C9.75348 13.6597 9.75348 13.5995 9.74851 13.5396C9.74851 13.0092 9.5378 12.5005 9.16273 12.1254C8.78765 11.7503 8.27895 11.5396 7.74851 11.5396C7.21808 11.5396 6.70937 11.7503 6.3343 12.1254C5.95923 12.5005 5.74851 13.0092 5.74851 13.5396C5.74355 13.5995 5.74355 13.6597 5.74851 13.7196C5.74851 14.2501 5.95923 14.7588 6.3343 15.1338C6.70937 15.5089 7.21808 15.7196 7.74851 15.7196C8.27895 15.7196 8.78765 15.5089 9.16273 15.1338C9.5378 14.7588 9.74851 14.2501 9.74851 13.7196Z" fill="var(--fill-0, #00CC9C)"/>
<path id="Vector_3" d="M2.25 8.97H0.750001C0.612298 8.96967 0.477234 9.00776 0.360001 9.08C0.258129 9.1428 0.172764 9.22907 0.111038 9.3316C0.0493129 9.43413 0.0130188 9.54994 0.00518807 9.66936C-0.00264265 9.78877 0.0182175 9.90833 0.0660257 10.018C0.113834 10.1278 0.187202 10.2244 0.280001 10.3C0.410885 10.4118 0.577908 10.4722 0.750001 10.47H3.25C3.44891 10.47 3.63968 10.549 3.78033 10.6897C3.92098 10.8303 4 11.0211 4 11.22C4 11.4189 3.92098 11.6097 3.78033 11.7503C3.63968 11.891 3.44891 11.97 3.25 11.97H2.25C2.05109 11.97 1.86032 12.049 1.71967 12.1897C1.57902 12.3303 1.5 12.5211 1.5 12.72C1.5 12.9189 1.57902 13.1097 1.71967 13.2503C1.86032 13.391 2.05109 13.47 2.25 13.47H5.01C5.05302 12.9614 5.24037 12.4757 5.55 12.07C5.80879 11.7313 6.14149 11.4561 6.52275 11.2655C6.90401 11.0749 7.32376 10.9738 7.75 10.97C8.43696 10.9674 9.09985 11.2229 9.60733 11.6859C10.1148 12.1489 10.4298 12.7857 10.49 13.47H13.01C13.0687 12.7837 13.3828 12.1445 13.8901 11.6786C14.3975 11.2128 15.0612 10.9543 15.75 10.9543C16.4388 10.9543 17.1025 11.2128 17.6099 11.6786C18.1172 12.1445 18.4313 12.7837 18.49 13.47H19.85C20.0839 13.4747 20.3121 13.3972 20.4949 13.2511C20.6776 13.1049 20.8033 12.8993 20.85 12.67L21.51 9.37C21.5048 9.34695 21.5048 9.32305 21.51 9.3C21.5242 9.21391 21.5242 9.12609 21.51 9.04L19.63 3.5C19.5276 3.20579 19.3355 2.95109 19.0808 2.77171C18.8261 2.59234 18.5215 2.49731 18.21 2.5H16.41L16.52 1.7C16.5469 1.48803 16.5285 1.27277 16.466 1.06844C16.4035 0.864116 16.2984 0.675375 16.1576 0.514692C16.0167 0.354009 15.8434 0.225043 15.649 0.136319C15.4547 0.0475946 15.2437 0.00113144 15.03 0H3.75C3.55109 0 3.36032 0.0790178 3.21967 0.21967C3.07902 0.360322 3 0.551088 3 0.75C3 0.948913 3.07902 1.13968 3.21967 1.28033C3.36032 1.42098 3.55109 1.5 3.75 1.5H5C5.19891 1.5 5.38968 1.57902 5.53033 1.71967C5.67098 1.86032 5.75 2.05109 5.75 2.25C5.75 2.44891 5.67098 2.63968 5.53033 2.78033C5.38968 2.92098 5.19891 3 5 3H0.750001C0.551894 3.00259 0.36263 3.08244 0.222535 3.22253C0.08244 3.36263 0.00259076 3.55189 7.91771e-07 3.75C-0.000276277 3.93952 0.0721735 4.12193 0.202413 4.25961C0.332653 4.39729 0.510755 4.47976 0.700001 4.49H3.25C3.44891 4.49 3.63968 4.56902 3.78033 4.70967C3.92098 4.85032 4 5.04109 4 5.24C4 5.43891 3.92098 5.62968 3.78033 5.77033C3.63968 5.91098 3.44891 5.99 3.25 5.99H1.75H1.59C1.42328 6.0264 1.27396 6.11858 1.16669 6.2513C1.05942 6.38402 1.00062 6.54935 1 6.72C1 6.91891 1.07902 7.10968 1.21967 7.25033C1.36032 7.39098 1.55109 7.47 1.75 7.47H2.25C2.44891 7.47 2.63968 7.54902 2.78033 7.68967C2.92098 7.83032 3 8.02109 3 8.22C3 8.41891 2.92098 8.60968 2.78033 8.75033C2.63968 8.89098 2.44891 8.97 2.25 8.97ZM16.25 3.97H18.07C18.1225 3.97079 18.1735 3.98746 18.2163 4.0178C18.2592 4.04815 18.2918 4.09075 18.31 4.14L19.75 8.47H15.65L16.25 3.97Z" fill="var(--fill-0, #00CC9C)"/>
</g>
</svg>
