<svg width="134.008" height="140.17" overflow="visible" style="display: block;" viewBox="0 0 134.008 140.17" fill="none" xmlns="http://www.w3.org/2000/svg">
<g id="Left Secure Order Button">
<circle id="Ellipse 8" cx="67.0062" cy="70.0845" r="59.3032" fill="var(--fill-0, #FFDB49)"/>
<g id="Vector">
<path d="M59.6699 3.20313C64.5562 -0.350158 67.7333 -1.44731 73.2012 2.50684L81.9014 8.79883C84.5736 10.7306 87.6122 11.7012 90.9365 11.7764L103.929 12.0674C106.659 12.1286 108.848 13.7804 110.067 16.1523C110.763 17.5074 111.184 18.8985 111.651 20.3789L114.491 29.3691C115.733 33.2967 118.397 35.9072 121.657 38.1836L129.283 43.5068C131.292 44.909 132.98 46.6172 133.76 49.0049C134.135 50.1549 133.752 51.8002 133.937 53.7773C133.961 54.0391 133.91 54.5902 133.819 54.8096C133.472 55.6478 133.158 56.4723 132.865 57.334C132.309 58.9742 131.922 60.6522 131.274 62.2549C130.546 64.0612 130.062 65.7724 129.569 67.6523L129.311 68.6357C129.114 69.3893 128.8 72.4206 128.979 73.0352C129.408 74.5048 129.816 75.8778 130.351 77.3066L132.184 82.2012L132.929 84.1436C133.42 85.4204 134.089 87.9742 134 89.2871L133.805 92.1641C133.751 92.9396 133.001 94.0186 132.588 94.7031C131.805 96.0051 130.626 96.7374 129.442 97.5693L124.586 100.982C123.616 101.664 122.859 102.57 121.668 102.887L118.056 106.338C117.671 106.705 117.13 107.295 116.877 107.748L115.787 109.697L115.408 110.582C115.044 111.434 114.686 112.178 114.401 113.063L113.855 114.764C113.543 115.737 113.235 116.628 112.952 117.597L111.978 120.931L111.36 122.483C111.143 123.03 110.916 123.941 110.608 124.369L109.292 126.199C108.355 127.501 107.2 127.772 105.643 128.167C105.169 128.288 104.517 128.493 104.074 128.53L101.854 128.724C100.668 128.518 99.4905 128.643 98.2881 128.681C97.4877 128.706 96.6654 128.515 95.8682 128.681C94.3983 128.985 93.4955 128.359 91.4033 128.708V128.709C89.5316 128.797 85.7937 129.662 84.3145 130.567L82.9443 131.407C82.2188 131.852 81.3885 132.255 80.7646 132.794C79.5107 133.88 78.1615 134.665 76.917 135.711L75.4248 136.968C74.7745 137.514 74.0584 137.951 73.3408 138.327L71.8008 139.136L70.6309 139.761C69.7458 140.234 67.2563 140.245 66.1602 140.053C64.3028 139.725 64.0729 139.234 63.0098 139.333L59.7715 137.093C58.7692 136.4 57.8219 135.628 56.8994 134.822C54.9965 133.16 52.427 131.252 50.1973 130.134C48.1552 129.537 46.2349 129.165 44.1631 128.988C43.6096 128.824 43.0934 128.815 42.543 128.835L37.9023 129.001L33.9014 129.098L32.9648 128.926C31.5639 128.669 30.1641 128.629 28.8945 127.975C28.2785 127.657 27.4412 127.506 26.8799 127.141C24.9522 125.884 23.6733 123.907 22.9619 121.709L19.3252 110.474C17.9195 106.131 15.4531 103.958 11.8975 101.523L9.02832 99.5605L5.4082 97.0615C4.23715 96.2532 3.13971 95.407 2.14844 94.3809C0.259567 92.4256 -0.40496 89.7177 0.239258 87.0762C0.569178 85.7242 1.01296 84.4736 1.50391 83.167L4.10742 76.2344C5.73354 71.9056 5.88827 68.4055 4.25586 64.0469L1.14648 55.7451C0.627358 54.3617 0.273585 52.9997 0.0703125 51.5254C-0.337672 48.5675 1.35421 45.8445 3.7168 44.1729L13.5908 37.1885C16.6196 35.0467 18.5023 32.0445 19.6094 28.5303L22.9834 17.833C23.4916 16.2193 24.3913 14.836 25.6562 13.7314C27.8812 11.7873 31.4989 11.9151 34.4775 11.876L43.3906 11.7607C46.6522 11.7184 49.5527 10.562 52.167 8.66016L59.6699 3.20313ZM96.2119 22.6631C79.4107 11.6882 57.5248 11.0558 40.1982 21.0859C23.9802 30.4738 13.4253 47.4101 12.2354 66.1592C11.4317 78.8151 14.9532 91.2688 22.2959 101.62C27.1385 108.446 33.4306 114.173 40.7578 118.269C54.7241 126.075 71.6531 127.285 86.6201 121.344H86.6191C102.31 115.116 114.377 101.934 119.327 85.8701C121.118 80.0591 121.893 74.1019 121.709 68.0449C121.149 49.6532 111.56 32.6886 96.2119 22.6631Z" fill="var(--fill-0, #F5C400)"/>
<path d="M59.6699 3.20313C64.5562 -0.350158 67.7333 -1.44731 73.2012 2.50684L81.9014 8.79883C84.5736 10.7306 87.6122 11.7012 90.9365 11.7764L103.929 12.0674C106.659 12.1286 108.848 13.7804 110.067 16.1523C110.763 17.5074 111.184 18.8985 111.651 20.3789L114.491 29.3691C115.733 33.2967 118.397 35.9072 121.657 38.1836L129.283 43.5068C131.292 44.909 132.98 46.6172 133.76 49.0049C134.135 50.1549 133.752 51.8002 133.937 53.7773C133.961 54.0391 133.91 54.5902 133.819 54.8096C133.472 55.6478 133.158 56.4723 132.865 57.334C132.309 58.9742 131.922 60.6522 131.274 62.2549C130.546 64.0612 130.062 65.7724 129.569 67.6523L129.311 68.6357C129.114 69.3893 128.8 72.4206 128.979 73.0352C129.408 74.5048 129.816 75.8778 130.351 77.3066L132.184 82.2012L132.929 84.1436C133.42 85.4204 134.089 87.9742 134 89.2871L133.805 92.1641C133.751 92.9396 133.001 94.0186 132.588 94.7031C131.805 96.0051 130.626 96.7374 129.442 97.5693L124.586 100.982C123.616 101.664 122.859 102.57 121.668 102.887L118.056 106.338C117.671 106.705 117.13 107.295 116.877 107.748L115.787 109.697L115.408 110.582C115.044 111.434 114.686 112.178 114.401 113.063L113.855 114.764C113.543 115.737 113.235 116.628 112.952 117.597L111.978 120.931L111.36 122.483C111.143 123.03 110.916 123.941 110.608 124.369L109.292 126.199C108.355 127.501 107.2 127.772 105.643 128.167C105.169 128.288 104.517 128.493 104.074 128.53L101.854 128.724C100.668 128.518 99.4905 128.643 98.2881 128.681C97.4877 128.706 96.6654 128.515 95.8682 128.681C94.3983 128.985 93.4955 128.359 91.4033 128.708V128.709C89.5316 128.797 85.7937 129.662 84.3145 130.567L82.9443 131.407C82.2188 131.852 81.3885 132.255 80.7646 132.794C79.5107 133.88 78.1615 134.665 76.917 135.711L75.4248 136.968C74.7745 137.514 74.0584 137.951 73.3408 138.327L71.8008 139.136L70.6309 139.761C69.7458 140.234 67.2563 140.245 66.1602 140.053C64.3028 139.725 64.0729 139.234 63.0098 139.333L59.7715 137.093C58.7692 136.4 57.8219 135.628 56.8994 134.822C54.9965 133.16 52.427 131.252 50.1973 130.134C48.1552 129.537 46.2349 129.165 44.1631 128.988C43.6096 128.824 43.0934 128.815 42.543 128.835L37.9023 129.001L33.9014 129.098L32.9648 128.926C31.5639 128.669 30.1641 128.629 28.8945 127.975C28.2785 127.657 27.4412 127.506 26.8799 127.141C24.9522 125.884 23.6733 123.907 22.9619 121.709L19.3252 110.474C17.9195 106.131 15.4531 103.958 11.8975 101.523L9.02832 99.5605L5.4082 97.0615C4.23715 96.2532 3.13971 95.407 2.14844 94.3809C0.259567 92.4256 -0.40496 89.7177 0.239258 87.0762C0.569178 85.7242 1.01296 84.4736 1.50391 83.167L4.10742 76.2344C5.73354 71.9056 5.88827 68.4055 4.25586 64.0469L1.14648 55.7451C0.627358 54.3617 0.273585 52.9997 0.0703125 51.5254C-0.337672 48.5675 1.35421 45.8445 3.7168 44.1729L13.5908 37.1885C16.6196 35.0467 18.5023 32.0445 19.6094 28.5303L22.9834 17.833C23.4916 16.2193 24.3913 14.836 25.6562 13.7314C27.8812 11.7873 31.4989 11.9151 34.4775 11.876L43.3906 11.7607C46.6522 11.7184 49.5527 10.562 52.167 8.66016L59.6699 3.20313ZM96.2119 22.6631C79.4107 11.6882 57.5248 11.0558 40.1982 21.0859C23.9802 30.4738 13.4253 47.4101 12.2354 66.1592C11.4317 78.8151 14.9532 91.2688 22.2959 101.62C27.1385 108.446 33.4306 114.173 40.7578 118.269C54.7241 126.075 71.6531 127.285 86.6201 121.344H86.6191C102.31 115.116 114.377 101.934 119.327 85.8701C121.118 80.0591 121.893 74.1019 121.709 68.0449C121.149 49.6532 111.56 32.6886 96.2119 22.6631Z" stroke="var(--stroke-0, black)"/>
</g>
<g id="Ellipse 7" opacity="0.2">
</g>
<path id="Vector_2" d="M86.6188 121.344C71.6517 127.285 54.7238 126.076 40.7559 118.269C33.4287 114.173 27.135 108.445 22.294 101.621C14.9496 91.2692 11.4283 78.8153 12.2336 66.1592C13.4251 47.4116 23.9781 30.4736 40.1961 21.0858C57.5227 11.0555 79.4089 11.6869 96.2102 22.6635C111.559 32.6906 121.147 49.6536 121.707 68.0455C121.891 74.1025 121.116 80.0592 119.325 85.8703C114.376 101.934 102.31 115.115 86.6173 121.344H86.6188ZM90.8751 117.349C101.148 111.989 109.356 103.46 114.452 93.1243C118.27 85.3783 120.098 76.8271 119.848 68.2085C119.036 40.2219 96.8028 16.8023 68.7543 15.8779C57.1912 15.4972 45.9643 18.8735 36.5982 25.6121C23.2854 35.1911 14.8761 50.4714 14.0584 66.9237C13.6675 74.7872 14.9137 82.5519 17.9143 89.82C22.4348 100.77 30.3874 109.97 40.5495 115.988C55.884 125.068 74.9917 125.632 90.8719 117.349H90.8751Z" fill="var(--fill-0, black)"/>
<path id="Vector_3" d="M85.7528 66.7391C83.7044 70.4507 80.2034 72.2776 75.9361 71.7496C72.7838 71.361 70.2569 69.3963 68.7762 66.5871C66.0616 61.4356 66.5323 53.2477 71.07 49.2556C75.6344 45.2416 82.6114 46.5389 85.598 51.7938C88.0826 56.1666 88.1749 62.3459 85.7528 66.7375V66.7391ZM82.1923 59.4145C82.2299 56.1948 81.2119 51.6716 77.4044 51.5979C75.9408 51.5697 74.5523 52.3124 73.7173 53.605C72.0051 56.2528 72.063 61.5547 73.2795 64.3905C74.0003 66.0701 75.428 67.1605 77.1433 67.2013C81.2823 67.3 82.1532 62.7877 82.1923 59.4145Z" fill="var(--fill-0, black)"/>
<path id="Vector_4" d="M62.672 62.3179L56.2 71.7874L50.1471 71.7701L55.8701 63.6997C53.3213 63.7561 51.0822 62.9806 49.4263 61.2885C47.7078 59.5337 46.9682 57.2306 47.1887 54.6878C47.5733 50.5092 50.9461 47.3945 55.0977 46.9636C58.1358 46.6487 61.1302 47.6452 63.1474 49.9969C64.0918 51.0983 64.7517 52.4865 64.9393 53.9576C65.3771 57.3826 64.5578 59.4507 62.6689 62.3147L62.672 62.3179ZM59.8809 56.5334C60.4688 54.0893 58.8035 51.783 56.4721 51.6059C54.0203 51.4195 52.1549 53.4829 52.3597 55.9647C52.5223 57.9388 53.989 59.482 55.8607 59.6215C57.7684 59.764 59.4055 58.5122 59.8824 56.5334H59.8809Z" fill="var(--fill-0, black)"/>
<path id="Vector_5" d="M60.972 85.9469C60.9111 89.7447 58.231 92.6353 54.4626 92.8421C52.383 92.9565 50.3096 92.8923 48.1377 92.8923V78.8746L54.4392 78.9295C58.2716 78.9624 61.0346 82.0724 60.972 85.9453V85.9469ZM53.8121 90.1943C56.3327 90.1583 57.7822 88.3785 57.8588 86.019C57.9355 83.6595 56.4735 81.6697 53.981 81.5381C53.1132 81.4927 52.2579 81.5036 51.1977 81.5412L51.1884 90.0831C52.1234 90.2084 52.9224 90.2053 53.8106 90.1928L53.8121 90.1943Z" fill="var(--fill-0, black)"/>
<path id="Vector_6" d="M71.4815 90.4936C71.3751 90.2194 68.2869 90.3683 67.3785 90.3354C67.0016 90.3212 66.1479 90.2335 65.943 90.5281L65.044 92.8578C64.0635 92.9048 63.0941 92.9079 61.9933 92.8437L67.3519 78.8935L70.1789 78.8809L75.5891 92.8045C74.4758 92.922 73.4485 92.9158 72.4071 92.8703L71.4799 90.492L71.4815 90.4936ZM70.5323 87.6782L68.7529 82.8338C67.9992 84.6309 67.4895 86.0754 66.9876 87.7346L70.5308 87.6782H70.5323Z" fill="var(--fill-0, black)"/>
<path id="Vector_7" d="M82.3769 86.8494L82.3159 92.8202L79.2965 92.8876L79.2621 86.9794L74.4273 79.0266C75.6282 78.8136 76.704 78.8621 77.872 78.8919L80.8117 83.9885L83.8045 78.9029C84.9538 78.8559 85.9482 78.8543 87.2132 78.9467L82.3769 86.8478V86.8494Z" fill="var(--fill-0, black)"/>
<path id="Vector_8" d="M28.7237 50.5921L33.2051 53.1663L32.2262 55.0573L23.6857 50.2255C23.8498 49.7085 24.0906 49.2463 24.4174 48.7872L30.7861 48.394L27.8903 42.6362L28.683 41.2731L37.1908 46.1849L36.1119 48.0665L31.4992 45.414L33.0831 48.7966C33.0237 49.1382 32.7735 49.8401 32.5312 50.0579C31.5132 50.6187 29.9949 50.0108 28.7253 50.5937L28.7237 50.5921Z" fill="var(--fill-0, black)"/>
<path id="Vector_9" d="M77.6531 116.733C77.0042 116.976 76.3553 117.164 75.5656 117.354L72.9607 107.793L74.5149 107.342L80.4379 111.806C80.1236 109.758 79.4935 108.072 79.0259 106.111L81.1181 105.558L83.7074 115.094L82.0828 115.557L76.1989 111.094L77.6531 116.732V116.733Z" fill="var(--fill-0, black)"/>
<path id="Vector_10" d="M30.639 97.666C31.3833 98.6514 32.5153 99.0964 33.7381 98.5668L32.1776 96.3202C32.5966 95.8815 33.0313 95.5117 33.5708 95.189L36.6448 99.2311C34.7294 101.277 31.6678 101.482 29.6774 99.5115C27.9746 97.8242 27.3992 95.388 28.5375 93.2385C29.5523 91.3224 31.8258 90.0126 34.1133 90.5406C37.0263 91.2127 38.8917 94.0939 38.3601 96.986L36.3978 96.6727C36.6245 94.9869 35.8849 93.4359 34.3588 92.7888C33.1236 92.2655 31.8226 92.7935 30.9517 93.6928C29.8681 94.8114 29.6539 96.3625 30.6406 97.6675L30.639 97.666Z" fill="var(--fill-0, black)"/>
<path id="Vector_11" d="M45.4688 38.2113L40.8279 29.5912C41.125 29.2418 41.7989 28.8141 42.2899 28.8016L49.1198 31.7783L46.2991 26.4734L48.1832 25.4723L52.8882 34.1425L51.4418 34.94L44.6135 31.9742L47.342 37.1695L45.4688 38.2129V38.2113Z" fill="var(--fill-0, black)"/>
<path id="Vector_12" d="M41.6691 41.9244C39.6208 44.3027 36.2449 44.3732 34.1075 42.2628C31.97 40.1525 32.1092 36.8671 34.3217 34.7709C36.5342 32.6746 39.8741 32.8548 41.7989 35.2189C43.4078 37.1961 43.3906 39.9269 41.6707 41.926L41.6691 41.9244ZM40.2806 36.853C39.2111 35.3223 37.2754 34.9589 35.8415 36.0493C34.4749 37.0896 34.3327 39.1122 35.4616 40.4596C36.6171 41.8367 38.3683 42.1814 39.7334 41.0972C41.0405 40.0585 41.311 38.3288 40.2806 36.853Z" fill="var(--fill-0, black)"/>
<path id="Vector_13" d="M83.0475 29.1431C83.9199 30.2774 84.0231 31.3929 83.4524 32.4943C82.8817 33.5957 81.6121 34.1613 80.3111 33.8072C78.7022 33.3685 77.1386 32.8421 75.539 32.2718L78.6584 22.8732L82.5674 24.1485C83.282 24.3819 84.0357 24.8692 84.4453 25.5068C85.2897 26.8166 84.7268 28.6261 83.0475 29.1447V29.1431ZM81.5198 27.9258C82.1124 28.0997 82.5721 27.448 82.6378 27.0485C82.8645 25.6776 81.3275 25.4786 80.2033 25.1731L79.5325 27.2443C80.2924 27.5294 80.7536 27.7002 81.5183 27.9258H81.5198ZM79.8984 31.9538C80.6082 32.2045 81.3087 32.0008 81.598 31.3428C81.8028 30.8775 81.8357 30.0048 81.2618 29.668C80.5598 29.2575 79.7655 29.035 78.9274 28.8314L78.0846 31.313L79.8999 31.9538H79.8984Z" fill="var(--fill-0, black)"/>
<path id="Vector_14" d="M61.7367 117.737L59.3084 117.313L57.0615 112.577L56.0967 116.581L54.0061 116.099L55.9388 106.391L60.295 107.339C60.9814 107.488 61.757 108.006 62.1369 108.56C62.7858 109.503 62.7202 110.648 62.212 111.627C61.7632 112.49 60.8345 113.032 59.6352 113.142L61.7382 117.737H61.7367ZM59.5742 111.325C60.159 111.281 60.4326 110.587 60.4639 110.181C60.5733 108.805 58.8518 108.699 57.7291 108.567L57.2647 110.98C58.0325 111.21 58.7204 111.391 59.5726 111.326L59.5742 111.325Z" fill="var(--fill-0, black)"/>
<path id="Vector_15" d="M101.137 97.0599L102.888 98.3916L105.875 94.4074L107.373 95.5636L103.132 101.335L95.1563 95.3929L99.3625 89.6085L100.875 90.7303L98.0272 94.6737C98.5557 95.1547 99.0373 95.5057 99.6658 95.9146L102.258 92.3926C102.798 92.6746 103.217 92.9942 103.753 93.4595L101.139 97.0599H101.137Z" fill="var(--fill-0, black)"/>
<path id="Vector_16" d="M98.0005 100.746L94.7076 103.687L96.1226 105.431L99.9113 102.185L101.103 103.598L95.7067 108.326L89.2614 100.746L94.5168 96.1088L95.7333 97.533L94.3948 98.7268L92.1823 100.729C92.6874 101.348 93.0329 101.719 93.5552 102.225L96.8184 99.3754L98.0037 100.745L98.0005 100.746Z" fill="var(--fill-0, black)"/>
<path id="Vector_17" d="M59.3271 27.9245L55.0897 29.1011L55.6902 31.2789L60.4154 30.0647L60.8626 31.8586L54.0405 33.6995L51.4887 24.1425L58.1622 22.3047L58.6892 24.072L54.1797 25.3457C54.2266 26.0335 54.3986 26.7056 54.6754 27.3323L58.8846 26.1918L59.3287 27.9245H59.3271Z" fill="var(--fill-0, black)"/>
<path id="Vector_18" d="M103.961 47.5649L101.653 53.8224L100.282 51.5961L102.358 45.8352L98.2851 48.2182L97.1859 46.3397L105.503 41.2369C105.959 41.7837 106.333 42.4229 106.616 43.1091L103.02 45.4201L108.563 46.299C109.027 47.0024 109.393 47.6276 109.814 48.4689L103.961 47.5665V47.5649Z" fill="var(--fill-0, black)"/>
<path id="Vector_19" d="M45.1339 100.839L46.8868 102.214L43.0919 106.952C41.5955 108.819 39.1859 108.924 37.3768 107.434C35.5677 105.944 35.1956 103.591 36.6591 101.738L40.429 96.9578L42.1255 98.3381L38.2212 103.356C37.6067 104.146 37.9444 105.351 38.6543 105.904C39.3564 106.451 40.4884 106.648 41.1624 105.803L45.1339 100.839Z" fill="var(--fill-0, black)"/>
<path id="Vector_20" d="M69.9302 116.08L66.0759 116.073L65.4177 117.931L63.1817 118.004L66.8437 107.967L68.8466 107.961L72.9042 117.773C72.1521 117.895 71.4672 117.933 70.6166 117.957L69.9286 116.08H69.9302ZM67.7427 114.295L69.2657 114.14L67.9241 110.827L66.6982 114.179C67.0688 114.272 67.4222 114.328 67.7427 114.297V114.295Z" fill="var(--fill-0, black)"/>
<path id="Vector_21" d="M49.3808 114.527L49.4308 112.578L46.0159 110.828L44.5289 112.21L42.5697 111.213L50.2642 103.936L52.0515 104.783L51.4573 115.446L49.3824 114.527H49.3808ZM49.6779 110.652L49.9953 106.872L47.3387 109.49L49.6779 110.652Z" fill="var(--fill-0, black)"/>
<path id="Vector_22" d="M89.1611 38.653L89.5207 36.7088L86.1793 34.6344L84.697 35.7672C84.0324 35.3692 83.4867 35.0261 82.8754 34.5436L91.236 28.2281L92.9357 29.2574L91.1016 39.7874L89.1611 38.6546V38.653ZM89.9101 34.871C90.204 33.5252 90.4542 32.51 90.5996 31.2049L87.6569 33.4609L89.9085 34.871H89.9101Z" fill="var(--fill-0, black)"/>
<path id="Vector_23" d="M95.6535 37.4625C94.7044 38.4354 94.3214 39.6888 94.8264 40.9656C95.2501 42.0341 96.2462 42.8989 97.7097 43.0086C97.7535 43.6478 97.7613 44.3058 97.7331 45.0469C95.8427 44.9764 94.3151 43.9126 93.2956 42.3428C92.4184 40.9923 92.2324 39.3707 92.8641 37.6928C93.3222 36.4739 94.4105 35.2769 95.9412 34.7286C97.5658 34.1458 99.2936 34.4654 100.735 35.5166C101.969 36.4159 102.807 37.8432 102.859 39.6026L100.884 39.6731C100.785 38.5905 100.41 37.84 99.6611 37.2024C98.4805 36.1981 96.7684 36.3235 95.652 37.4672L95.6535 37.4625Z" fill="var(--fill-0, black)"/>
<path id="Vector_24" d="M64.0757 27.415L60.4106 21.9144C61.2127 21.7561 61.9648 21.7311 62.7951 21.7201L65.0936 25.253L67.084 21.543C67.8486 21.4412 68.6336 21.413 69.4701 21.4882L66.2913 27.2756L66.493 31.5072L64.3415 31.5386L64.0772 27.415H64.0757Z" fill="var(--fill-0, black)"/>
<path id="Vector_25" d="M88.9986 112.563L85.1584 105.522L82.4924 106.949C82.1406 106.44 81.8732 105.921 81.659 105.273L88.7922 101.21L89.7085 102.852L87.0472 104.455L90.9109 111.46L88.9986 112.563Z" fill="var(--fill-0, black)"/>
<path id="Vector_26" d="M24.2299 67.0332C25.9454 66.6133 27.4919 67.7007 27.8657 69.2817C28.241 70.8705 27.2652 72.4984 25.6107 72.9074C24.0861 73.2834 22.4676 72.3527 22.0579 70.7733C21.6481 69.1939 22.4644 67.4657 24.2299 67.0332Z" fill="var(--fill-0, black)"/>
<path id="Vector_27" d="M108.94 72.8901C107.423 72.5093 106.554 71.0756 106.655 69.7375C106.771 68.2208 107.933 66.9846 109.515 66.9391C111.384 66.8874 112.757 68.4762 112.572 70.2374C112.393 71.9625 110.796 73.3554 108.938 72.8885L108.94 72.8901Z" fill="var(--fill-0, black)"/>
<path id="Vector_28" d="M74.6887 29.4099L69.8301 28.8505L70.0506 27.0236L74.8153 27.5861C74.8247 28.169 74.7919 28.5967 74.6887 29.4099Z" fill="var(--fill-0, black)"/>
</g>
</svg>
