<svg width="36" height="50" overflow="visible" style="display: block;" viewBox="0 0 36 50" fill="none" xmlns="http://www.w3.org/2000/svg">
<g id="Vector">
<path d="M21.6003 21.4297C23.0914 21.4297 24.3002 20.2305 24.3002 18.7513C24.3002 17.272 23.0914 16.0728 21.6003 16.0728C20.1092 16.0728 18.9004 17.272 18.9004 18.7513C18.9004 20.2305 20.1092 21.4297 21.6003 21.4297Z" fill="var(--fill-0, #00CC9C)"/>
<path d="M14.4005 14.2872C15.8916 14.2872 17.1004 13.088 17.1004 11.6087C17.1004 10.1294 15.8916 8.93024 14.4005 8.93024C12.9094 8.93024 11.7006 10.1294 11.7006 11.6087C11.7006 13.088 12.9094 14.2872 14.4005 14.2872Z" fill="var(--fill-0, #00CC9C)"/>
<path d="M21.2277 9.45344L12.228 18.3816C11.5242 19.0798 11.5242 20.2084 12.228 20.9065C12.579 21.2547 13.0397 21.4297 13.5005 21.4297C13.9613 21.4297 14.4221 21.2547 14.7731 20.9065L23.7728 11.9783C24.4766 11.2801 24.4766 10.1516 23.7728 9.45344C23.069 8.75525 21.9315 8.75525 21.2277 9.45344Z" fill="var(--fill-0, #00CC9C)"/>
<path d="M34.1999 32.1436H28.8001V25.6278C29.3995 25.3992 29.9736 25.0457 30.3984 24.4385C31.2426 23.2368 30.9942 21.8136 30.7944 20.6691C30.726 20.2709 30.609 19.6048 30.6558 19.4155C30.7332 19.237 31.1508 18.8227 31.4298 18.5513C32.22 17.7727 33.3017 16.7049 33.3017 15.18C33.3017 13.6551 32.22 12.5872 31.4298 11.8087C31.1526 11.5355 30.7332 11.123 30.663 10.9641C30.6108 10.7552 30.726 10.0891 30.7944 9.69093C30.9942 8.54633 31.2426 7.12317 30.4002 5.92322C29.5255 4.67506 28.0333 4.46614 26.9461 4.31436C26.5681 4.26258 25.9994 4.18222 25.8662 4.11437C25.7204 3.9733 25.4666 3.42332 25.301 3.05905C24.806 1.98053 24.1886 0.641295 22.7541 0.157386C21.3321 -0.324738 20.0145 0.409161 19.0534 0.946639C18.7258 1.12877 18.1822 1.43233 18.0202 1.45733C17.8204 1.43412 17.275 1.12877 16.9474 0.946639C15.9899 0.410947 14.6795 -0.326523 13.2485 0.157386C11.8122 0.641295 11.1948 1.98053 10.6998 3.05905C10.5324 3.42332 10.2804 3.9733 10.1688 4.08758C10.0014 4.18222 9.43265 4.26258 9.05646 4.31436C7.96749 4.46614 6.47533 4.67506 5.60236 5.92144C4.75818 7.12317 5.00658 8.54633 5.20637 9.69093C5.27657 10.0891 5.39177 10.7552 5.34677 10.9444C5.26937 11.123 4.85178 11.5373 4.57279 11.8087C3.78261 12.5872 2.70084 13.6551 2.70084 15.18C2.70084 16.7049 3.78261 17.7727 4.57279 18.5513C4.84998 18.8245 5.26937 19.237 5.33957 19.3959C5.39176 19.6048 5.27657 20.2709 5.20817 20.6691C5.00838 21.8136 4.75998 23.2368 5.60236 24.4368C6.02715 25.0439 6.60133 25.3992 7.20251 25.6278V32.1436H1.80087C1.05389 32.1436 0.384312 32.6007 0.11792 33.2953C-0.148472 33.9899 0.0459222 34.772 0.605706 35.2649L16.8052 49.55C17.1454 49.85 17.5738 50 18.0004 50C18.427 50 18.8554 49.85 19.1956 49.55L35.3951 35.2649C35.9549 34.772 36.1475 33.9882 35.8829 33.2953C35.6183 32.6025 34.9469 32.1436 34.1999 32.1436ZM26.4421 22.5083C25.5404 22.6333 24.5162 22.7761 23.6684 23.4172C22.8423 24.0421 22.4085 24.9849 22.0251 25.8171C21.8973 26.0956 21.6993 26.5242 21.6237 26.7188C21.3897 26.6188 21.0603 26.4331 20.8173 26.2992C20.0055 25.8456 19.084 25.3314 18.0004 25.3314C16.9168 25.3314 15.9953 25.8456 15.1835 26.2992C14.9549 26.426 14.6471 26.5974 14.4167 26.7009C14.2709 26.4563 14.0945 26.0724 13.9757 25.8153C13.5923 24.9832 13.1585 24.0403 12.3342 23.4172C11.4846 22.7761 10.4604 22.6333 9.55684 22.5065C9.28325 22.469 8.86206 22.4101 8.61187 22.3404C8.61907 22.0547 8.70187 21.5833 8.75587 21.2744C8.91426 20.3655 9.09426 19.337 8.78107 18.337C8.47328 17.3549 7.7515 16.6424 7.11071 16.0121C6.86952 15.7746 6.48973 15.3996 6.34214 15.1746C6.48973 14.9496 6.86952 14.5747 7.11071 14.3372C7.7497 13.7068 8.47328 12.9944 8.78107 12.0123C9.09426 11.0141 8.91426 9.98377 8.75587 9.07488C8.70187 8.76775 8.61907 8.29634 8.61187 8.01064C8.86386 7.941 9.28325 7.88207 9.55864 7.84457C10.4604 7.71958 11.4846 7.57673 12.3324 6.93568C13.1585 6.31071 13.5923 5.36789 13.9757 4.53578C14.1035 4.25722 14.3015 3.82866 14.3771 3.63403C14.6111 3.73403 14.9405 3.91973 15.1835 4.05366C15.9953 4.51257 16.915 5.02683 18.0004 5.02683C19.0858 5.02683 20.0055 4.51257 20.8173 4.05901C21.0459 3.93223 21.3537 3.76081 21.5841 3.65724C21.7299 3.90188 21.9063 4.28579 22.0251 4.54292C22.4085 5.37503 22.8423 6.31785 23.6666 6.94104C24.5162 7.58208 25.5404 7.72493 26.4439 7.85172C26.7175 7.88921 27.1387 7.94814 27.3889 8.01778C27.3817 8.30348 27.2989 8.77489 27.2449 9.08381C27.0865 9.9927 26.9065 11.0212 27.2197 12.0212C27.5275 13.0033 28.2493 13.7158 28.8901 14.3461C29.1313 14.5836 29.5111 14.9586 29.6587 15.1836C29.5111 15.4086 29.1313 15.7835 28.8901 16.021C28.2511 16.6514 27.5275 17.3638 27.2197 18.3459C26.9065 19.3441 27.0865 20.3744 27.2449 21.2833C27.2989 21.5904 27.3817 22.0619 27.3889 22.3476C27.1387 22.4118 26.7193 22.4708 26.4421 22.5083Z" fill="var(--fill-0, #00CC9C)"/>
</g>
</svg>
