<svg width="40" height="40" overflow="visible" style="display: block;" viewBox="0 0 40 40" fill="none" xmlns="http://www.w3.org/2000/svg">
<path id="Vector" d="M23.1179 33.0452V37.0935C23.1179 37.9283 22.792 38.6688 22.1754 39.2349C21.6226 39.739 20.9562 39.9999 20.2324 40C20.1419 40 20.0507 39.9959 19.9585 39.9877C14.8392 39.537 10.0118 37.2809 6.36553 33.6349C2.71906 29.9886 0.462743 25.1611 0.0122375 20.0417C-0.0614758 19.2076 0.19886 18.4405 0.765178 17.8238C1.3265 17.2083 2.06798 16.8813 2.90673 16.8813H6.95524C8.33369 16.8813 9.50133 17.8238 9.79473 19.1735L10.5178 22.5414C10.7264 23.5112 10.4481 24.4747 9.75408 25.1841L9.20511 25.7436C10.4565 27.8202 12.1807 29.545 14.255 30.7955L14.8132 30.2478C15.524 29.5525 16.4874 29.2743 17.4578 29.483L20.8224 30.2052C22.1736 30.4942 23.1179 31.6621 23.1179 33.0452ZM21.5176 22.4432C21.5176 21.7752 20.976 21.2336 20.3079 21.2336H17.1468V20.1094C17.1468 19.5715 17.5845 19.1338 18.1225 19.1338C20.0581 19.1338 21.5176 17.6113 21.5176 15.5925C21.5176 13.7205 19.9946 12.1975 18.1225 12.1975H15.937C15.269 12.1975 14.7273 12.7391 14.7273 13.4072C14.7273 14.0752 15.269 14.6168 15.937 14.6168H18.1225C18.6605 14.6168 19.0982 15.0545 19.0982 15.5925C19.0982 16.11 18.8427 16.7144 18.1225 16.7144C16.2504 16.7144 14.7273 18.2374 14.7273 20.1094V22.4432C14.7273 23.1113 15.269 23.6529 15.937 23.6529H20.3079C20.976 23.6529 21.5176 23.1113 21.5176 22.4432ZM29.8113 22.4432V13.4072C29.8113 12.7391 29.2696 12.1975 28.6015 12.1975C27.9334 12.1975 27.3918 12.7391 27.3918 13.4072V16.7144H25.561L26.0565 13.597C26.1613 12.9372 25.7115 12.3173 25.0516 12.2125C24.392 12.1076 23.7719 12.5574 23.6669 13.2173L22.9491 17.7342C22.8936 18.0838 22.9939 18.4402 23.2238 18.7094C23.4536 18.9786 23.7899 19.1337 24.1438 19.1337H27.3918V22.4432C27.3918 23.1112 27.9334 23.6528 28.6015 23.6528C29.2696 23.6528 29.8113 23.1112 29.8113 22.4432V22.4432ZM27.3241 35.3448C30.9212 34.2182 34.15 31.9264 36.4158 28.8916C38.7606 25.751 40 22.0137 40 18.084C40 13.2535 38.1189 8.7122 34.703 5.29658C31.2873 1.88104 26.7457 0 21.915 0C17.9848 0 14.2474 1.23943 11.1067 3.58433C8.07174 5.85037 5.77986 9.07978 4.65319 12.6777C4.45358 13.3152 4.8086 13.9939 5.44621 14.1935C6.08374 14.3932 6.76257 14.0381 6.96217 13.4006C9.01881 6.83238 15.0279 2.41934 21.9149 2.41934C30.5529 2.41934 37.5805 9.44656 37.5805 18.0841C37.5805 24.9705 33.1681 30.9792 26.6008 33.0361C25.9633 33.2358 25.6082 33.9145 25.8079 34.552C25.97 35.0693 26.4472 35.4005 26.9621 35.4005C27.0818 35.4005 27.2036 35.3826 27.324 35.3449L27.3241 35.3448Z" fill="var(--fill-0, #00CC9C)"/>
</svg>
