<svg width="33" height="40" overflow="visible" style="display: block;" viewBox="0 0 33 40" fill="none" xmlns="http://www.w3.org/2000/svg">
<path id="Vector" d="M32.9586 10.296C32.9117 9.24365 32.9117 8.23916 32.9117 7.23468C32.9117 6.42152 32.3022 5.7997 31.5051 5.7997C25.644 5.7997 21.1896 4.07773 17.4854 0.394619C16.9228 -0.13154 16.0788 -0.13154 15.5161 0.394619C11.8119 4.07773 7.3575 5.7997 1.49644 5.7997C0.69934 5.7997 0.0897895 6.42152 0.0897895 7.23468C0.0897895 8.23916 0.0897894 9.24365 0.0429009 10.296C-0.144653 20.3408 -0.425985 34.1166 16.0319 39.9043L16.5008 40L16.9696 39.9043C33.3806 34.1166 33.1462 20.3886 32.9586 10.296ZM15.3754 24.2152C15.0941 24.4544 14.7659 24.5979 14.3908 24.5979H14.3439C13.9688 24.5979 13.5937 24.4066 13.3592 24.1196L8.9986 19.1928L11.1086 17.2795L14.5314 21.154L22.1274 13.7877L24.0498 15.8924L15.3754 24.2152Z" fill="var(--fill-0, #00CC9C)"/>
</svg>
