<svg width="134.39" height="42" overflow="visible" style="display: block;" viewBox="0 0 134.39 42" fill="none" xmlns="http://www.w3.org/2000/svg">
<g id="logo">
<path d="M36.2716 26.0973C38.5173 23.2077 39.8455 19.9025 39.9063 16.7899C39.9824 12.8307 38.3855 8.98298 35.4148 5.95148C31.704 2.1697 26.1835 0 20.2776 0C9.09451 0 0 7.95896 0 17.7429V41.8226H5.0694V17.7429C5.0694 10.7522 11.8928 5.0694 20.2776 5.0694C24.835 5.0694 29.0325 6.68654 31.7953 9.50513C33.8078 11.5532 34.8876 14.1031 34.8369 16.6935C34.8065 18.2651 34.2185 19.9887 33.2097 21.6311C29.2048 17.165 24.0188 14.7824 19.2232 15.2336C14.6658 15.6645 9.90054 18.4273 9.53554 23.6285C9.2618 27.4711 11.832 32.0285 18.1738 33.5442C22.8174 34.6544 28.0287 33.3161 32.4695 29.8791C32.4847 29.8689 32.4949 29.8588 32.5101 29.8486C34.041 32.9866 35.1056 36.4439 35.79 39.1358C36.0536 40.1649 36.2564 41.0824 36.4135 41.8226H41.5843C41.052 39.004 39.4805 31.9626 36.2716 26.0973ZM29.367 25.8692C26.1429 28.3633 22.4929 29.367 19.355 28.6168C15.8976 27.7905 14.4681 25.6968 14.5897 23.9884C14.7317 22.0164 16.7341 20.5615 19.6946 20.2827C19.9227 20.2624 20.1509 20.2523 20.379 20.2523C23.5017 20.2523 27.0453 22.1786 29.7929 25.4231C29.8081 25.4433 29.8233 25.4636 29.8436 25.489C29.6864 25.6157 29.5293 25.7475 29.367 25.8692Z" fill="#0FC7A3"/>
<path d="M51.7235 19.061V2.17984H57.5533C58.8815 2.17984 59.9866 2.40797 60.8687 2.85914C61.7508 3.31032 62.4149 3.91358 62.861 4.66892C63.3071 5.42426 63.5301 6.25057 63.5301 7.158C63.5301 8.29354 63.1803 9.22124 62.4757 9.95124C61.7711 10.6812 60.8839 11.173 59.8143 11.4315C60.6862 11.7255 61.472 12.2274 62.1563 12.9473C62.8458 13.6671 63.4135 14.5441 63.8546 15.5833C64.3007 16.6175 64.5896 17.7784 64.7164 19.0559H61.7558C61.6443 17.8595 61.3554 16.7747 60.894 15.8013C60.4327 14.828 59.7484 14.0524 58.8409 13.4694C58.2884 13.1145 57.6547 12.8357 56.9348 12.6431C56.215 12.4505 55.3988 12.3541 54.4965 12.3541V19.0559H51.7286L51.7235 19.061ZM54.4914 10.1033H57.5533C58.5571 10.1033 59.3276 9.8245 59.8751 9.26687C60.4175 8.70923 60.6862 8.035 60.6862 7.23911C60.6862 6.44321 60.4125 5.74363 59.8751 5.22149C59.3327 4.70441 58.5571 4.44586 57.5533 4.44586H54.4914V10.1033Z" fill="var(--fill-0, white)"/>
<path d="M72.6348 19.2333C71.5499 19.2333 70.5665 19.061 69.6844 18.7213C68.8023 18.3817 68.047 17.9051 67.4234 17.2867C66.7999 16.6733 66.3234 15.9534 65.9888 15.1372C65.6542 14.3211 65.492 13.4238 65.492 12.4555C65.492 11.4011 65.6796 10.4531 66.0648 9.60145C66.445 8.74979 66.9621 8.01979 67.6211 7.40133C68.2751 6.78793 69.0355 6.31648 69.8922 5.99203C70.749 5.66759 71.6513 5.50537 72.5892 5.50537C73.4307 5.50537 74.2012 5.6169 74.8957 5.84502C75.5902 6.07314 76.1935 6.38745 76.7055 6.793C77.2175 7.19855 77.6079 7.66494 77.8816 8.20229C78.1554 8.73458 78.2922 9.31249 78.2922 9.92589C78.2922 10.7826 78.0388 11.4974 77.542 12.0652C77.0401 12.633 76.3861 13.0791 75.575 13.3984C74.7639 13.7229 73.8768 13.9409 72.9035 14.0524C71.9301 14.1639 70.9669 14.1994 70.0139 14.1487C69.8517 14.1335 69.6489 14.1183 69.4056 14.1132C69.1622 14.1031 68.9493 14.098 68.7618 14.0879C68.5742 14.0777 68.4728 14.0777 68.4576 14.0777C68.5691 14.61 68.8277 15.0916 69.2231 15.5225C69.6185 15.9534 70.1153 16.288 70.7185 16.5313C71.3167 16.7747 71.9555 16.8963 72.6348 16.8963C73.1873 16.8963 73.7298 16.8 74.2722 16.6023C74.8146 16.4097 75.3114 16.141 75.7677 15.8013C76.2189 15.4617 76.5991 15.0713 76.9083 14.6354L78.9715 16.1156C78.4392 16.8304 77.836 17.4134 77.1618 17.8747C76.4875 18.336 75.7727 18.6757 75.0123 18.8937C74.2519 19.1116 73.456 19.2232 72.6297 19.2232L72.6348 19.2333ZM70.2522 11.9486C70.8504 11.9486 71.4587 11.9182 72.0721 11.8624C72.6855 11.8066 73.2583 11.7002 73.7855 11.5481C74.3128 11.396 74.7386 11.178 75.063 10.9043C75.3875 10.6305 75.5497 10.2706 75.5497 9.83464C75.5497 9.46457 75.4331 9.12492 75.1999 8.82583C74.9667 8.52673 74.6372 8.28847 74.2164 8.11104C73.7957 7.93361 73.3039 7.84237 72.7362 7.84237C71.8946 7.84237 71.1393 8.02993 70.4752 8.4C69.8111 8.77514 69.289 9.26687 68.9088 9.88026C68.5286 10.4937 68.3207 11.1578 68.2903 11.8725C68.5184 11.8877 68.8023 11.903 69.142 11.9232C69.4816 11.9384 69.8568 11.9486 70.2572 11.9486H70.2522Z" fill="var(--fill-0, white)"/>
<path d="M82.2261 5.6828L86.0129 16.5871L89.7998 5.6828H92.74L87.6402 19.066H84.335L79.2605 5.6828H82.2261Z" fill="var(--fill-0, white)"/>
<path d="M95.7056 3.90851C95.1226 3.90851 94.6309 3.72094 94.2254 3.35088C93.8198 2.98081 93.617 2.51949 93.617 1.96693C93.617 1.41436 93.8198 0.953046 94.2254 0.572841C94.6309 0.192636 95.1226 0 95.7056 0C96.2886 0 96.7601 0.192636 97.1758 0.572841C97.5864 0.953046 97.7942 1.41943 97.7942 1.96693C97.7942 2.51442 97.5864 2.98081 97.1758 3.35088C96.7651 3.72601 96.2734 3.90851 95.7056 3.90851ZM94.2963 19.061V5.67773H97.0642V19.061H94.2963Z" fill="var(--fill-0, white)"/>
<path d="M101.606 5.6828L105.393 16.5871L109.18 5.6828H112.12L107.021 19.066H103.715L98.6408 5.6828H101.606Z" fill="var(--fill-0, white)"/>
<path d="M118.944 19.2333C117.778 19.2333 116.723 18.9444 115.775 18.3715C114.827 17.7987 114.077 16.9977 113.514 15.9686C112.957 14.9395 112.678 13.7381 112.678 12.3643C112.678 10.9905 112.957 9.78395 113.514 8.75993C114.072 7.73084 114.827 6.93494 115.775 6.36717C116.723 5.7994 117.778 5.51551 118.944 5.51551C120.044 5.51551 121.007 5.78926 121.833 6.32661C122.66 6.86904 123.258 7.61931 123.633 8.57236V5.6828H126.426V19.066H125.189C124.738 19.066 124.363 18.919 124.074 18.6301C123.785 18.336 123.638 17.966 123.638 17.5148V16.1562C123.268 17.1092 122.665 17.8646 121.838 18.4171C121.012 18.9697 120.049 19.2435 118.949 19.2435L118.944 19.2333ZM119.577 16.8304C120.272 16.8304 120.931 16.6581 121.544 16.3184C122.158 15.9788 122.66 15.4718 123.05 14.8027C123.44 14.1335 123.633 13.3173 123.633 12.3643C123.633 11.4112 123.44 10.5798 123.05 9.92589C122.66 9.27194 122.158 8.77007 121.544 8.43042C120.931 8.09076 120.272 7.91841 119.577 7.91841C118.883 7.91841 118.244 8.09076 117.621 8.43042C116.997 8.77007 116.49 9.26687 116.105 9.92589C115.715 10.5798 115.522 11.396 115.522 12.3643C115.522 13.3325 115.715 14.1335 116.105 14.8027C116.495 15.4769 116.997 15.9788 117.621 16.3184C118.244 16.6581 118.898 16.8304 119.577 16.8304Z" fill="var(--fill-0, white)"/>
<path d="M129.463 16.0041V1.08992H132.231V15.7608C132.231 16.1156 132.337 16.3944 132.545 16.5871C132.753 16.7797 133.006 16.876 133.295 16.876C133.488 16.876 133.66 16.8456 133.807 16.7797L134.39 18.8176C133.919 19.0914 133.361 19.2282 132.712 19.2282C132.195 19.2282 131.683 19.1167 131.181 18.8987C130.679 18.6807 130.269 18.331 129.944 17.8544C129.62 17.3779 129.458 16.7594 129.458 15.999L129.463 16.0041Z" fill="var(--fill-0, white)"/>
<path d="M51.7235 41.8276V24.9465H57.5533C58.8967 24.9465 60.012 25.1747 60.894 25.6258C61.7761 26.077 62.4351 26.6853 62.8762 27.4457C63.3122 28.2062 63.5301 29.0477 63.5301 29.9703C63.5301 30.7662 63.3375 31.5469 62.9472 32.3124C62.5568 33.0829 61.9282 33.7166 61.0664 34.2185C60.1995 34.7203 59.0285 34.9738 57.5584 34.9738H54.4965V41.8226H51.7286L51.7235 41.8276ZM54.4914 32.7179H57.5533C58.6382 32.7179 59.4341 32.4695 59.9359 31.9778C60.4378 31.4861 60.6862 30.8169 60.6862 29.9754C60.6862 29.1339 60.4327 28.4191 59.9359 27.9375C59.4341 27.4508 58.6382 27.2075 57.5533 27.2075H54.4914V32.7179Z" fill="var(--fill-0, white)"/>
<path d="M71.1292 42C69.8669 42 68.7313 41.7161 67.7175 41.1483C66.7036 40.5806 65.9026 39.7796 65.3146 38.7454C64.7214 37.7113 64.4274 36.5048 64.4274 35.1259C64.4274 33.747 64.7316 32.5253 65.3399 31.5063C65.9482 30.4874 66.7695 29.6915 67.8036 29.1288C68.8378 28.561 69.9886 28.2771 71.2508 28.2771C72.5131 28.2771 73.6842 28.561 74.7132 29.1288C75.7423 29.6966 76.5585 30.4874 77.1668 31.5063C77.7752 32.5253 78.0793 33.7318 78.0793 35.1259C78.0793 36.52 77.765 37.7062 77.1415 38.7454C76.5179 39.7796 75.6815 40.5856 74.6271 41.1483C73.5726 41.7161 72.4067 42 71.1292 42ZM71.1292 39.592C71.8237 39.592 72.4827 39.4247 73.1062 39.0952C73.7298 38.7657 74.2418 38.2638 74.6372 37.5998C75.0326 36.9357 75.2303 36.1094 75.2303 35.1208C75.2303 34.1323 75.0377 33.2857 74.6473 32.6317C74.257 31.9778 73.7602 31.4861 73.1519 31.1616C72.5435 30.8372 71.8947 30.675 71.1951 30.675C70.4955 30.675 69.8517 30.8372 69.2535 31.1616C68.6553 31.4861 68.1686 31.9727 67.7986 32.6317C67.4285 33.2857 67.2409 34.1171 67.2409 35.1208C67.2409 36.1246 67.4184 36.9357 67.7732 37.5998C68.1281 38.2638 68.6046 38.7606 69.1927 39.0952C69.7858 39.4298 70.4245 39.592 71.1241 39.592H71.1292Z" fill="var(--fill-0, white)"/>
<path d="M81.6938 26.6752C81.1108 26.6752 80.6191 26.4876 80.2135 26.1176C79.808 25.7475 79.6052 25.2862 79.6052 24.7336C79.6052 24.181 79.808 23.7197 80.2135 23.3395C80.6191 22.9593 81.1108 22.7667 81.6938 22.7667C82.2768 22.7667 82.7482 22.9593 83.1639 23.3395C83.5746 23.7197 83.7824 24.1861 83.7824 24.7336C83.7824 25.2811 83.5746 25.7475 83.1639 26.1176C82.7533 26.4927 82.2616 26.6752 81.6938 26.6752ZM80.2845 41.8276V28.4444H83.0524V41.8276H80.2845Z" fill="var(--fill-0, white)"/>
<path d="M86.2106 28.4444H88.9785V31.2377C89.1864 30.6699 89.521 30.1629 89.9721 29.7219C90.4233 29.2758 90.9455 28.926 91.5386 28.6675C92.1317 28.4089 92.7248 28.2771 93.323 28.2771C94.342 28.2771 95.2392 28.5002 96.0047 28.9463C96.7753 29.3924 97.3735 30.0362 97.8044 30.8777C98.2353 31.7192 98.4482 32.7382 98.4482 33.9396V41.8327H95.7056V34.5936C95.7056 33.3769 95.3964 32.4239 94.783 31.7294C94.1696 31.0349 93.3585 30.6851 92.3548 30.6851C91.7059 30.6851 91.128 30.8625 90.616 31.2174C90.1039 31.5722 89.7035 32.064 89.4145 32.6875C89.1255 33.311 88.9785 34.0258 88.9785 34.8369V41.8327H86.2106V28.4444Z" fill="var(--fill-0, white)"/>
<path d="M108.84 40.758C108.389 41.194 107.928 41.5133 107.456 41.706C106.99 41.8986 106.458 42 105.855 42C104.841 42 103.989 41.6502 103.31 40.9557C102.63 40.2612 102.291 39.3132 102.291 38.1118V30.7054H100.228V28.4444H101.226C101.566 28.4444 101.829 28.3481 102.012 28.1504C102.2 27.9578 102.296 27.6891 102.296 27.3494V25.1189H105.089V28.4444H108.339V30.7054H105.089V38.2791C105.089 38.7353 105.206 39.0547 105.439 39.2524C105.672 39.4501 105.931 39.5464 106.204 39.5464C106.448 39.5464 106.666 39.5059 106.858 39.4247C107.051 39.3487 107.244 39.2169 107.416 39.0344L108.851 40.758H108.84Z" fill="var(--fill-0, white)"/>
</g>
</svg>
