<svg preserveAspectRatio="none" width="100%" height="100%" overflow="visible" style="display: block;" viewBox="0 0 20 20" fill="none" xmlns="http://www.w3.org/2000/svg">
<g id="United Kingdom">
<path id="Vector" d="M20 10C20 15.5213 15.5254 19.9975 10.0046 20H9.89667C9.41192 19.995 8.92817 19.955 8.44917 19.8804C8.05693 19.8198 7.66872 19.7355 7.28667 19.6279C5.18907 19.036 3.34217 17.7752 2.02688 16.0373C0.711591 14.2994 -0.00011743 12.1795 1.45329e-08 10C1.45329e-08 4.47792 4.47583 3.98945e-06 10 3.98945e-06H10.0046C11.365 -0.00121305 12.7113 0.276038 13.9606 0.814688C15.2099 1.35334 16.3357 2.14199 17.2688 3.13209C19.0236 4.98811 20.0009 7.44574 20 10Z" fill="var(--fill-0, white)"/>
<path id="Vector_2" d="M7.47625 7.02583V7.47583H6.0225L1.93917 4.08042C2.19156 3.73708 2.46574 3.4103 2.76 3.10208L7.47625 7.02583Z" fill="var(--fill-0, #C8102E)"/>
<path id="Vector_3" d="M18.0737 4.09875L14.0142 7.47375H12.5238V7.05625L17.2562 3.11917L17.2688 3.13208C17.5415 3.41964 17.7967 3.72339 18.0329 4.04167L18.0737 4.09875Z" fill="var(--fill-0, #C8102E)"/>
<path id="Vector_4" d="M7.47625 12.5233V12.9733L2.76 16.8979C2.71833 16.8562 2.67667 16.8113 2.6375 16.7675C2.38941 16.4979 2.15641 16.2149 1.93958 15.9196L6.02292 12.5233H7.47625Z" fill="var(--fill-0, #C8102E)"/>
<path id="Vector_5" d="M18.0742 15.9008C17.8228 16.2444 17.5497 16.5716 17.2567 16.8804L12.5238 12.9429V12.5233H14.0142L18.0742 15.9008Z" fill="var(--fill-0, #C8102E)"/>
<g id="Group">
<path id="Vector_6" d="M3.99375 7.47583H0.32125C0.529886 6.67573 0.837834 5.90488 1.23792 5.18125L3.99375 7.47583Z" fill="var(--fill-0, #012169)"/>
<path id="Vector_7" d="M3.91083 12.5233L1.20833 14.7708C0.822134 14.0606 0.524229 13.3059 0.32125 12.5233H3.91083Z" fill="var(--fill-0, #012169)"/>
<path id="Vector_8" d="M7.47625 14.6367V19.6783C7.41292 19.6621 7.35125 19.645 7.28667 19.6271C5.97635 19.2581 4.75554 18.6245 3.69958 17.7654L7.47625 14.6367Z" fill="var(--fill-0, #012169)"/>
<path id="Vector_9" d="M7.47625 0.32125V5.28375L3.75583 2.18875C4.85067 1.31127 6.11847 0.674889 7.47625 0.32125Z" fill="var(--fill-0, #012169)"/>
<path id="Vector_10" d="M16.3013 2.23542L12.5238 5.36667V0.321666L12.5808 0.336249C13.9413 0.699167 15.2093 1.34646 16.3013 2.23542Z" fill="var(--fill-0, #012169)"/>
<path id="Vector_11" d="M19.6788 7.47583H16.0954L18.7917 5.2325C19.1775 5.94142 19.4754 6.69476 19.6788 7.47583Z" fill="var(--fill-0, #012169)"/>
<path id="Vector_12" d="M16.3333 17.7408C15.2191 18.6544 13.9201 19.3155 12.5258 19.6788V14.5733L16.3333 17.7408Z" fill="var(--fill-0, #012169)"/>
<path id="Vector_13" d="M19.6788 12.5233C19.4801 13.287 19.1913 14.0242 18.8183 14.7196L16.1788 12.5233H19.6788Z" fill="var(--fill-0, #012169)"/>
</g>
<path id="Vector_14" d="M20 9.89542V10.095C19.9957 10.5613 19.9591 11.0267 19.8904 11.4879H11.4879V19.89C11.0296 19.9584 10.5671 19.9951 10.1038 20H9.89542C9.43189 19.9952 8.96926 19.9583 8.51083 19.8896V11.4879H0.11C0.041626 11.029 0.00487275 10.566 0 10.1021C0 10.0367 0 9.97083 0 9.905C0.00431054 9.43858 0.040926 8.97302 0.109583 8.51167H8.51208V0.11C8.9484 0.0447683 9.38849 0.00802389 9.82958 0L10.1521 0C10.573 0.00601834 10.9932 0.038583 11.41 0.0975L11.4879 0.109167V8.51167H19.89C19.9584 8.96985 19.9951 9.43219 20 9.89542Z" fill="var(--fill-0, #C8102E)"/>
</g>
</svg>
