<svg width="24" height="24" overflow="visible" style="display: block;" viewBox="0 0 24 24" fill="none" xmlns="http://www.w3.org/2000/svg">
<path id="Vector" d="M13.8707 19.8271V22.2561C13.8707 22.757 13.6752 23.2013 13.3053 23.541C12.9736 23.8434 12.5737 24 12.1395 24C12.0852 24 12.0304 23.9975 11.9751 23.9926C8.9035 23.7222 6.0071 22.3685 3.81932 20.1809C1.63144 17.9932 0.277646 15.0967 0.00734249 12.025C-0.0368855 11.5246 0.119316 11.0643 0.459107 10.6943C0.795897 10.325 1.24079 10.1288 1.74404 10.1288H4.17314C5.00022 10.1288 5.7008 10.6943 5.87684 11.5041L6.3107 13.5248C6.43583 14.1067 6.26884 14.6848 5.85245 15.1105L5.52306 15.4462C6.27392 16.6921 7.30839 17.727 8.55302 18.4773L8.88792 18.1487C9.31438 17.7315 9.89244 17.5646 10.4747 17.6898L12.4935 18.1231C13.3041 18.2965 13.8707 18.9973 13.8707 19.8271ZM12.9106 13.466C12.9106 13.0651 12.5856 12.7401 12.1847 12.7401H10.2881V12.0656C10.2881 11.7429 10.5507 11.4803 10.8735 11.4803C12.0348 11.4803 12.9106 10.5668 12.9106 9.35549C12.9106 8.23229 11.9968 7.3185 10.8735 7.3185H9.56223C9.16137 7.3185 8.83639 7.64347 8.83639 8.04431C8.83639 8.44514 9.16137 8.77011 9.56223 8.77011H10.8735C11.1963 8.77011 11.4589 9.0327 11.4589 9.35549C11.4589 9.66599 11.3056 10.0286 10.8735 10.0286C9.75022 10.0286 8.83639 10.9424 8.83639 12.0656V13.466C8.83639 13.8668 9.16137 14.1918 9.56223 14.1918H12.1847C12.5856 14.1918 12.9106 13.8668 12.9106 13.466ZM17.8868 13.466V8.04431C17.8868 7.64347 17.5618 7.3185 17.1609 7.3185C16.7601 7.3185 16.4351 7.64347 16.4351 8.04431V10.0286H15.3366L15.6339 8.15821C15.6968 7.76231 15.4269 7.39041 15.031 7.3275C14.6352 7.26455 14.2631 7.53445 14.2002 7.93035L13.7695 10.6405C13.7362 10.8503 13.7964 11.0641 13.9343 11.2256C14.0722 11.3872 14.2739 11.4802 14.4863 11.4802H16.4351V13.4659C16.4351 13.8667 16.7601 14.1917 17.1609 14.1917C17.5618 14.1917 17.8868 13.8667 17.8868 13.4659V13.466ZM16.3944 21.2069C18.5527 20.5309 20.49 19.1559 21.8495 17.335C23.2564 15.4506 24 13.2082 24 10.8504C24 7.95213 22.8713 5.22732 20.8218 3.17795C18.7724 1.12862 16.0474 0 13.149 0C10.7909 0 8.54842 0.743657 6.66404 2.1506C4.84305 3.51022 3.46792 5.44787 2.79191 7.6066C2.67215 7.98915 2.88516 8.39632 3.26773 8.51613C3.65025 8.63593 4.05754 8.42288 4.1773 8.04034C5.41128 4.09943 9.01674 1.4516 13.149 1.4516C18.3318 1.4516 22.5483 5.66793 22.5483 10.8504C22.5483 14.9823 19.9009 18.5875 15.9605 19.8217C15.578 19.9415 15.3649 20.3487 15.4848 20.7312C15.582 21.0416 15.8683 21.2403 16.1773 21.2403C16.2491 21.2403 16.3222 21.2296 16.3944 21.207L16.3944 21.2069Z" fill="var(--fill-0, #00CC9C)"/>
</svg>
