<svg width="31" height="49" overflow="visible" style="display: block;" viewBox="0 0 31 49" fill="none" xmlns="http://www.w3.org/2000/svg">
<g id="Vector">
<path d="M20.3995 48.5348C20.3688 48.5462 20.3429 48.7821 20.2008 48.8182C16.7694 49.6953 14.1184 47.2962 14.6117 43.8173C14.8075 42.438 17.9567 39.0247 18.8945 37.418C23.6543 29.2598 23.4882 19.1971 18.5845 11.1454C17.3856 9.17714 14.4831 6.5944 14.4169 4.42641C14.368 2.81683 15.5476 1.03888 17.0113 0.389149C20.4532 -1.13957 22.8605 2.16425 24.6083 4.60335C33.3351 16.7789 33.098 33.2723 24.067 45.2062C22.8941 46.7558 22.2174 47.8574 20.3985 48.5348H20.3995ZM17.9913 2.31075C17.5699 2.40588 17.1466 2.794 16.9259 3.15359C15.7482 5.06473 17.9011 6.40509 18.8935 7.79873C25.5365 17.1251 26.4397 28.8859 20.5032 38.8221C19.8601 39.899 16.8779 43.4568 16.7454 44.0295C16.3154 45.8968 17.8992 47.5359 19.6921 46.7597C21.4966 45.9786 25.2725 39.5032 26.1344 37.5607C30.8808 26.8682 29.3844 11.3965 20.6414 3.02422C19.8322 2.24892 19.146 2.04915 17.9913 2.3098V2.31075Z" fill="var(--fill-0, #003327)"/>
<path d="M3.61407 13.3409C8.34601 12.6265 11.284 19.6584 11.5345 23.456C11.7745 27.0908 10.258 32.1317 7.39962 34.5784C3.73501 37.7148 -1.50467 33.9325 0.453369 29.5946C1.18956 27.9641 2.71567 27.3943 2.9038 25.1826C3.23302 21.307 0.38714 20.9455 0.0377635 18.3162C-0.264581 16.0397 1.27786 13.6948 3.61407 13.3419V13.3409ZM3.80412 15.4281C2.66 15.6602 1.98621 16.8379 2.13786 17.9356C2.28951 19.0334 3.50849 19.7526 4.0172 20.6421C5.32832 22.9347 5.39359 26.0958 4.0124 28.3713C3.22438 29.6688 0.942876 31.2908 2.69264 32.9793C5.1114 35.3138 7.62614 31.2299 8.43047 29.3292C9.48724 26.8321 9.68016 24.491 9.13594 21.8416C8.6925 19.686 6.57225 14.8668 3.80412 15.429V15.4281Z" fill="var(--fill-0, #003327)"/>
<path d="M10.2301 39.4785C9.18777 38.4464 11.6056 36.4905 12.2583 35.5925C17.0526 28.9925 17.1418 20.0152 12.2611 13.4208C11.5019 12.3944 9.46516 10.9399 10.0881 9.68037C10.9001 8.04131 13.4004 11.3042 13.9072 11.9796C19.6374 19.6204 19.3869 30.8732 13.0549 38.0925C12.4771 38.7517 11.1497 40.3879 10.2301 39.4785Z" fill="var(--fill-0, #003327)"/>
</g>
</svg>
