<svg width="40" height="40" overflow="visible" style="display: block;" viewBox="0 0 40 40" fill="none" xmlns="http://www.w3.org/2000/svg">
<path id="Vector" d="M32.1297 23.9595C31.9032 23.8807 31.673 23.8041 31.4409 23.7287C31.562 23.6574 31.6813 23.5848 31.7973 23.5098C34.0516 22.0549 35.293 19.9435 35.293 17.5645C35.293 15.1854 34.0515 13.074 31.7973 11.6191C30.9658 11.0823 30.0008 10.6387 28.9207 10.2912C30.0087 9.26648 30.5859 8.10719 30.5859 6.89336C30.5859 4.9432 29.0963 3.13328 26.3913 1.79695C24.0796 0.655 21.1782 0 18.431 0C15.7117 0 13.43 0.666719 11.8326 1.92797C10.273 3.15937 9.41414 4.92281 9.41414 6.89352C9.41414 8.59664 10.0562 10.1447 11.237 11.3286C11.074 11.3903 10.9122 11.4529 10.7529 11.5173C6.85422 13.0916 4.70703 15.2394 4.70703 17.5646C4.70703 19.3848 6.02289 21.0961 8.46445 22.5088C6.98633 22.9043 5.67195 23.417 4.54781 24.0423C1.61516 25.6735 0 28.0616 0 30.7666C0 33.4717 1.61516 35.8598 4.54781 37.4911C7.49859 39.1324 11.7568 40 16.862 40C22.1343 40 27.6992 39.1157 32.1297 37.5738C37.2784 35.7818 40 33.428 40 30.7666C40 28.1053 37.2784 25.7515 32.1297 23.9595ZM16.862 37.6562C12.1545 37.6562 8.29031 36.8909 5.68711 35.4428C4.16187 34.5945 2.34375 33.0945 2.34375 30.7666C2.34375 28.4387 4.16187 26.9388 5.68711 26.0904C7.37758 25.1501 9.60023 24.498 12.2398 24.1561C15.3197 25.1777 18.9187 25.752 22.3535 25.752C24.3645 25.752 26.2051 25.5459 27.8284 25.1463C33.6248 26.5334 37.6562 28.8179 37.6562 30.7666C37.6562 33.8035 27.8657 37.6562 16.862 37.6562ZM7.05078 17.5645C7.05078 15.983 9.76727 14.1409 13.7384 12.9542C15.0714 13.5016 16.6573 13.787 18.431 13.787C21.1314 13.787 23.9794 13.153 26.2713 12.0468C30.4269 12.7977 32.9492 14.8002 32.9492 17.5646C32.9492 21.1145 28.7902 23.4083 22.3535 23.4083C14.2558 23.4082 7.05078 20.1404 7.05078 17.5645ZM11.7579 6.89352C11.7579 4.08711 14.3148 2.34375 18.431 2.34375C20.7951 2.34375 23.3828 2.92492 25.3532 3.89836C27.1622 4.79203 28.2422 5.91172 28.2422 6.89352C28.2422 7.87531 27.1622 8.99492 25.3532 9.88867C23.3827 10.8621 20.795 11.4433 18.431 11.4433C14.3148 11.4433 11.7579 9.69992 11.7579 6.89352Z" fill="var(--fill-0, #003327)"/>
</svg>
