<svg width="25" height="50" overflow="visible" style="display: block;" viewBox="0 0 25 50" fill="none" xmlns="http://www.w3.org/2000/svg">
<path id="Vector" d="M21.7646 30.7183C21.1843 31.5063 19.2756 33.7824 18.4711 34.1159C17.7191 34.4282 16.9205 34.2418 16.8729 33.3179C16.8184 32.2549 18.109 31.744 18.7776 31.0065C26.1484 22.8773 22.7616 15.3578 16.9751 7.6669C16.3848 6.88199 13.2847 2.99878 12.7282 2.70658C12.4415 2.55645 12.4366 2.66124 12.2282 2.80734C11.6568 3.20735 10.5715 4.61191 10.0507 5.23157C6.85937 9.02915 2.39524 15.3638 2.02918 20.438C1.54705 27.1354 6.42586 31.2282 10.9505 35.1265L11.9346 36.4384C12.8225 30.1309 12.2362 23.7056 11.5308 17.4052C11.7312 15.9281 13.3234 16.0459 13.6736 17.6641C13.997 19.1614 14.1944 21.6713 14.3135 23.2552C14.8194 29.9667 14.8264 41.8904 10.4525 47.3132C9.92772 47.9641 6.8197 51.3737 6.22646 49.3838C5.82271 48.0276 7.33653 47.5137 8.07559 46.7117C9.55074 45.1126 11.1806 42.0405 10.893 39.8127C10.4416 36.3195 7.04191 34.9129 4.89714 32.6176C-4.3327 22.7393 1.01334 12.7481 8.3732 3.9318C8.88707 3.31616 11.6102 0.174528 12.0784 0.0354815C13.1478 -0.283922 14.6904 1.63753 15.4067 2.41438C22.587 10.205 29.1314 20.7191 21.7626 30.7183H21.7646Z" fill="var(--fill-0, #003327)"/>
</svg>
