<svg width="40" height="40" overflow="visible" style="display: block;" viewBox="0 0 40 40" fill="none" xmlns="http://www.w3.org/2000/svg">
<g id="Vector">
<path d="M19.9978 33.3891C19.244 33.3891 18.6329 34.0002 18.6329 34.7541V38.635C18.6329 39.3888 19.244 40 19.9978 40C20.7518 40 21.3628 39.3888 21.3628 38.635V34.7541C21.3628 34 20.7516 33.3891 19.9978 33.3891Z" fill="var(--fill-0, #003327)"/>
<path d="M19.9978 6.61131C20.7518 6.61131 21.3628 6.00015 21.3628 5.24631V1.365C21.3628 0.611154 20.7518 0 19.9978 0C19.244 0 18.6329 0.611154 18.6329 1.365V5.24631C18.6329 6.00015 19.244 6.61131 19.9978 6.61131Z" fill="var(--fill-0, #003327)"/>
<path d="M8.60273 29.4668L5.85752 32.2106C5.32427 32.7435 5.32409 33.6078 5.85697 34.1409C6.12359 34.4075 6.47302 34.5409 6.82245 34.5409C7.1717 34.5409 7.52077 34.4077 7.78739 34.1414L10.5326 31.3976C11.0659 30.8647 11.066 30.0004 10.5332 29.4673C9.99991 28.9341 9.1358 28.9341 8.60273 29.4668Z" fill="var(--fill-0, #003327)"/>
<path d="M30.4311 10.9316C30.7803 10.9316 31.1296 10.7984 31.3962 10.5319L34.141 7.78812C34.6741 7.25504 34.6743 6.39091 34.1414 5.85765C33.6083 5.32439 32.7442 5.32421 32.211 5.85747L29.4661 8.60129C28.9331 9.13418 28.9329 9.9985 29.4658 10.5316C29.7322 10.7984 30.0816 10.9316 30.4311 10.9316Z" fill="var(--fill-0, #003327)"/>
<path d="M6.61079 20.0003C6.61079 19.2464 5.99965 18.6353 5.24583 18.6353H1.36496C0.61114 18.6353 0 19.2464 0 20.0003C0 20.7541 0.61114 21.3653 1.36496 21.3653H5.24583C5.99965 21.3653 6.61079 20.7541 6.61079 20.0003Z" fill="var(--fill-0, #003327)"/>
<path d="M38.635 18.6353H34.7523C33.9983 18.6353 33.3874 19.2464 33.3874 20.0003C33.3874 20.7541 33.9983 21.3653 34.7523 21.3653H38.635C39.389 21.3653 40 20.7541 40 20.0003C40 19.2466 39.389 18.6353 38.635 18.6353Z" fill="var(--fill-0, #003327)"/>
<path d="M8.60237 10.5319C8.86881 10.7984 9.21824 10.9316 9.56749 10.9316C9.91674 10.9316 10.2662 10.7984 10.5326 10.5319C11.0657 9.99886 11.0657 9.13455 10.5326 8.60147L7.78885 5.85765C7.25579 5.32457 6.39149 5.32457 5.85861 5.85765C5.32554 6.39072 5.32554 7.25504 5.85861 7.78793L8.60237 10.5319Z" fill="var(--fill-0, #003327)"/>
<path d="M31.3978 29.4671C30.8648 28.9341 30.0005 28.9339 29.4674 29.467C28.9341 30 28.9341 30.8644 29.4672 31.3973L32.2106 34.1411C32.4772 34.4077 32.8265 34.5409 33.1759 34.5409C33.5252 34.5409 33.8746 34.4077 34.141 34.1413C34.6743 33.6082 34.6743 32.7439 34.1412 32.211L31.3978 29.4671Z" fill="var(--fill-0, #003327)"/>
<path d="M19.9993 9.3757C14.1414 9.3757 9.37567 14.1419 9.37567 20.0003C9.37567 25.8585 14.1414 30.6245 19.9993 30.6245C25.8577 30.6245 30.6238 25.8585 30.6238 20.0003C30.6238 14.1419 25.8575 9.3757 19.9993 9.3757ZM19.9993 27.8945C15.6467 27.8945 12.1056 24.3532 12.1056 20.0003C12.1056 15.6472 15.6467 12.1057 19.9993 12.1057C24.3524 12.1057 27.8939 15.6472 27.8939 20.0003C27.8939 24.3532 24.3524 27.8945 19.9993 27.8945Z" fill="var(--fill-0, #003327)"/>
</g>
</svg>
