<svg width="14.5455" height="14.5455" overflow="visible" style="display: block;" viewBox="0 0 14.5455 14.5455" fill="none" xmlns="http://www.w3.org/2000/svg">
<g id="svgexport-10" clip-path="url(#clip0_474_202)">
<path id="Vector" d="M11.7098 3.37058C11.6177 3.32301 11.5282 3.27086 11.4413 3.21433C11.1888 3.04741 10.9574 2.85074 10.7518 2.62854C10.2376 2.04018 10.0455 1.4433 9.97481 1.02541H9.97763C9.91854 0.678533 9.94299 0.454102 9.94672 0.454102H7.60466V9.51037C7.60466 9.63192 7.60466 9.7521 7.59955 9.87083C7.59955 9.88565 7.59812 9.89928 7.59728 9.91519C7.59728 9.92174 7.59728 9.92856 7.59586 9.93537V9.94047C7.57117 10.2654 7.467 10.5793 7.29253 10.8546C7.11806 11.1297 6.87862 11.3579 6.59529 11.5189C6.29999 11.6868 5.966 11.775 5.62625 11.7746C4.53506 11.7746 3.65069 10.8848 3.65069 9.78592C3.65069 8.68706 4.53506 7.79728 5.62625 7.79728C5.83281 7.79709 6.0381 7.82959 6.2345 7.89359L6.23733 5.50893C5.64113 5.43192 5.03543 5.4793 4.45846 5.64809C3.88149 5.81688 3.34575 6.10341 2.88506 6.48961C2.48139 6.84036 2.14201 7.25885 1.88222 7.72627C1.78336 7.89672 1.41034 8.58166 1.36518 9.69328C1.33677 10.3243 1.52625 10.978 1.6166 11.2481V11.2538C1.67341 11.4129 1.89359 11.9558 2.25239 12.4135C2.54171 12.7806 2.88355 13.1031 3.26688 13.3706V13.3649L3.27256 13.3706C4.40637 14.141 5.66347 14.0905 5.66347 14.0905C5.88109 14.0816 6.61006 14.0905 7.4379 13.6981C8.35609 13.2632 8.87881 12.6152 8.87881 12.6152C9.21272 12.228 9.47827 11.7867 9.664 11.3104C9.876 10.7533 9.94672 10.0851 9.94672 9.81801V5.01347C9.97509 5.03052 10.3535 5.2808 10.3535 5.2808C10.3535 5.2808 10.8987 5.63024 11.7493 5.85779C12.3594 6.01973 13.1816 6.05382 13.1816 6.05382V3.72882C12.8935 3.76007 12.3086 3.66916 11.7098 3.37058Z" fill="var(--fill-0, #1D1D1F)"/>
</g>
<defs>
<clipPath id="clip0_474_202">
<rect width="14.5455" height="14.5455" fill="white"/>
</clipPath>
</defs>
</svg>
