<svg width="40" height="40" overflow="visible" style="display: block;" viewBox="0 0 40 40" fill="none" xmlns="http://www.w3.org/2000/svg">
<path id="Vector" d="M38.8232 0H34.0447C33.4738 0 32.9853 0.408281 32.8861 0.968359L32.09 5.4657C31.8277 6.94719 30.9966 8.24312 29.7762 9.10398C27.1598 7.74555 23.8042 7.03125 20 7.03125C16.1958 7.03125 12.8402 7.74555 10.2238 9.10406C9.00338 8.2432 8.17224 6.94727 7.91004 5.46578L7.11389 0.968359C7.01475 0.408281 6.5262 0 5.9553 0H1.17679C0.445341 0 -0.108854 0.657812 0.0182045 1.37539L0.958439 6.6868C1.48244 9.64672 3.01428 12.2784 5.30699 14.1963C4.9095 15.2052 4.70589 16.2965 4.70589 17.4579C4.70589 20.7604 6.34761 24.1967 9.21012 26.8858C10.8381 28.4152 12.7134 29.5701 14.7219 30.3069C15.8518 31.8915 16.4706 33.7965 16.4706 35.7117V38.8281C16.4706 39.4753 16.9973 40 17.6471 40H22.3529C23.0027 40 23.5294 39.4753 23.5294 38.8281V35.7117C23.5294 33.7965 24.1482 31.8915 25.278 30.3069C27.2866 29.5701 29.1618 28.4152 30.7898 26.8858C33.6524 24.1967 35.2941 20.7604 35.2941 17.4579C35.2941 16.2967 35.0907 15.2058 34.6933 14.1971C36.9861 12.2791 38.5176 9.6468 39.0416 6.68672L39.9818 1.37531C40.1089 0.657813 39.5547 0 38.8232 0ZM3.27561 6.27977L2.57891 2.34375H4.96816L5.59287 5.87273C5.90973 7.66281 6.81373 9.26016 8.1455 10.4457C7.50777 10.9568 6.95601 11.5151 6.49224 12.1164C4.80503 10.5811 3.67718 8.54828 3.27561 6.27977ZM21.1765 35.7117V37.6562H18.8235V35.7117C18.8235 34.1294 18.4875 32.5541 17.8542 31.097C18.5624 31.198 19.279 31.25 20 31.25C20.721 31.25 21.4376 31.198 22.1458 31.0971C21.5125 32.5541 21.1765 34.1294 21.1765 35.7117ZM29.1755 25.1807C26.618 27.5831 23.3594 28.9062 20 28.9062C16.6406 28.9062 13.382 27.5831 10.8245 25.1807C9.53404 23.9684 8.52902 22.5548 7.88275 21.0938H8.63899C11.7275 21.0938 14.6312 19.8957 16.8151 17.7203C17.6659 16.873 18.7969 16.4062 20 16.4062C21.2031 16.4062 22.3341 16.873 23.1849 17.7203C25.3688 19.8957 28.2725 21.0938 31.361 21.0938H32.1172C31.471 22.5548 30.466 23.9684 29.1755 25.1807ZM32.8314 18.75H31.3609C28.9009 18.75 26.5881 17.7958 24.8485 16.063C23.5535 14.773 21.8316 14.0625 20 14.0625C18.1684 14.0625 16.4465 14.773 15.1514 16.063C13.4118 17.7958 11.0991 18.75 8.63899 18.75H7.16855C7.09648 18.315 7.05883 17.8829 7.05883 17.4579C7.05883 14.9937 8.26095 13.011 10.6318 11.5646C12.9462 10.1527 16.2733 9.375 20 9.375C23.7267 9.375 27.0538 10.1527 29.3682 11.5646C31.7391 13.011 32.9412 14.9938 32.9412 17.4579C32.9412 17.8829 32.9035 18.315 32.8314 18.75ZM36.7244 6.27977C36.3228 8.54836 35.1951 10.5813 33.5079 12.1166C33.0444 11.5155 32.4928 10.9573 31.8554 10.4464C33.187 9.2607 34.0903 7.66281 34.4072 5.87281L35.0318 2.34375H37.4211L36.7244 6.27977Z" fill="var(--fill-0, #003327)"/>
</svg>
