<svg width="21" height="21" overflow="visible" style="display: block;" viewBox="0 0 21 21" fill="none" xmlns="http://www.w3.org/2000/svg">
<g id="shipping-fast 1" clip-path="url(#clip0_517_1490)">
<g id="Vector">
<path d="M17.4882 16.3598C17.4932 16.2999 17.4932 16.2397 17.4882 16.1798C17.4882 15.6494 17.2775 15.1407 16.9024 14.7656C16.5273 14.3905 16.0186 14.1798 15.4882 14.1798C14.9578 14.1798 14.4491 14.3905 14.074 14.7656C13.6989 15.1407 13.4882 15.6494 13.4882 16.1798C13.4832 16.2397 13.4832 16.2999 13.4882 16.3598C13.4882 16.8902 13.6989 17.399 14.074 17.774C14.4491 18.1491 14.9578 18.3598 15.4882 18.3598C16.0186 18.3598 16.5273 18.1491 16.9024 17.774C17.2775 17.399 17.4882 16.8902 17.4882 16.3598Z" fill="var(--fill-0, #00CC9C)"/>
<path d="M9.4882 16.3598C9.49316 16.2999 9.49316 16.2397 9.4882 16.1798C9.4882 15.6494 9.27748 15.1407 8.90241 14.7656C8.52734 14.3905 8.01863 14.1798 7.4882 14.1798C6.95777 14.1798 6.44906 14.3905 6.07398 14.7656C5.69891 15.1407 5.4882 15.6494 5.4882 16.1798C5.48324 16.2397 5.48324 16.2999 5.4882 16.3598C5.4882 16.8902 5.69891 17.399 6.07398 17.774C6.44906 18.1491 6.95777 18.3598 7.4882 18.3598C8.01863 18.3598 8.52734 18.1491 8.90241 17.774C9.27748 17.399 9.4882 16.8902 9.4882 16.3598Z" fill="var(--fill-0, #00CC9C)"/>
<path d="M1.98969 11.6102H0.489686C0.351983 11.6098 0.216919 11.6479 0.0996859 11.7202C-0.0021864 11.783 -0.087551 11.8693 -0.149277 11.9718C-0.211002 12.0743 -0.247296 12.1901 -0.255127 12.3095C-0.262958 12.429 -0.242097 12.5485 -0.194289 12.6582C-0.146481 12.7679 -0.073113 12.8646 0.0196859 12.9402C0.15057 13.0519 0.317593 13.1124 0.489686 13.1102H2.98969C3.1886 13.1102 3.37936 13.1892 3.52002 13.3299C3.66067 13.4705 3.73969 13.6613 3.73969 13.8602C3.73969 14.0591 3.66067 14.2499 3.52002 14.3905C3.37936 14.5312 3.1886 14.6102 2.98969 14.6102H1.98969C1.79077 14.6102 1.60001 14.6892 1.45936 14.8299C1.3187 14.9705 1.23969 15.1613 1.23969 15.3602C1.23969 15.5591 1.3187 15.7499 1.45936 15.8905C1.60001 16.0312 1.79077 16.1102 1.98969 16.1102H4.74969C4.79271 15.6016 4.98005 15.1159 5.28969 14.7102C5.54847 14.3715 5.88117 14.0963 6.26243 13.9057C6.64369 13.715 7.06344 13.614 7.48969 13.6102C8.17665 13.6075 8.83954 13.863 9.34701 14.3261C9.85449 14.7891 10.1695 15.4259 10.2297 16.1102H12.7497C12.8084 15.4239 13.1225 14.7846 13.6298 14.3188C14.1372 13.853 14.8009 13.5945 15.4897 13.5945C16.1785 13.5945 16.8422 13.853 17.3495 14.3188C17.8569 14.7846 18.171 15.4239 18.2297 16.1102H19.5897C19.8236 16.1149 20.0518 16.0374 20.2345 15.8913C20.4173 15.7451 20.5429 15.5395 20.5897 15.3102L21.2497 12.0102C21.2445 11.9871 21.2445 11.9632 21.2497 11.9402C21.2639 11.8541 21.2639 11.7663 21.2497 11.6802L19.3697 6.14018C19.2672 5.84597 19.0752 5.59127 18.8205 5.41189C18.5657 5.23252 18.2612 5.13749 17.9497 5.14018H16.1497L16.2597 4.34018C16.2866 4.12821 16.2682 3.91295 16.2057 3.70863C16.1432 3.5043 16.0381 3.31556 15.8973 3.15487C15.7564 2.99419 15.5831 2.86523 15.3887 2.7765C15.1943 2.68778 14.9834 2.64131 14.7697 2.64018H3.48969C3.29077 2.64018 3.10001 2.7192 2.95936 2.85985C2.8187 3.0005 2.73969 3.19127 2.73969 3.39018C2.73969 3.5891 2.8187 3.77986 2.95936 3.92051C3.10001 4.06116 3.29077 4.14018 3.48969 4.14018H4.73969C4.9386 4.14018 5.12936 4.2192 5.27002 4.35985C5.41067 4.5005 5.48969 4.69127 5.48969 4.89018C5.48969 5.0891 5.41067 5.27986 5.27002 5.42051C5.12936 5.56116 4.9386 5.64018 4.73969 5.64018H0.489686C0.291579 5.64277 0.102315 5.72262 -0.0377802 5.86272C-0.177875 6.00281 -0.257724 6.19208 -0.260314 6.39018C-0.260591 6.57971 -0.188141 6.76211 -0.0579015 6.89979C0.0723384 7.03747 0.25044 7.11994 0.439686 7.13018H2.98969C3.1886 7.13018 3.37936 7.2092 3.52002 7.34985C3.66067 7.4905 3.73969 7.68127 3.73969 7.88018C3.73969 8.0791 3.66067 8.26986 3.52002 8.41051C3.37936 8.55117 3.1886 8.63018 2.98969 8.63018H1.32969C1.16296 8.66659 1.01364 8.75876 0.906375 8.89148C0.799108 9.0242 0.740308 9.18953 0.739686 9.36018C0.739686 9.5591 0.818704 9.74986 0.959356 9.89051C1.10001 10.0312 1.29077 10.1102 1.48969 10.1102H1.98969C2.1886 10.1102 2.37936 10.1892 2.52002 10.3299C2.66067 10.4705 2.73969 10.6613 2.73969 10.8602C2.73969 11.0591 2.66067 11.2499 2.52002 11.3905C2.37936 11.5312 2.1886 11.6102 1.98969 11.6102ZM15.9897 6.61018H17.8097C17.8622 6.61098 17.9132 6.62764 17.956 6.65799C17.9989 6.68833 18.0315 6.73093 18.0497 6.78018L19.4897 11.1102H15.3897L15.9897 6.61018Z" fill="var(--fill-0, #00CC9C)"/>
</g>
</g>
<defs>
<clipPath id="clip0_517_1490">
<rect width="21" height="21" fill="white"/>
</clipPath>
</defs>
</svg>
