<svg width="47" height="50" overflow="visible" style="display: block;" viewBox="0 0 47 50" fill="none" xmlns="http://www.w3.org/2000/svg">
<path id="Vector" d="M20.0812 16.9558C20.0833 16.5749 19.1361 16.7146 18.8904 16.7331C8.56168 17.4959 3.29332 30.3961 8.28258 38.8296C13.7234 48.0271 24.5424 49.4065 33.6933 45.2421C34.5877 44.835 37.6654 42.5826 37.5199 45.1799C37.4498 46.4174 33.7806 47.943 32.6847 48.3632C13.4744 55.7338 -4.66256 36.9384 1.07886 17.4468C6.40649 -0.636983 29.1513 -6.03234 41.9391 7.79762C55.4812 22.4439 39.341 43.95 22.9508 35.7489C17.5488 33.0458 13.5682 27.1375 16.2374 21.0241C16.9163 19.469 18.5143 17.556 20.0812 16.9568V16.9558ZM4.14785 33.5292C2.54439 21.3155 14.1565 10.4582 25.9735 15.464C27.0877 15.9354 31.8248 18.2468 30.2073 19.9066C29.2321 20.9073 27.4659 18.9746 26.3204 18.6003C19.2676 16.2933 15.1954 24.6625 19.8721 30.3645C26.2827 38.1814 38.7128 35.5197 43.0824 26.8418C48.8411 15.4028 38.3442 4.31422 27.4519 2.62926C11.0348 0.0887288 -1.4912 16.289 3.44203 31.9578L4.14785 33.5292Z" fill="var(--fill-0, #003327)"/>
</svg>
