<svg width="24" height="24" overflow="visible" style="display: block;" viewBox="0 0 24 24" fill="none" xmlns="http://www.w3.org/2000/svg">
<g id="Vector">
<path d="M0 13.3993V22.4321H1.59137C1.8089 23.3304 2.62262 24 3.59088 24C4.55914 24 5.37286 23.3304 5.59039 22.4321H9.75V13.3987L0 13.3993Z" fill="var(--fill-0, #00CC9C)"/>
<path d="M11.1562 18.7467V22.4747C11.389 23.3514 12.1915 24 13.1444 24C14.1127 24 14.9264 23.3304 15.1437 22.4321H17.5197L17.528 18.7467H11.1562Z" fill="var(--fill-0, #00CC9C)"/>
<path d="M13.2186 13.3986H11.1562V17.3405H17.274L13.2186 13.3986Z" fill="var(--fill-0, #00CC9C)"/>
<path d="M14.1658 0C8.7431 0 4.33154 4.3916 4.33154 9.78955C4.33154 10.532 4.4176 11.2723 4.58441 11.9927L13.7895 11.9921L18.9382 16.9971L18.9351 18.3483C20.1462 17.6755 21.2183 16.749 22.051 15.6383C23.326 13.938 24 11.9154 24 9.78955C24 4.3916 19.5884 0 14.1658 0ZM12.2084 5.8515C12.2084 6.33911 12.0176 6.79761 11.6711 7.14258C11.3648 7.44745 10.9693 7.63092 10.5432 7.66937L10.2275 7.67725C10.1147 7.67816 10.0089 7.72211 9.92926 7.80139C9.84869 7.88159 9.8042 7.98834 9.8042 8.10187V8.8493H12.1959V10.2502H8.39685V8.10187C8.39685 7.61426 8.58765 7.15576 8.93408 6.81079C9.24756 6.49878 9.65479 6.31421 10.0924 6.2818L10.3782 6.27612C10.4907 6.27521 10.5965 6.23126 10.6761 6.15198C10.7567 6.07159 10.8012 5.96503 10.8012 5.8515V5.44702C10.8012 5.25787 10.6467 5.10406 10.4566 5.10406H8.70978V3.70312H10.4566C11.4225 3.70312 12.2084 4.48535 12.2084 5.44702V5.8515ZM16.4932 10.1746H15.0859V7.71771H12.8714V3.76044H14.2787V6.31677H15.0859V5.56659H16.4932V10.1746ZM20.4772 8.06543H19.0699V6.86078H18.6945V8.01324H17.2872V3.76044H18.6945V5.45984H20.4772V8.06543Z" fill="var(--fill-0, #00CC9C)"/>
</g>
</svg>
