<svg width="40" height="40" overflow="visible" style="display: block;" viewBox="0 0 40 40" fill="none" xmlns="http://www.w3.org/2000/svg">
<g id="Vector">
<path d="M38.8281 0C38.1811 0 37.6565 0.524453 37.6562 1.17148C37.6562 1.23758 37.6319 6.39453 36.23 10.8757C33.9912 4.0732 27.2612 2.51039 24.3932 2.51039H15.6068C11.3503 2.51039 5.67695 5.08148 3.77008 10.8757C2.36813 6.39453 2.34383 1.23797 2.34375 1.17188C2.34352 0.524844 1.81891 0 1.17188 0C0.524687 0 0 0.524687 0 1.17188C0 1.53758 0.0366406 10.0371 3.14109 15.3107C3.27844 29.1562 16.5634 29.5182 16.9454 36.3177V38.8281C16.9454 39.4753 17.4701 40 18.1173 40H21.8828C22.53 40 23.0547 39.4753 23.0547 38.8281V36.3177C23.4193 29.5431 36.7342 29.1327 36.859 15.3107C39.9634 10.0371 40 1.53758 40 1.17188C40 0.524687 39.4753 0 38.8281 0ZM26.5446 28.2185C23.5446 30.4342 20.7109 32.527 20.7109 36.3177V37.6562H19.2891V36.3177C19.2891 32.527 16.4554 30.4342 13.4553 28.2186C9.40695 25.2286 5.4818 22.1859 5.4818 14.9791C5.4818 7.3443 12.1912 4.85414 15.6068 4.85414H24.3933C27.8738 4.85414 34.5183 7.4068 34.5183 14.9791C34.5182 22.0996 30.7119 25.1409 26.5446 28.2185Z" fill="var(--fill-0, black)"/>
<path d="M31.7969 19.2969L24.7656 21.4453V30.5469L29.8438 34.5703L33.3203 33.9453L37.1484 29.4922L37.8906 21.4453L37.1484 20.8203L31.7969 19.2969Z" fill="#F5F5F5"/>
<path fill-rule="evenodd" clip-rule="evenodd" d="M33.2819 18.0669L33.2231 18.1258L38.6752 19.9432C39.1537 20.1027 39.4765 20.5505 39.4765 21.0548V25.3914C39.4765 30.36 36.3095 34.7539 31.5958 36.3251C31.4755 36.3652 31.3504 36.3853 31.2252 36.3853C31.1001 36.3853 30.975 36.3651 30.8546 36.3251C27.0367 35.0525 24.2338 31.9278 23.3064 28.1461L22.9688 25.0657L22.9742 25.0603V21.0549C22.9742 20.5505 23.297 20.1028 23.7756 19.9432L29.9812 17.8746L31.5468 17.4219L33.2819 18.0669ZM25.318 21.8995V25.3914C25.318 29.2179 27.6758 32.6165 31.2254 33.9692C34.7748 32.6165 37.1327 29.2179 37.1327 25.3914V21.8996L31.2254 19.9303L25.318 21.8995Z" fill="var(--fill-0, black)"/>
<path d="M29.4269 25.8512C29.0428 25.3303 28.3092 25.2193 27.7883 25.6035C27.2674 25.9877 27.1565 26.7213 27.5406 27.2422L28.7905 28.9373C29.019 29.247 29.3734 29.4138 29.7345 29.4138C29.9427 29.4138 30.1531 29.3584 30.3427 29.243L34.5761 26.668C35.129 26.3316 35.3046 25.6107 34.9683 25.0577C34.6319 24.5048 33.9109 24.3292 33.358 24.6655L30.0407 26.6834L29.4269 25.8512Z" fill="var(--fill-0, black)"/>
</g>
</svg>
