<svg width="21.8182" height="21.8182" overflow="visible" style="display: block;" viewBox="0 0 21.8182 21.8182" fill="none" xmlns="http://www.w3.org/2000/svg">
<g id="u:instagram">
<path id="Vector" d="M15.7637 4.96392C15.5479 4.96392 15.337 5.0279 15.1576 5.14777C14.9782 5.26764 14.8384 5.43802 14.7558 5.63736C14.6732 5.8367 14.6516 6.05604 14.6937 6.26766C14.7358 6.47927 14.8397 6.67365 14.9923 6.82622C15.1448 6.97879 15.3392 7.08269 15.5508 7.12478C15.7625 7.16687 15.9818 7.14527 16.1811 7.0627C16.3805 6.98013 16.5509 6.84031 16.6707 6.66091C16.7906 6.48151 16.8546 6.27059 16.8546 6.05483C16.8546 5.7655 16.7396 5.48803 16.5351 5.28344C16.3305 5.07886 16.053 4.96392 15.7637 4.96392V4.96392ZM19.9455 7.16392C19.9278 6.40965 19.7865 5.66338 19.5273 4.95483C19.2961 4.34859 18.9364 3.79963 18.4728 3.34574C18.0226 2.87976 17.4724 2.52226 16.8637 2.30029C16.157 2.03316 15.4099 1.88866 14.6546 1.87301C13.6909 1.81847 13.3818 1.81847 10.9091 1.81847C8.43639 1.81847 8.1273 1.81847 7.16366 1.87301C6.40835 1.88866 5.66125 2.03316 4.95457 2.30029C4.34701 2.52451 3.79724 2.8817 3.34548 3.34574C2.87951 3.7959 2.52201 4.34614 2.30003 4.95483C2.0329 5.66151 1.8884 6.40861 1.87276 7.16392C1.81821 8.12756 1.81821 8.43665 1.81821 10.9094C1.81821 13.3821 1.81821 13.6912 1.87276 14.6548C1.8884 15.4101 2.0329 16.1572 2.30003 16.8639C2.52201 17.4726 2.87951 18.0229 3.34548 18.473C3.79724 18.937 4.34701 19.2942 4.95457 19.5185C5.66125 19.7856 6.40835 19.9301 7.16366 19.9457C8.1273 20.0003 8.43639 20.0003 10.9091 20.0003C13.3818 20.0003 13.6909 20.0003 14.6546 19.9457C15.4099 19.9301 16.157 19.7856 16.8637 19.5185C17.4724 19.2965 18.0226 18.939 18.4728 18.473C18.9384 18.0208 19.2985 17.4714 19.5273 16.8639C19.7865 16.1554 19.9278 15.4091 19.9455 14.6548C19.9455 13.6912 20 13.3821 20 10.9094C20 8.43665 20 8.12756 19.9455 7.16392V7.16392ZM18.3091 14.5457C18.3025 15.1228 18.198 15.6946 18 16.2366C17.8549 16.6323 17.6217 16.9898 17.3182 17.2821C17.0233 17.5826 16.6666 17.8152 16.2728 17.9639C15.7307 18.1619 15.1589 18.2664 14.5818 18.273C13.6728 18.3185 13.3364 18.3276 10.9455 18.3276C8.55457 18.3276 8.21821 18.3276 7.30912 18.273C6.70993 18.2842 6.1133 18.192 5.54548 18.0003C5.16892 17.844 4.82853 17.6119 4.54548 17.3185C4.24375 17.0264 4.01352 16.6686 3.87276 16.273C3.65081 15.7232 3.5277 15.1384 3.50912 14.5457C3.50912 13.6366 3.45457 13.3003 3.45457 10.9094C3.45457 8.51847 3.45457 8.1821 3.50912 7.27301C3.51319 6.68306 3.62089 6.09842 3.8273 5.54574C3.98734 5.16202 4.233 4.81998 4.54548 4.54574C4.82168 4.23317 5.16302 3.98492 5.54548 3.81847C6.09962 3.61851 6.68366 3.51399 7.27276 3.50938C8.18185 3.50938 8.51821 3.45483 10.9091 3.45483C13.3 3.45483 13.6364 3.45483 14.5455 3.50938C15.1225 3.516 15.6943 3.62051 16.2364 3.81847C16.6495 3.97179 17.0203 4.22106 17.3182 4.54574C17.6161 4.82499 17.8489 5.16641 18 5.54574C18.2021 6.09932 18.3067 6.68372 18.3091 7.27301C18.3546 8.1821 18.3637 8.51847 18.3637 10.9094C18.3637 13.3003 18.3546 13.6366 18.3091 14.5457ZM10.9091 6.24574C9.98713 6.24754 9.08636 6.52258 8.32062 7.03612C7.55489 7.54966 6.95855 8.27865 6.60697 9.13097C6.25538 9.9833 6.16432 10.9207 6.3453 11.8248C6.52627 12.7288 6.97115 13.559 7.62373 14.2103C8.27632 14.8616 9.10731 15.3048 10.0117 15.4841C10.9161 15.6633 11.8534 15.5704 12.705 15.2171C13.5566 14.8639 14.2845 14.2661 14.7965 13.4994C15.3086 12.7327 15.5818 11.8314 15.5818 10.9094C15.583 10.2958 15.4629 9.68811 15.2284 9.12115C14.9939 8.5542 14.6496 8.0392 14.2154 7.60579C13.7811 7.17237 13.2654 6.82908 12.698 6.59568C12.1306 6.36227 11.5227 6.24334 10.9091 6.24574V6.24574ZM10.9091 13.9366C10.3104 13.9366 9.72509 13.7591 9.22726 13.4265C8.72942 13.0938 8.34141 12.621 8.11228 12.0679C7.88316 11.5147 7.82321 10.906 7.94001 10.3188C8.05682 9.73155 8.34514 9.19214 8.76851 8.76877C9.19189 8.3454 9.73129 8.05708 10.3185 7.94027C10.9058 7.82346 11.5144 7.88341 12.0676 8.11254C12.6208 8.34167 13.0936 8.72968 13.4262 9.22751C13.7588 9.72535 13.9364 10.3106 13.9364 10.9094C13.9364 11.3069 13.8581 11.7006 13.706 12.0679C13.5538 12.4351 13.3308 12.7689 13.0497 13.05C12.7686 13.3311 12.4349 13.5541 12.0676 13.7062C11.7003 13.8583 11.3067 13.9366 10.9091 13.9366V13.9366Z" fill="var(--fill-0, white)"/>
</g>
</svg>
