<svg width="40" height="40" overflow="visible" style="display: block;" viewBox="0 0 40 40" fill="none" xmlns="http://www.w3.org/2000/svg">
<g id="Vector">
<path d="M36.4844 4.6875C37.1316 4.6875 37.6562 4.16283 37.6562 3.51562C37.6562 2.86842 37.1316 2.34375 36.4844 2.34375C35.8372 2.34375 35.3125 2.86842 35.3125 3.51562C35.3125 4.16283 35.8372 4.6875 36.4844 4.6875Z" fill="var(--fill-0, #003327)"/>
<path d="M20.0781 40C28.828 40 36.2666 34.2802 38.9389 26.3784C39.1059 25.8848 38.9268 25.3402 38.4995 25.042C38.072 24.7438 37.4992 24.7636 37.0934 25.0906C34.5668 27.1268 31.5196 28.2031 28.2812 28.2031C20.4841 28.2031 14.1406 21.8947 14.1406 14.1406C14.1406 9.34602 16.6941 4.75852 20.8047 2.16852C21.2455 1.8907 21.45 1.35523 21.3065 0.854297C21.1657 0.362969 20.7234 0.0207031 20.2148 0.00570312C20.187 0.00359375 20.1375 0 20.0781 0C9.07234 0 0 8.98102 0 20C0 31.015 9.06781 40 20.0781 40ZM16.4503 2.71508C13.4491 5.82875 11.7969 9.93266 11.7969 14.1406C11.7969 23.187 19.1917 30.5469 28.2812 30.5469C30.6612 30.5469 33.0111 30.0205 35.1557 29.0298C32.0239 34.3048 26.3396 37.6562 20.0781 37.6562C10.2994 37.6562 2.34375 29.7357 2.34375 20C2.34375 11.5015 8.40508 4.38625 16.4503 2.71508Z" fill="var(--fill-0, #003327)"/>
<path d="M22.4219 9.375C24.3275 9.375 25.9375 11.0207 25.9375 12.9688C25.9375 13.6159 26.4622 14.1406 27.1094 14.1406C27.7566 14.1406 28.2812 13.6159 28.2812 12.9688C28.2812 11.0207 29.8912 9.375 31.7969 9.375C32.4441 9.375 32.9688 8.85031 32.9688 8.20312C32.9688 7.55594 32.4441 7.03125 31.7969 7.03125C29.8584 7.03125 28.2812 5.45414 28.2812 3.51562C28.2812 2.86844 27.7566 2.34375 27.1094 2.34375C26.4622 2.34375 25.9375 2.86844 25.9375 3.51562C25.9375 5.45414 24.3604 7.03125 22.4219 7.03125C21.7747 7.03125 21.25 7.55594 21.25 8.20312C21.25 8.85031 21.7747 9.375 22.4219 9.375ZM27.1094 7.02719C27.4477 7.47766 27.8494 7.87805 28.301 8.21492C27.8492 8.55938 27.4522 8.96242 27.1094 9.4243C26.7666 8.9625 26.3697 8.55953 25.9177 8.21492C26.3695 7.87805 26.771 7.47766 27.1094 7.02719Z" fill="var(--fill-0, #003327)"/>
<path d="M38.8281 14.1406C39.4753 14.1406 40 13.616 40 12.9688C40 12.3215 39.4753 11.7969 38.8281 11.7969C38.1809 11.7969 37.6562 12.3215 37.6562 12.9688C37.6562 13.616 38.1809 14.1406 38.8281 14.1406Z" fill="var(--fill-0, #003327)"/>
</g>
</svg>
